<svg xmlns="http://www.w3.org/2000/svg" width="24" height="24" viewBox="0 0 24 24"><defs><style>.a{fill:none;}.b{fill:#7e84a3;}</style></defs><g transform="translate(-356 -3157)"><rect class="a" width="24" height="24" transform="translate(356 3157)"/><path class="b" d="M15.75,34.813V34.25A2.25,2.25,0,0,0,13.5,32H3.375A3.375,3.375,0,0,0,0,35.375v9A3.375,3.375,0,0,0,3.375,47.75H15.75A2.25,2.25,0,0,0,18,45.5V37.063A2.25,2.25,0,0,0,15.75,34.813ZM16.313,45.5a.563.563,0,0,1-.562.563H3.375a1.689,1.689,0,0,1-1.687-1.687v-9a1.689,1.689,0,0,1,1.688-1.687H13.5a.563.563,0,0,1,.563.563v1.125H3.938a.563.563,0,0,0,0,1.125H15.75a.563.563,0,0,1,.563.563ZM13.5,39.875A1.125,1.125,0,1,0,14.625,41,1.125,1.125,0,0,0,13.5,39.875Z" transform="translate(359 3129)"/></g></svg>