<svg xmlns="http://www.w3.org/2000/svg" width="158.711" height="56.456" viewBox="0 0 158.711 56.456"><defs><style>.a{fill:#f29b38;}</style></defs><g transform="translate(-1275.191 -3098.86)"><g transform="translate(1275.191 3125.393)"><g transform="translate(0 0)"><path d="M1768.488,3286.644c-.539-.087-4.6-.116-7.184-.06-.117,0-.234.022-.374.037-.064.659-.023,1.3-.03,1.934-.007.658,0,1.318,0,1.976v1.924q0,.988,0,1.976c0,.638,0,1.277-.005,1.945-.13.02-.227.04-.324.048s-.173,0-.26,0H1750.1a3.45,3.45,0,0,1-.135-.35c-.314-1.189-.623-2.379-.935-3.568-.048-.183-.1-.364-.161-.567a2.453,2.453,0,0,0-.307-.039q-3.641,0-7.281,0c-.068,0-.137.011-.233.019a2.824,2.824,0,0,0-.128.32c-.342,1.254-.678,2.508-1.019,3.762-.035.13-.083.258-.128.4-.161.01-.3.025-.434.025q-3.12,0-6.241,0c-.069,0-.139,0-.208,0-.156.006-.267-.05-.256-.24-.522.085-1,.168-1.475.238a27.524,27.524,0,0,1-6.427.268,11.974,11.974,0,0,1-3.576-.853,9.616,9.616,0,0,1-5.087-4.826c-.083-.17-.162-.343-.266-.561a1.762,1.762,0,0,0-.176.254,10.723,10.723,0,0,1-1.093,1.945,9.34,9.34,0,0,1-5.069,3.525,15.891,15.891,0,0,1-5.246.58,14.547,14.547,0,0,1-3.534-.548,9.512,9.512,0,0,1-6.251-5.379c-.036-.079-.07-.158-.109-.236a.832.832,0,0,0-.089-.108c-.076.149-.15.282-.212.42a9.844,9.844,0,0,1-1.323,2.169,9.392,9.392,0,0,1-4.757,3.105,15.932,15.932,0,0,1-5.194.58,14.433,14.433,0,0,1-3.686-.582c-.246-.075-.488-.165-.705-.239-.065-.142.011-.2.072-.255q.363-.335.733-.662,1.65-1.47,3.3-2.938a6.238,6.238,0,0,0,.464-.417,1.085,1.085,0,0,1,.92-.371,3.665,3.665,0,0,0,1.226-.2,3.8,3.8,0,0,0,2.193-1.65,4.957,4.957,0,0,0,.672-1.57,1.121,1.121,0,0,1,.529-.723,7.739,7.739,0,0,1,2.736-1.215c1.089-.222,2.128-.614,3.191-.927a41.726,41.726,0,0,0,5.294-1.994c.123-.055.25-.1.369-.15.13.119.081.244.082.356,0,.745-.016,1.491.01,2.236a8.966,8.966,0,0,0,.415,2.453,7.553,7.553,0,0,0,.494,1.2,3.941,3.941,0,0,0,3.224,2.165,5.99,5.99,0,0,0,1.915-.077,3.885,3.885,0,0,0,2.694-1.942,6.675,6.675,0,0,0,.715-2,15.407,15.407,0,0,0,.252-3.467,12.642,12.642,0,0,0-.354-2.883,6.524,6.524,0,0,0-.548-1.456,4.03,4.03,0,0,0-1.771-1.773c-.092-.046-.179-.1-.286-.161a2.645,2.645,0,0,1,.176-.211c.735-.711,1.467-1.425,2.208-2.129.465-.442.939-.875,1.415-1.3.23-.208.477-.4.7-.582a7.861,7.861,0,0,1,2.67,2.073,10.418,10.418,0,0,1,1.724,2.948,1.628,1.628,0,0,0,.2-.246,10.8,10.8,0,0,1,1.147-1.853,10.563,10.563,0,0,1,5.383-3.636,14.936,14.936,0,0,1,3.782-.637,22.576,22.576,0,0,1,3.738.114,19.605,19.605,0,0,1,4.825,1.2c.125.05.241.12.392.2l-2.041,5.062c-.142-.051-.253-.082-.357-.129a12.822,12.822,0,0,0-5.608-1.129,6.235,6.235,0,0,0-2.185.412,5.047,5.047,0,0,0-2.574,2.245,7.429,7.429,0,0,0-.9,2.8,12.819,12.819,0,0,0,.082,3.987,6.932,6.932,0,0,0,.755,2.2,4.607,4.607,0,0,0,3.511,2.4,10.758,10.758,0,0,0,3.464-.152,1.3,1.3,0,0,0,.216-.084,4.57,4.57,0,0,0,.033-.919c.007-.312,0-.624,0-.936,0-.295,0-.59,0-.885s-.007-.618-.011-.9a.6.6,0,0,0-.479-.1c-1.075,0-2.15,0-3.225,0h-.535a1.088,1.088,0,0,1-.071-.258q-.005-2.288,0-4.577a1.059,1.059,0,0,1,.037-.18,2.516,2.516,0,0,1,.34-.047c.762,0,1.525,0,2.288,0h7.125c.188,0,.375.011.54.016a.736.736,0,0,1,.1.532c0,1.005,0,2.011,0,3.017,0,.15.014.3.022.451.163.009.132-.109.165-.173a1.31,1.31,0,0,0,.071-.2l1.779-5.486q1.259-3.88,2.519-7.76c.053-.163.119-.321.175-.469.43-.061,5.579-.079,6.464-.028a.7.7,0,0,1,.085.054,2.273,2.273,0,0,1,.762,1.259,2.3,2.3,0,0,0,.227.522,1.009,1.009,0,0,0,.722.545c.237.046.479.075.719.1.171.019.344.023.548.035.078.21.162.416.231.625q1.891,5.751,3.783,11.5a1.456,1.456,0,0,0,.277.622c.008-.247.018-.427.018-.607q0-5.877,0-11.754c0-.139-.005-.278,0-.416.006-.114-.038-.264.118-.307.122-.034.172.087.239.164.171.2.336.4.521.579a3.856,3.856,0,0,0,.519.431,1.746,1.746,0,0,0,1.479.3c.2-.052.406-.091.6-.155a3.531,3.531,0,0,1,.963-.2,2.769,2.769,0,0,0,.99-.294,7.325,7.325,0,0,1,.778-.282,1.2,1.2,0,0,1,.322,0c.055.529.021,1.048.027,1.565s0,1.04,0,1.56v3.1c.174.158.355.1.521.1q2.444.006,4.889,0c.572,0,1.144,0,1.716,0,.135,0,.27-.016.436-.026a8.714,8.714,0,0,0,.027-1.1c.005-.381,0-.763,0-1.144v-6.589c.186-.165.386-.1.568-.1q2.7-.008,5.409,0c.171,0,.342.01.54.017.017.116.038.214.043.312.007.121,0,.242,0,.364v23.394a.925.925,0,0,1-.58.087c-1.439,0-2.878,0-4.317,0-.4,0-.8,0-1.2,0-.135,0-.27-.019-.406-.03a1.161,1.161,0,0,1-.061-.578q0-4.29,0-8.581Zm-21-.16c-.3-1.149-.587-2.269-.878-3.387s-.59-2.205-.868-3.312-.538-2.229-.832-3.455c-.068.219-.11.328-.135.441-.269,1.18-.514,2.365-.806,3.54-.467,1.879-.965,3.751-1.445,5.627a1.448,1.448,0,0,0-.1.544C1742.84,3286.546,1746.891,3286.554,1747.489,3286.484Z" transform="translate(-1616.421 -3271.869)"/><path d="M1519,3291.594c.155-1.244.222-2.465.344-3.719a15.131,15.131,0,0,0-1.957.056c-.639.024-1.278.044-1.91.066-.09-.311-.09-.311.041-.775a10.592,10.592,0,0,1,1.285,0c.416,0,.832.015,1.248.012a9.44,9.44,0,0,0,1.321-.013c.113-.652.137-1.306.2-1.957s.114-1.275.17-1.889a.479.479,0,0,0-.42-.094c-1,.038-2.009.082-3.013.12-.151.006-.3-.005-.449-.008a5.122,5.122,0,0,1,.109-1.539c.123-.009.257-.029.39-.026.953.023,1.906.052,2.859.077.189,0,.378,0,.6,0a9.115,9.115,0,0,0,.212-1.853,9.616,9.616,0,0,0,.114-1.832c-.663-.007-1.3.071-1.933.075s-1.273.119-1.881.076c-.045-.034-.063-.042-.071-.056a.089.089,0,0,1-.009-.05q.155-1.865.312-3.728c.01-.12.041-.238.067-.379a2.221,2.221,0,0,1,.3-.041q2.937,0,5.875,0c.1,0,.2.016.309.024a1.154,1.154,0,0,1,.059.573q.005,3.171,0,6.343,0,1.43,0,2.86c0,.151.01.3.018.541,2.326-3.512,4.709-6.884,6.992-10.259.066-.041.079-.051.1-.058a.125.125,0,0,1,.049-.015l6.551-.012c.1,0,.208.005.312.009a.108.108,0,0,1,.05.013.139.139,0,0,1,.03.037.145.145,0,0,1,.015.047.125.125,0,0,1-.019.048c-.016.031-.033.061-.051.09a.453.453,0,0,1-.029.043l-.061.084-7.236,10.29a.385.385,0,0,0-.028.044c-.008.015-.016.031-.022.046s-.011.033-.022.065a1.134,1.134,0,0,0,.229.5q1.534,2.745,3.074,5.486c.092.164.181.33.271.5a7.143,7.143,0,0,1-1.186,1.273,3.211,3.211,0,0,1-1.154.577c-.348.1-.7.2-1.047.3a4.314,4.314,0,0,0-1.81.98.934.934,0,0,1-.149.091,1.072,1.072,0,0,1-.272-.423q-1.209-2.33-2.41-4.662c-.079-.151-.166-.3-.249-.448a.79.79,0,0,0-.173.051c-.581.343-1.16.689-1.764,1.05-.008.625,0,1.247,0,1.869,0,.642,0,1.283.006,1.924q0,.936.007,1.872t.008,1.872c0,.641.008,1.282.009,1.923,0,.621.015,1.242,0,1.884a2.746,2.746,0,0,1-.331.044q-4.133,0-8.267,0c-.116,0-.233-.021-.362-.033a1.584,1.584,0,0,1-.016-.226q.221-2.589.448-5.178a.787.787,0,0,1,.067-.173c1.27-.058,2.545.094,3.829.079a4.165,4.165,0,0,0,.156-1.192c.047-.4.067-.795.108-1.19a7.353,7.353,0,0,0,.072-1.2,1.857,1.857,0,0,0-.731-.009c-.917.055-1.833.118-2.749.174a3.78,3.78,0,0,1-.4-.016.957.957,0,0,1-.023-.177c.025-.274.056-.547.082-.8.158-.143.32-.092.471-.09.97.013,1.941.033,2.911.048C1518.635,3291.61,1518.8,3291.6,1519,3291.594Z" transform="translate(-1477.518 -3273.729)"/><path d="M1635.977,3289.138c-.085-.3-.165-.546-.222-.8a17.21,17.21,0,0,1-.437-3.4,22.831,22.831,0,0,1,.116-3.374,13.835,13.835,0,0,1,.953-3.766,9.422,9.422,0,0,1,6.249-5.584,15.689,15.689,0,0,1,5.3-.575c.588.028,1.173.1,1.759.164.2.021.407.072.637.114a.769.769,0,0,1-.041.2,17.681,17.681,0,0,1-3.367,4.589,1.218,1.218,0,0,1-.678.326,5.21,5.21,0,0,0-1.147.316,3.877,3.877,0,0,0-2.012,1.943,1.585,1.585,0,0,1-.527.619,6.454,6.454,0,0,0-1.752,1.9c-.479.763-.937,1.539-1.388,2.318a15.971,15.971,0,0,1-.893,1.4c-.316.433-.588.9-.892,1.341-.451.656-.913,1.305-1.375,1.955A3.5,3.5,0,0,1,1635.977,3289.138Z" transform="translate(-1579.999 -3271.624)"/><path d="M1275.191,3339.7c.086-.005.171-.012.257-.015,1.974-.081,3.949-.158,5.923-.244,1.94-.084,3.879-.178,5.818-.265,1.125-.05,2.252-.091,3.377-.139q1.844-.079,3.688-.166c.883-.04,1.766-.081,2.65-.118,1.992-.083,3.984-.16,5.975-.247,1.957-.085,3.913-.179,5.87-.266,1.108-.05,2.217-.09,3.325-.138,1.247-.054,2.493-.112,3.74-.167a4.931,4.931,0,0,1,.908-.008c-.04.906-.125,1.778-.224,2.625a.558.558,0,0,1-.085.043.666.666,0,0,1-.151.026q-20.252-.424-40.5-.851c-.189,0-.378-.022-.568-.034Z" transform="translate(-1275.191 -3327.729)"/><path d="M1343.3,3367.729c-.058.858-.12,1.648-.213,2.433a.606.606,0,0,1-.167.057q-17.935-.38-35.871-.8c.518-.04,1.035-.092,1.554-.117,1.87-.087,3.74-.162,5.611-.247s3.74-.177,5.61-.267c.849-.041,1.7-.082,2.545-.118,1.887-.083,3.776-.159,5.663-.246,1.835-.084,3.67-.179,5.506-.265,1.074-.05,2.148-.09,3.221-.14,1.143-.052,2.286-.108,3.428-.162l2.753-.129C1343.043,3367.725,1343.145,3367.729,1343.3,3367.729Z" transform="translate(-1302.159 -3352.968)"/><path d="M1340.485,3306.715c.29-.031.58-.076.872-.091q3.687-.181,7.375-.352,3.168-.153,6.336-.314,3.116-.154,6.232-.309c2.389-.121,4.777-.249,7.166-.369,1.194-.06,2.389-.11,3.584-.162.116,0,.232.012.382.021-.05.8-.1,1.571-.207,2.317-.061.029-.091.057-.121.056q-15.8-.367-31.607-.738Z" transform="translate(-1330.457 -3299.974)"/><path d="M1408.352,3397.88c-.078.774-.1,1.515-.215,2.24a.65.65,0,0,1-.463.066q-1.949-.056-3.9-.121c-1.437-.048-2.875-.1-4.313-.146-1.611-.05-3.223-.089-4.834-.139q-4.157-.13-8.315-.269l-1.947-.059C1384.914,3399.321,1407.725,3397.872,1408.352,3397.88Z" transform="translate(-1367.601 -3378.489)"/></g><g transform="translate(102.24 25.521)"><path d="M1987.04,3440.015a3.734,3.734,0,0,1-.184.976,1.692,1.692,0,0,1-1.251,1.128,2.59,2.59,0,0,1-1.282-.007,1.634,1.634,0,0,1-1.192-1.053,3.01,3.01,0,0,1-.021-2.083,1.618,1.618,0,0,1,1.164-1.083,2.7,2.7,0,0,1,1.385-.009,1.615,1.615,0,0,1,1.21,1.167A8.555,8.555,0,0,1,1987.04,3440.015Zm-.969.085c-.02-.268-.024-.425-.045-.578a1.507,1.507,0,0,0-.082-.3,1.035,1.035,0,0,0-1.916-.035,2.309,2.309,0,0,0,0,1.626.926.926,0,0,0,.979.619.908.908,0,0,0,.917-.631A5.052,5.052,0,0,0,1986.071,3440.1Z" transform="translate(-1976.48 -3437.798)"/><path d="M2038.624,3440.567l-.725-.064a1.179,1.179,0,0,1-.031-.656,4.562,4.562,0,0,1,1.588-.026,8.785,8.785,0,0,1,.009,2.181,4.078,4.078,0,0,1-1.924.188,1.7,1.7,0,0,1-1.443-1.441,3.275,3.275,0,0,1-.032-1.188,1.837,1.837,0,0,1,1.417-1.612,2.934,2.934,0,0,1,2,.16,2.049,2.049,0,0,1-.277.684c-.155-.044-.3-.09-.448-.128a1.329,1.329,0,0,0-1.8,1.381,2.549,2.549,0,0,0,.092.667.956.956,0,0,0,.939.756,4.255,4.255,0,0,0,.615-.05A2.288,2.288,0,0,0,2038.624,3440.567Z" transform="translate(-2021.418 -3437.836)"/><path d="M2123.327,3438.183a1.762,1.762,0,0,1-.284.646c-.173-.05-.333-.111-.5-.142a2.771,2.771,0,0,0-.563-.056.4.4,0,0,0-.421.316.4.4,0,0,0,.182.449c.156.1.331.184.5.278.239.138.486.265.709.425a1.015,1.015,0,0,1,.427.794,1.16,1.16,0,0,1-.859,1.257,2.588,2.588,0,0,1-1.88-.176,1.4,1.4,0,0,1,.015-.772c.138.044.247.084.359.114a5.331,5.331,0,0,0,.7.169,1.261,1.261,0,0,0,.507-.055.386.386,0,0,0,.17-.63,1.1,1.1,0,0,0-.282-.223c-.164-.1-.338-.173-.5-.265a3.551,3.551,0,0,1-.445-.264,1.2,1.2,0,0,1-.457-1.335,1.152,1.152,0,0,1,1.031-.82A2.565,2.565,0,0,1,2123.327,3438.183Z" transform="translate(-2092.992 -3437.855)"/><path d="M2290.583,3442.008v-.77c.122.027.219.045.315.07a7.575,7.575,0,0,0,.753.191,1.228,1.228,0,0,0,.51-.043.389.389,0,0,0,.168-.662,2.042,2.042,0,0,0-.425-.291c-.24-.138-.5-.249-.727-.4a1.192,1.192,0,0,1,.464-2.184,2.529,2.529,0,0,1,1.618.252,1.208,1.208,0,0,1-.2.624c-.181.095-.308-.057-.458-.07-.222-.019-.444-.075-.666-.076a.413.413,0,0,0-.219.77c.142.1.3.171.451.256.226.126.463.239.676.385a1.116,1.116,0,0,1,.489,1.178,1.137,1.137,0,0,1-.872.934,2.664,2.664,0,0,1-1.635-.062C2290.758,3442.088,2290.7,3442.057,2290.583,3442.008Z" transform="translate(-2236.88 -3437.871)"/><path d="M2247.156,3441.368v.7a2.509,2.509,0,0,1-1.1.237,2.065,2.065,0,0,1-1.005-.21,1.542,1.542,0,0,1-.79-.922,3.091,3.091,0,0,1-.017-1.989,1.771,1.771,0,0,1,1.672-1.252,2.49,2.49,0,0,1,1.371.275,1.461,1.461,0,0,1-.239.689c-.106-.028-.2-.05-.3-.079s-.195-.072-.3-.1a1.013,1.013,0,0,0-1.35.776,2.556,2.556,0,0,0,0,1.285.939.939,0,0,0,1.028.764,5.272,5.272,0,0,0,.665-.1C2246.9,3441.425,2247,3441.4,2247.156,3441.368Z" transform="translate(-2197.527 -3437.907)"/><path d="M2165.163,3442.414c-.168.016-.27.031-.371.034-.154,0-.308,0-.49,0a3.031,3.031,0,0,1-.052-.376c0-.849,0-1.7,0-2.546,0-.17-.012-.341-.02-.532-.367-.115-.74,0-1.091-.094a1.239,1.239,0,0,1,0-.663,21.448,21.448,0,0,1,3.143-.009,1.28,1.28,0,0,1,.013.652c-.35.136-.727-.013-1.1.118-.057.571-.02,1.141-.026,1.708C2165.157,3441.26,2165.163,3441.812,2165.163,3442.414Z" transform="translate(-2128.966 -3438.118)"/><path d="M1940.915,3438.242a3.121,3.121,0,0,1,.8-.047c.151.135.115.282.115.416,0,.849,0,1.7,0,2.546,0,.169.014.337.023.531a5.562,5.562,0,0,0,.846.029c.257.006.514.006.787.01a1.366,1.366,0,0,1,.048.662,12.772,12.772,0,0,1-2.577.022,7.709,7.709,0,0,1-.041-1.379c-.012-.45,0-.9,0-1.351Z" transform="translate(-1940.907 -3438.13)"/><path d="M2088.344,3442.421h-.844a1.139,1.139,0,0,1-.057-.247q-.005-1.866,0-3.733a1.5,1.5,0,0,1,.037-.224,2.571,2.571,0,0,1,.821-.025,1.4,1.4,0,0,1,.043.229C2088.344,3439.733,2088.344,3441.044,2088.344,3442.421Z" transform="translate(-2064.935 -3438.114)"/><path d="M2210.484,3438.209a3.1,3.1,0,0,1,.824-.008,1.323,1.323,0,0,1,.049.228c.008,1.311.008,2.623,0,3.956a1.862,1.862,0,0,1-.855.04,1.314,1.314,0,0,1-.048-.248q-.005-1.841,0-3.684C2210.454,3438.41,2210.471,3438.327,2210.484,3438.209Z" transform="translate(-2169.056 -3438.119)"/></g></g><g transform="translate(1317.092 3098.86)"><path d="M1583.448,3116.8a3.675,3.675,0,0,0-1.432-.372,27.447,27.447,0,0,0-4.26-.065c-.97.042-1.939.1-2.906.177-.916.068-1.83.163-2.745.245-.466.042-.934.07-1.4.127-.6.075-1.2.181-1.8.259-.756.1-1.512.2-2.271.268-1.312.117-2.624.243-3.942.257a23.056,23.056,0,0,1-4.5-.367,14.533,14.533,0,0,1-4.753-1.9,13.532,13.532,0,0,1-2.788-2.159,10.368,10.368,0,0,1-2.151-3.287,5.69,5.69,0,0,1-.469-2.586,2.485,2.485,0,0,1,.147-.707.707.707,0,0,1,.73-.477,1.942,1.942,0,0,1,.887.265,5.419,5.419,0,0,1,1.552,1.208c.5.572.984,1.165,1.466,1.755.263.322.505.661.764.986a7.974,7.974,0,0,0,2.276,1.951,12.8,12.8,0,0,0,4.224,1.541,27.4,27.4,0,0,0,7.046.3c.673-.057,1.341-.176,2.014-.23a40.272,40.272,0,0,0,4.141-.737c2.076-.389,4.15-.8,6.23-1.165,1.588-.28,3.193-.428,4.8-.562.969-.082,1.938-.09,2.908-.112,1.438-.033,2.875-.115,4.306-.265.569-.06,1.137-.123,1.705-.184a14.2,14.2,0,0,0,2.916-.734c2.041-.673,4.038-1.463,6.007-2.32,4.926-2.145,9.977-3.958,15.041-5.741.261-.092.52-.195.784-.276a8.373,8.373,0,0,0,1.7-.766,17.016,17.016,0,0,1,5.1-1.862,20.274,20.274,0,0,1,6.158-.292,30.137,30.137,0,0,1,8.633,2.173,43.108,43.108,0,0,1,4.339,2.119q2.088,1.165,4.179,2.323a1.507,1.507,0,0,1,.136.077,1,1,0,0,0,1.161.062,10.648,10.648,0,0,1,1.137-.51,2.491,2.491,0,0,1,1.779-.029.935.935,0,0,1,.587.477,1.934,1.934,0,0,0,.157.269.955.955,0,0,1,.156.784,4.943,4.943,0,0,0-.04.93,1,1,0,0,0,.426.8c.164.126.33.249.527.4a1.445,1.445,0,0,0,.12-.227,2.116,2.116,0,0,0-.037-1.18,1.306,1.306,0,0,0-.4-.654c-.1-.091-.2-.187-.3-.287a.28.28,0,0,1-.049-.341,1.011,1.011,0,0,1,.847.1,1.763,1.763,0,0,1,.865,1.121,3.51,3.51,0,0,1,.079,1.443c-.027.224-.051.447-.077.671a.883.883,0,0,0,.271.756c.246.243.5.481.766.7a5.1,5.1,0,0,1,.895.937,3.548,3.548,0,0,1,.681,1.827c.058.691.126,1.381.167,2.073.064,1.073.1,2.147.164,3.22a1.136,1.136,0,0,1-.7,1.215,4.956,4.956,0,0,0-1.571,1.174,5.2,5.2,0,0,1-.543.483,2.417,2.417,0,0,1-.78.4,1.448,1.448,0,0,1-1.3-.145,12.312,12.312,0,0,1-2.252-1.752c-.215-.226-.437-.446-.66-.664a3,3,0,0,0-1.484-.813c-.389-.083-.777-.176-1.169-.244a2.593,2.593,0,0,0-.568-.019c-.074,0-.145.064-.266.123a1.564,1.564,0,0,0,.314.24,6.755,6.755,0,0,1,1.539.959c.266.193.525.4.779.607a6.036,6.036,0,0,1,2.24,4.623,2.53,2.53,0,0,1-.222,1.112.8.8,0,0,1-.711.527c-.19.017-.378.05-.568.066a3.114,3.114,0,0,0-1.191.343,2.852,2.852,0,0,1-.94.276,4.932,4.932,0,0,0-.908.209,1.149,1.149,0,0,1-1.353-.373,4.105,4.105,0,0,1-.395-.546c-.187-.312-.352-.637-.532-.953-.093-.164-.2-.32-.317-.511a1.361,1.361,0,0,0-.273.173c-.176.191-.346.388-.5.594a1.934,1.934,0,0,1-1.873.777c-.207-.022-.413-.055-.62-.073-.448-.04-.9-.073-1.345-.112-.207-.019-.413-.044-.619-.07a.549.549,0,0,1-.46-.373c-.07-.178-.137-.356-.191-.539a1.12,1.12,0,0,0-.5-.7.7.7,0,0,1-.278-.852,1.044,1.044,0,0,0,.183-.595,1.433,1.433,0,0,0-.714-.392,15.325,15.325,0,0,0-1.559-.392c-.9-.157-1.815-.277-2.726-.394a6.457,6.457,0,0,0-.987-.033,17.23,17.23,0,0,1-2.947-.269c-1.151-.167-2.273-.462-3.407-.708a9.858,9.858,0,0,0-2.943-.216q-2.253.189-4.512.317c-1.246.07-2.494.1-3.741.14-1.577.043-3.155.061-4.731.11-.623.019-1.247.069-1.865.149a13.436,13.436,0,0,0-3.815,1.155,16.174,16.174,0,0,0-3.507,2.214c-1.509,1.224-2.933,2.542-4.318,3.9-.791.778-1.562,1.576-2.353,2.354-.42.413-.859.808-1.3,1.2a13.682,13.682,0,0,1-3.421,2.243,45.785,45.785,0,0,1-5.969,2.263c-1.028.308-2.048.64-3.1.874a6.676,6.676,0,0,0-2.056.853,17.616,17.616,0,0,0-1.675,1.139c-1.725,1.368-3.435,2.755-5.08,4.219-1.2,1.072-2.422,2.128-3.61,3.219-.855.785-1.677,1.607-2.5,2.428a11,11,0,0,0-.843.989c-.567.723-1.123,1.454-1.683,2.183a7.463,7.463,0,0,1-1.726,1.641,3.034,3.034,0,0,1-1.232.53,1.08,1.08,0,0,1-1.185-.456,1.436,1.436,0,0,0-1.011-.655,2.332,2.332,0,0,1-1.441-.951,2.278,2.278,0,0,1-.443-1.813,4.612,4.612,0,0,1,.489-1.419c.369-.687.756-1.364,1.153-2.035a2.806,2.806,0,0,1,1.6-1.252c.345-.113.7-.214,1.047-.307a4.953,4.953,0,0,0,2.407-1.467,25.158,25.158,0,0,0,2.506-3.249c.439-.665.892-1.321,1.332-1.986.181-.274.348-.559.515-.842.369-.628.728-1.261,1.1-1.885.187-.312.389-.616.6-.912a5.13,5.13,0,0,1,1.334-1.3c.62-.413,1.245-.819,1.853-1.25s1.215-.865,1.789-1.339a17.72,17.72,0,0,0,4.566-6.057c.636-1.308,1.183-2.658,1.779-3.986.334-.743.673-1.483,1.034-2.212a8.551,8.551,0,0,1,1.042-1.612,4.513,4.513,0,0,1,1.227-1.11A.7.7,0,0,0,1583.448,3116.8Zm-25.594,35.319a1.072,1.072,0,0,1-.1.236,2.461,2.461,0,0,1-.251.263c-.227.224-.247.395-.036.689a.948.948,0,0,0,.368.269,1.361,1.361,0,0,0,.818.053,3.78,3.78,0,0,0,1.447-.55,8.15,8.15,0,0,0,1.629-1.366q.662-.733,1.282-1.5,2.3-2.854,4.588-5.719a26,26,0,0,1,3.221-3.457,10.943,10.943,0,0,1,2.166-1.516c2.837-1.45,5.637-2.976,8.574-4.223q.239-.1.471-.218a66.018,66.018,0,0,0,6.165-3.449,16.018,16.018,0,0,0,1.471-1.069q3.12-2.551,6.218-5.127a32.832,32.832,0,0,1,3.164-2.274,7.715,7.715,0,0,1,1.952-.962,21.622,21.622,0,0,1,2.877-.687c.616-.1,1.236-.165,1.856-.234,1.189-.135,2.381-.223,3.577-.248.8-.017,1.595-.036,2.391-.073.813-.039,1.625-.113,2.439-.151,1.679-.079,3.359-.145,5.033-.308a14.733,14.733,0,0,0,3.052-.6c1.006-.32,2.02-.616,3.028-.931a1.91,1.91,0,0,0,.463-.223.263.263,0,0,0,.1-.354c-.147-.054-.319-.132-.5-.18-.2-.054-.408-.077-.612-.12a6.616,6.616,0,0,1-.707-.164,1.027,1.027,0,0,1-.8-1.127c0-.034,0-.069,0-.1a2.286,2.286,0,0,1,.385-1.224c.273-.421.574-.824.861-1.237.168-.242.337-.482.5-.729.055-.083.109-.182.016-.274-.167-.063-.345.1-.517-.048a.762.762,0,0,1,.133-.477c.348-.658.677-1.328,1.062-1.964a8.436,8.436,0,0,1,2.25-2.425,7.121,7.121,0,0,1,2.276-1.11,1.567,1.567,0,0,1,.348,0c-.151.2-.252.364-.375.5-.481.546-.958,1.1-1.457,1.626a6.912,6.912,0,0,0-1.266,1.892,5.2,5.2,0,0,0-.234.687.868.868,0,0,0,0,.247,4.445,4.445,0,0,0,1.014-.339,1.991,1.991,0,0,1,.264-.045,1.715,1.715,0,0,1-.432.516c-.321.316-.652.623-.972.94a6.794,6.794,0,0,0-1.368,1.948,4.053,4.053,0,0,0-.283.832.956.956,0,0,0,.529,1.13,6.3,6.3,0,0,0,.857.369c1.533.547,3.07,1.082,4.6,1.626a8.267,8.267,0,0,0,1.293.381,2.649,2.649,0,0,1,.549.152,11.793,11.793,0,0,0,1.837.555c.32.076.635.172.952.261.967.271,1.928.562,2.9.811a9.169,9.169,0,0,1,2.06.693,1.538,1.538,0,0,0,.908.162q.31-.035.621-.061a.507.507,0,0,1,.549.306c.088.188.177.376.262.565a1.5,1.5,0,0,0,.838.809c.144.058.287.122.434.173a1.241,1.241,0,0,1,.719.64c.094.185.181.374.265.564.063.142.1.3.176.433a11.022,11.022,0,0,0,.635,1.07c.258.361.613.3.794-.1a3.031,3.031,0,0,0,.1-.294c.041-.123.079-.246.122-.382.324.266.326.265.369.508.015.084.009.174.027.258a.358.358,0,0,0,.36.312.888.888,0,0,0,.638-.171,1.266,1.266,0,0,0,.551-1.064,2.451,2.451,0,0,1,.016-.745.914.914,0,0,1,.387.511,3.653,3.653,0,0,0,.235.519.519.519,0,0,0,.876.027,1.119,1.119,0,0,0,.156-.324,1.718,1.718,0,0,0,.033-.823,9.544,9.544,0,0,0-1-2.83,3.075,3.075,0,0,0-.763-.975,30.361,30.361,0,0,0-2.549-1.97,3.8,3.8,0,0,0-.441-.275,22.7,22.7,0,0,0-3.512-1.674,1.678,1.678,0,0,1-.239-.1,6.254,6.254,0,0,0-1.28-.421,16.182,16.182,0,0,0-2.1-.324q-.879-.086-1.754-.215a1.317,1.317,0,0,1-.714-.237l.449-.243a1.845,1.845,0,0,0-.262-.124,7.312,7.312,0,0,0-1.6-.2c-.329-.016-.658-.026-.986-.051a.962.962,0,0,1-.247-.112,2.293,2.293,0,0,1,1-.267c.484-.033.969-.061,1.453-.095.1-.007.191-.029.346-.054-.075-.1-.1-.164-.153-.19-.168-.087-.344-.161-.518-.236s-.353-.141-.524-.223c-.049-.023-.079-.088-.15-.173.125-.01.191-.021.256-.021a9.162,9.162,0,0,1,2.06.238c.61.148.733.069,1.023-.49a2.243,2.243,0,0,0,.194-.48c.083-.335.152-.675.208-1.016.079-.478.136-.96.214-1.438a1.159,1.159,0,0,1,.158-.29,2.219,2.219,0,0,1,.147.389q.1.615.162,1.234a.285.285,0,0,0,.318.288c.045-.16.091-.325.138-.489a4.765,4.765,0,0,1,.881-1.75c.056-.068.109-.188.25-.117a.413.413,0,0,1,.013.149c-.039.132-.088.261-.139.389a8.149,8.149,0,0,0-.607,3.039,3.866,3.866,0,0,0,.734,2.237,1.748,1.748,0,0,0,.69.615.882.882,0,0,0,.219.034c-.068-.307-.131-.571-.184-.838a2.014,2.014,0,0,1,.021-.827.984.984,0,0,1,.43-.682.878.878,0,0,1,.114.226c.035.2.052.41.074.616a5.867,5.867,0,0,0,.09.822,1.607,1.607,0,0,0,1.355,1.127.792.792,0,0,0,.776-.316,3.144,3.144,0,0,0,.3-.425,1.371,1.371,0,0,1,.579-.578c.225-.129.452-.258.668-.4a2.235,2.235,0,0,0,.925-1.091,2.268,2.268,0,0,1,.177-.292,2.341,2.341,0,0,1-.311.967c-.124.248-.273.483-.391.734a1.114,1.114,0,0,0,.246,1.421,4.948,4.948,0,0,0,.735.575c.447.3.91.57,1.365.856a10.051,10.051,0,0,1,2.2,1.888,12.321,12.321,0,0,0,1.366,1.275,1.545,1.545,0,0,0,1.161.367.41.41,0,0,0,.383-.223.418.418,0,0,0-.137-.469.952.952,0,0,0-.248-.187,5.885,5.885,0,0,0-.619-.267c-.326-.116-.664-.2-.988-.321a1.945,1.945,0,0,1-1.147-2.514.847.847,0,0,1,1.036.169,3.912,3.912,0,0,1,.4.475c.218.292.412.6.638.886a10.408,10.408,0,0,0,.817.94,2,2,0,0,0,.641.429.657.657,0,0,0,.955-.7c0-.086-.024-.171-.036-.257-.028-.206-.058-.412-.082-.619a.547.547,0,0,1,.086-.437c.138-.048.195.032.25.128a1.485,1.485,0,0,0,1.036.715c.358.076.565-.1.551-.423-.007-.156.01-.312,0-.468-.029-.467-.059-.934-.1-1.4a25.669,25.669,0,0,0-.539-3.333,4.762,4.762,0,0,0-.932-1.953,11.133,11.133,0,0,0-.786-.9c-.526-.529-1.071-1.037-1.61-1.553a1.723,1.723,0,0,0-.6-.417,1.176,1.176,0,0,1-.137.2.362.362,0,0,1-.629-.119,1.675,1.675,0,0,1-.179-.751c0-.416.026-.832.029-1.247a3.407,3.407,0,0,0-.034-.672.808.808,0,0,0-1.089-.653,1.681,1.681,0,0,0-.585.318,7.709,7.709,0,0,0-.754.785c-.214.249-.4.524-.6.783a2.173,2.173,0,0,1-1.306.791,1.129,1.129,0,0,1-.88-.134.683.683,0,0,1,.064-.474,4.2,4.2,0,0,1,1.129-1.375c-.051-.233-.236-.273-.384-.354-.333-.184-.675-.354-1-.546-.658-.385-1.3-.792-1.967-1.167-.527-.3-1.063-.585-1.615-.832a8.565,8.565,0,0,0-1.324-.452,4.469,4.469,0,0,0-1.755-.085c-.449.062-.555.01-.747-.379a2.159,2.159,0,0,0-.612-.764,8.853,8.853,0,0,0-1.025-.7,8.984,8.984,0,0,0-2.024-.8,20.4,20.4,0,0,0-3.466-.662,19.241,19.241,0,0,0-4.357-.083c-.773.093-1.544.213-2.308.363a12.937,12.937,0,0,0-2.739.792q-.975.428-1.939.882a10.292,10.292,0,0,0-2.053,1.214,3.073,3.073,0,0,1-.389.26,13.1,13.1,0,0,0-1.857,1.33c-.213.177-.431.348-.651.516a.155.155,0,0,1-.237-.021,1.414,1.414,0,0,1,.448-.733c.227-.238.469-.463.695-.7a1.148,1.148,0,0,0,.363-.641,1.406,1.406,0,0,0-.32.023c-.3.1-.592.2-.878.319a36.346,36.346,0,0,1-3.449,1.3,6.432,6.432,0,0,0-.637.222c-1.035.445-2.1.8-3.161,1.185-1.972.712-3.89,1.558-5.812,2.392-1.97.854-3.946,1.692-5.979,2.39a25.478,25.478,0,0,1-4.729,1.188,37.225,37.225,0,0,1-4.509.327c-1.317.023-2.633-.059-3.95,0-1.161.05-2.322.075-3.475.226q-2.963.389-5.894.975c-1.936.389-3.87.779-5.832,1.022-1.36.168-2.722.292-4.09.361a12.616,12.616,0,0,1-1.507-.026,32.648,32.648,0,0,1-3.5-.475,15.326,15.326,0,0,1-4.549-1.566,7.724,7.724,0,0,1-1.139-.724,7.88,7.88,0,0,0-.692-.457.621.621,0,0,0-.186-.046c-.006.062-.019.1-.01.122a2.314,2.314,0,0,0,.106.237,7,7,0,0,0,1.711,2.138,10.008,10.008,0,0,0,2.805,1.66,14.672,14.672,0,0,0,5.122,1.008c.814.022,1.629.04,2.443.056a5.115,5.115,0,0,0,.519-.009c1.089-.085,2.177-.166,3.264-.265,1.69-.155,3.374-.38,5.073-.456,1.194-.052,2.383-.189,3.581-.195.605,0,1.21-.08,1.815-.121a9.813,9.813,0,0,1,2.8.081c.54.119,1.074.272,1.6.443a1.7,1.7,0,0,0,1.165,0,5.067,5.067,0,0,1,.807-.179.744.744,0,0,1,.229.05,1.3,1.3,0,0,1-.172.232,5.275,5.275,0,0,1-.543.4,10.889,10.889,0,0,0-3.254,3.1,17.045,17.045,0,0,0-1.46,2.514q-.69,1.457-1.337,2.932a16.469,16.469,0,0,1-1.421,2.594c-.542.8-1.091,1.606-1.612,2.424a7.081,7.081,0,0,1-1.282,1.492c-.583.519-1.164,1.039-1.735,1.571-.266.247-.51.518-.755.786a.806.806,0,0,0-.09.248c.166-.013.287-.012.4-.033a7.621,7.621,0,0,0,1.539-.462,3.246,3.246,0,0,0,1.588-1.286c.2-.321.423-.635.646-.943.1-.136.175-.3.359-.354.008.038.029.075.021.1a4.2,4.2,0,0,1-2.389,3.024c-.525.226-1.045.461-1.573.68a21.207,21.207,0,0,0-2.521,1.226,8.567,8.567,0,0,0-2.906,2.624c-.087.13-.188.25-.274.379q-1.2,1.822-2.4,3.646c-.285.435-.55.882-.823,1.324a5.751,5.751,0,0,1-3.275,2.578q-.67.208-1.335.429a4.269,4.269,0,0,0-1.083.5,1.2,1.2,0,0,0-.468.542.609.609,0,0,0,.492.888c.147.024.3.029.514.05-.117.134-.176.248-.27.3a4.772,4.772,0,0,1-.662.29c-.244.088-.5.137-.745.226a.879.879,0,0,0-.622,1.261,1.618,1.618,0,0,0,.122.288.586.586,0,0,0,.725.35A.946.946,0,0,1,1557.854,3152.116Z" transform="translate(-1548.022 -3098.86)"/><path class="a" d="M1584.657,3156.576a.942.942,0,0,0-.533.017.586.586,0,0,1-.725-.35,1.587,1.587,0,0,1-.122-.287.88.88,0,0,1,.621-1.262c.243-.089.5-.138.745-.225a4.775,4.775,0,0,0,.663-.29c.094-.051.153-.165.27-.3-.217-.021-.367-.026-.514-.05a.609.609,0,0,1-.492-.887,1.207,1.207,0,0,1,.468-.542,4.245,4.245,0,0,1,1.084-.495q.665-.221,1.334-.429a5.751,5.751,0,0,0,3.275-2.577c.273-.442.538-.89.823-1.325q1.195-1.826,2.4-3.645c.086-.13.188-.249.274-.379a8.567,8.567,0,0,1,2.906-2.624,21.1,21.1,0,0,1,2.521-1.226c.527-.219,1.048-.454,1.573-.68a4.2,4.2,0,0,0,2.389-3.025c.008-.029-.013-.065-.021-.1-.184.054-.262.219-.36.354-.223.309-.441.622-.646.944a3.254,3.254,0,0,1-1.588,1.286,7.658,7.658,0,0,1-1.539.462c-.117.021-.238.02-.4.033a.8.8,0,0,1,.09-.248c.245-.269.489-.54.755-.787.571-.531,1.152-1.052,1.735-1.57a7.1,7.1,0,0,0,1.283-1.492c.521-.819,1.07-1.619,1.612-2.424a16.45,16.45,0,0,0,1.421-2.594q.648-1.475,1.338-2.931a17.048,17.048,0,0,1,1.46-2.515,10.891,10.891,0,0,1,3.254-3.1,5.228,5.228,0,0,0,.543-.4,1.283,1.283,0,0,0,.172-.232.757.757,0,0,0-.229-.051,5.126,5.126,0,0,0-.807.18,1.707,1.707,0,0,1-1.165,0c-.526-.171-1.06-.325-1.6-.443a9.8,9.8,0,0,0-2.8-.081c-.6.041-1.21.117-1.815.12-1.2.006-2.387.142-3.581.2-1.7.075-3.382.3-5.073.456-1.087.1-2.176.18-3.264.265-.172.013-.346.013-.519.009q-1.222-.025-2.443-.056a14.662,14.662,0,0,1-5.122-1.008,10.007,10.007,0,0,1-2.805-1.66,6.99,6.99,0,0,1-1.711-2.138,2.285,2.285,0,0,1-.106-.237c-.01-.026,0-.061.01-.123a.636.636,0,0,1,.186.046,7.817,7.817,0,0,1,.692.457,7.745,7.745,0,0,0,1.138.723,15.326,15.326,0,0,0,4.549,1.566,32.587,32.587,0,0,0,3.5.475,12.823,12.823,0,0,0,1.507.026c1.367-.069,2.73-.193,4.09-.361,1.962-.243,3.9-.634,5.832-1.022q2.93-.589,5.894-.975c1.153-.151,2.314-.176,3.475-.226,1.318-.057,2.634.026,3.95,0a37.17,37.17,0,0,0,4.509-.327,25.485,25.485,0,0,0,4.729-1.188c2.033-.7,4.009-1.535,5.979-2.39,1.922-.834,3.839-1.679,5.812-2.391,1.059-.383,2.126-.74,3.161-1.185a6.384,6.384,0,0,1,.637-.222,36.4,36.4,0,0,0,3.449-1.3c.286-.122.582-.222.878-.319a1.393,1.393,0,0,1,.32-.023,1.151,1.151,0,0,1-.363.641c-.226.24-.467.464-.695.7a1.414,1.414,0,0,0-.448.733.155.155,0,0,0,.237.021c.22-.167.438-.339.651-.516a13.089,13.089,0,0,1,1.857-1.33,3.056,3.056,0,0,0,.389-.26,10.314,10.314,0,0,1,2.053-1.214q.963-.454,1.939-.882a12.92,12.92,0,0,1,2.739-.791c.764-.15,1.535-.27,2.308-.363a19.269,19.269,0,0,1,4.357.083,20.4,20.4,0,0,1,3.466.663,7.608,7.608,0,0,1,3.049,1.506,2.16,2.16,0,0,1,.612.764c.192.389.3.441.747.38a4.468,4.468,0,0,1,1.755.085,8.588,8.588,0,0,1,1.324.452c.552.246,1.088.534,1.615.832.664.375,1.308.782,1.967,1.167.329.192.67.362,1,.546.147.081.333.121.384.355a4.2,4.2,0,0,0-1.129,1.374.683.683,0,0,0-.064.474,1.126,1.126,0,0,0,.88.134,2.174,2.174,0,0,0,1.306-.79c.2-.259.387-.534.6-.783a7.685,7.685,0,0,1,.754-.785,1.683,1.683,0,0,1,.585-.318.808.808,0,0,1,1.089.653,3.407,3.407,0,0,1,.035.672c0,.416-.026.832-.029,1.247a1.678,1.678,0,0,0,.179.752.362.362,0,0,0,.629.119,1.2,1.2,0,0,0,.138-.2,1.723,1.723,0,0,1,.6.417c.538.516,1.084,1.024,1.61,1.552a11.273,11.273,0,0,1,.786.9,4.765,4.765,0,0,1,.932,1.953,25.669,25.669,0,0,1,.539,3.333c.043.466.073.932.1,1.4.01.155-.007.312,0,.468.015.322-.193.5-.55.423a1.485,1.485,0,0,1-1.036-.715c-.055-.1-.112-.177-.25-.128a.545.545,0,0,0-.086.436c.023.207.054.413.082.619.012.086.032.171.036.257a.658.658,0,0,1-.955.7,2,2,0,0,1-.641-.429,10.367,10.367,0,0,1-.817-.94c-.226-.285-.42-.594-.638-.886a3.988,3.988,0,0,0-.4-.475.848.848,0,0,0-1.036-.169,1.946,1.946,0,0,0,1.147,2.514c.323.122.661.205.988.321a5.875,5.875,0,0,1,.619.266.961.961,0,0,1,.248.187.417.417,0,0,1,.137.469.411.411,0,0,1-.383.222,1.544,1.544,0,0,1-1.161-.367,12.3,12.3,0,0,1-1.366-1.275,10.045,10.045,0,0,0-2.2-1.888c-.454-.287-.917-.56-1.365-.856a4.909,4.909,0,0,1-.735-.575,1.114,1.114,0,0,1-.245-1.421c.117-.25.267-.486.391-.734a2.347,2.347,0,0,0,.311-.967,2.218,2.218,0,0,0-.177.292,2.235,2.235,0,0,1-.925,1.091c-.217.143-.443.272-.668.4a1.366,1.366,0,0,0-.579.578,3.147,3.147,0,0,1-.3.424.793.793,0,0,1-.776.316,1.606,1.606,0,0,1-1.355-1.127,5.856,5.856,0,0,1-.09-.822c-.022-.205-.038-.412-.074-.615a.889.889,0,0,0-.114-.226.986.986,0,0,0-.43.682,2.015,2.015,0,0,0-.021.826c.054.267.116.532.184.838a.872.872,0,0,1-.219-.033,1.75,1.75,0,0,1-.691-.616,3.866,3.866,0,0,1-.734-2.237,8.153,8.153,0,0,1,.607-3.039c.051-.127.1-.257.139-.388a.423.423,0,0,0-.013-.149c-.141-.071-.194.049-.25.116a4.772,4.772,0,0,0-.881,1.751c-.047.164-.093.328-.138.488a.285.285,0,0,1-.318-.288q-.068-.619-.162-1.233a2.25,2.25,0,0,0-.147-.39,1.155,1.155,0,0,0-.158.29c-.078.478-.135.96-.214,1.438-.056.341-.125.681-.208,1.016a2.245,2.245,0,0,1-.194.48c-.29.559-.413.638-1.023.49a9.132,9.132,0,0,0-2.06-.238c-.065,0-.131.01-.256.021.071.084.1.149.15.173.171.082.349.147.524.222s.349.149.518.236c.05.026.078.094.153.19-.155.025-.25.047-.346.054-.484.034-.969.062-1.453.094a2.3,2.3,0,0,0-1,.267.946.946,0,0,0,.247.113c.328.024.657.034.986.051a7.3,7.3,0,0,1,1.6.2,1.835,1.835,0,0,1,.262.124l-.449.242a1.319,1.319,0,0,0,.714.238q.874.129,1.754.214a16.351,16.351,0,0,1,2.1.324,6.237,6.237,0,0,1,1.28.421,1.708,1.708,0,0,0,.239.1,22.733,22.733,0,0,1,3.512,1.674,3.769,3.769,0,0,1,.441.275,30.375,30.375,0,0,1,2.55,1.969,3.078,3.078,0,0,1,.763.975,9.546,9.546,0,0,1,1,2.83,1.718,1.718,0,0,1-.033.823,1.12,1.12,0,0,1-.156.324.519.519,0,0,1-.876-.027,3.717,3.717,0,0,1-.235-.519.92.92,0,0,0-.387-.511,2.454,2.454,0,0,0-.016.746,1.265,1.265,0,0,1-.551,1.064.89.89,0,0,1-.638.171.357.357,0,0,1-.36-.312c-.018-.084-.012-.173-.028-.259-.043-.242-.045-.242-.369-.507-.043.135-.081.259-.122.381a3.073,3.073,0,0,1-.1.294c-.18.4-.536.458-.794.1a11.085,11.085,0,0,1-.635-1.07c-.075-.135-.113-.291-.176-.433-.084-.19-.171-.379-.265-.564a1.239,1.239,0,0,0-.719-.64c-.147-.051-.29-.114-.434-.173a1.505,1.505,0,0,1-.839-.809c-.085-.19-.174-.377-.262-.566a.507.507,0,0,0-.549-.305q-.311.025-.621.061a1.542,1.542,0,0,1-.908-.161,9.167,9.167,0,0,0-2.06-.694c-.973-.248-1.934-.539-2.9-.811-.317-.089-.631-.185-.951-.261a11.9,11.9,0,0,1-1.837-.555,2.69,2.69,0,0,0-.549-.153,8.227,8.227,0,0,1-1.293-.38c-1.533-.544-3.07-1.08-4.6-1.626a6.284,6.284,0,0,1-.856-.369.957.957,0,0,1-.53-1.131,4.054,4.054,0,0,1,.283-.831,6.789,6.789,0,0,1,1.368-1.948c.319-.318.651-.623.972-.94a1.721,1.721,0,0,0,.432-.516,2.077,2.077,0,0,0-.264.045,4.457,4.457,0,0,1-1.014.339.861.861,0,0,1,0-.247,5.155,5.155,0,0,1,.234-.687,6.917,6.917,0,0,1,1.266-1.892c.5-.529.976-1.08,1.457-1.626.123-.14.225-.3.375-.5a1.549,1.549,0,0,0-.348,0,7.12,7.12,0,0,0-2.276,1.11,8.437,8.437,0,0,0-2.25,2.425c-.385.636-.713,1.307-1.062,1.964a.764.764,0,0,0-.133.477c.172.151.35-.015.517.048.093.092.039.191-.016.275-.161.246-.329.488-.5.729-.287.412-.588.816-.861,1.237a2.286,2.286,0,0,0-.385,1.225c0,.035,0,.069,0,.1a1.027,1.027,0,0,0,.8,1.127,6.491,6.491,0,0,0,.707.164c.2.043.411.066.612.12.18.048.353.126.5.18a.264.264,0,0,1-.1.354,1.938,1.938,0,0,1-.463.222c-1.008.315-2.022.611-3.028.931a14.71,14.71,0,0,1-3.051.6c-1.675.163-3.354.229-5.033.307-.813.039-1.625.113-2.439.151-.8.038-1.594.057-2.391.073-1.2.025-2.389.112-3.578.247-.62.071-1.24.138-1.856.235a21.622,21.622,0,0,0-2.877.687,7.738,7.738,0,0,0-1.952.962,32.906,32.906,0,0,0-3.164,2.275q-3.1,2.574-6.218,5.128a16.063,16.063,0,0,1-1.471,1.069,66.014,66.014,0,0,1-6.165,3.449q-.232.116-.471.218c-2.937,1.247-5.737,2.773-8.574,4.222a10.954,10.954,0,0,0-2.166,1.516,26.005,26.005,0,0,0-3.22,3.457q-2.295,2.859-4.588,5.719-.62.768-1.282,1.5a8.178,8.178,0,0,1-1.629,1.366,3.788,3.788,0,0,1-1.447.55,1.36,1.36,0,0,1-.818-.053.949.949,0,0,1-.368-.269c-.211-.295-.191-.466.036-.69a2.579,2.579,0,0,0,.25-.263A1.079,1.079,0,0,0,1584.657,3156.576Zm49.84-32.49a2.541,2.541,0,0,0,.936-.032l2.6-.521c1.122-.224,2.254-.365,3.392-.48,1.171-.118,2.34-.261,3.506-.418a6.9,6.9,0,0,0,2.032-.605,3.48,3.48,0,0,0,1.858-1.936c.31-.808.6-1.625.888-2.44a1.626,1.626,0,0,0,.038-.332,1.521,1.521,0,0,0-.331.1c-.266.162-.528.331-.781.512-.338.242-.665.5-1,.747a10.871,10.871,0,0,1-3.379,1.672c-1.754.536-3.5,1.106-5.241,1.673a33.582,33.582,0,0,0-3.354,1.252c-.362.162-.706.365-1.054.557A.188.188,0,0,0,1634.5,3124.086Zm-4.247-10.573a1.914,1.914,0,0,0-.813.23c-.68.3-1.355.614-2.026.934a12.81,12.81,0,0,1-2.421.917,7.532,7.532,0,0,0-.884.3,3.292,3.292,0,0,0-.509.254.966.966,0,0,0-.474,1.064c.027.17.074.337.119.505a1.971,1.971,0,0,1-.035,1.176c-.108.309-.246.608-.383.906-.1.22-.23.427-.327.649a3.068,3.068,0,0,0-.2.589c-.093.447.153.658.6.531a1.671,1.671,0,0,0,.2-.07,1.577,1.577,0,0,0,.75-.618c.274-.44.556-.879.787-1.342a11.465,11.465,0,0,1,2.816-3.557c.262-.227.523-.454.79-.673.508-.417,1.022-.828,1.529-1.246A1.2,1.2,0,0,0,1630.25,3113.513Zm-9.6,10.291a1.952,1.952,0,0,0-1.387.546,4.684,4.684,0,0,0-.94,1.233,13.242,13.242,0,0,0-.834,1.842c-.214.566-.417,1.137-.632,1.7a9.979,9.979,0,0,1-1.214,2.344c-.508.7-1.021,1.4-1.531,2.1-.132.182-.26.366-.382.555-.031.049-.091.116.013.2a1.62,1.62,0,0,0,.248-.142c.268-.219.539-.436.793-.67a24.418,24.418,0,0,0,4.6-5.594c.165-.284.359-.553.506-.846.327-.648.646-1.3.941-1.964A1.19,1.19,0,0,0,1620.651,3123.8Zm-15.139,8.977-.278.3a.563.563,0,0,0,.8.165c.6-.307,1.2-.612,1.815-.895a15.527,15.527,0,0,0,4.354-3.232,6.084,6.084,0,0,0,.552-.686.92.92,0,0,0,.081-.254.783.783,0,0,0-.465.149c-.489.259-.972.53-1.461.79a2.061,2.061,0,0,1-1.556.207c-.25-.068-.5-.127-.754-.19a1.545,1.545,0,0,0-1.646.49,4.415,4.415,0,0,0-.477.614c-.243.4-.47.807-.681,1.223A1.845,1.845,0,0,0,1605.512,3132.781Zm51.071-21.885a1.048,1.048,0,0,0-.146-.133,2.048,2.048,0,0,0-.932-.289,4.331,4.331,0,0,0-2.121.4,3.292,3.292,0,0,0-1.1.767,5.491,5.491,0,0,0-1.155,1.895,3.713,3.713,0,0,0-.224,1.221,1.648,1.648,0,0,0,.079.334c.093-.115.151-.176.2-.245.2-.3.411-.6.606-.907a2.444,2.444,0,0,1,.549-.618c.489-.387.975-.778,1.465-1.164a4.281,4.281,0,0,1,1.424-.73c.265-.081.535-.144.8-.235A1.073,1.073,0,0,0,1656.583,3110.9Zm24.738,10.913a.836.836,0,0,0,.913-.388,2.116,2.116,0,0,0,.258-.615,3.694,3.694,0,0,0,.021-1.543,2.348,2.348,0,0,0-1.876-2.034,1.09,1.09,0,0,0-.229-.012.878.878,0,0,0,.112.533c.088.225.2.444.264.675a3.343,3.343,0,0,0,.849,1.521,1.143,1.143,0,0,1,.3.908.608.608,0,0,1-.3.565A.531.531,0,0,0,1681.321,3121.809Zm-3.171-11.011a1.452,1.452,0,0,0-1.039.578,9.032,9.032,0,0,1-1.12,1.21c-.01.008-.005.033-.009.063.053.128.175.131.295.133.378,0,.756.008,1.135.008a1.2,1.2,0,0,0,.191-.029.886.886,0,0,0,.131-.555,1.926,1.926,0,0,1,.312-1.023A1.258,1.258,0,0,0,1678.15,3110.8Z" transform="translate(-1574.825 -3103.32)"/><path d="M1936.5,3196.792a.188.188,0,0,1,.109-.252c.348-.192.692-.4,1.054-.558a33.715,33.715,0,0,1,3.354-1.252c1.744-.567,3.487-1.136,5.241-1.673a10.865,10.865,0,0,0,3.379-1.672c.333-.249.66-.505,1-.747.253-.181.515-.35.781-.512a1.53,1.53,0,0,1,.331-.1,1.615,1.615,0,0,1-.038.333c-.291.815-.577,1.632-.887,2.439a3.481,3.481,0,0,1-1.858,1.936,6.894,6.894,0,0,1-2.032.605c-1.167.157-2.335.3-3.506.418-1.138.115-2.271.256-3.392.48l-2.6.521A2.542,2.542,0,0,1,1936.5,3196.792Z" transform="translate(-1876.823 -3176.026)"/><path d="M1865,3165.232a1.207,1.207,0,0,1-.481.547c-.508.417-1.021.828-1.53,1.245-.267.219-.529.447-.79.673a11.461,11.461,0,0,0-2.816,3.557c-.231.463-.512.9-.787,1.341a1.576,1.576,0,0,1-.75.619,1.822,1.822,0,0,1-.2.07c-.447.127-.693-.084-.6-.531a3.077,3.077,0,0,1,.2-.589c.1-.222.226-.428.327-.649.136-.3.275-.6.382-.906a1.971,1.971,0,0,0,.035-1.176c-.044-.168-.091-.335-.119-.505a.966.966,0,0,1,.474-1.064,3.274,3.274,0,0,1,.51-.254,7.564,7.564,0,0,1,.884-.3,12.8,12.8,0,0,0,2.421-.917c.671-.32,1.345-.633,2.025-.934A1.921,1.921,0,0,1,1865,3165.232Z" transform="translate(-1809.572 -3155.039)"/><path d="M1808.025,3232.237a1.189,1.189,0,0,1,.181,1.3c-.3.663-.615,1.315-.941,1.964-.147.292-.341.562-.506.846a24.422,24.422,0,0,1-4.6,5.594c-.253.235-.524.452-.792.67a1.621,1.621,0,0,1-.248.143c-.1-.085-.044-.153-.013-.2.121-.189.25-.373.382-.555.509-.7,1.023-1.4,1.531-2.1a10.014,10.014,0,0,0,1.214-2.344c.215-.566.418-1.136.632-1.7a13.259,13.259,0,0,1,.834-1.842,4.7,4.7,0,0,1,.941-1.233A1.954,1.954,0,0,1,1808.025,3232.237Z" transform="translate(-1762.198 -3211.752)"/><path d="M1746.308,3265.338a1.846,1.846,0,0,1,.286-1.316c.211-.417.438-.826.681-1.224a4.427,4.427,0,0,1,.477-.613,1.544,1.544,0,0,1,1.646-.49c.251.063.5.123.754.19a2.062,2.062,0,0,0,1.555-.207c.489-.26.971-.531,1.46-.791a.788.788,0,0,1,.465-.149.906.906,0,0,1-.082.255,6.007,6.007,0,0,1-.552.685,15.5,15.5,0,0,1-4.354,3.232c-.613.283-1.215.588-1.815.9a.564.564,0,0,1-.8-.166Z" transform="translate(-1715.62 -3235.876)"/><path d="M2049.079,3145.806a1.074,1.074,0,0,1-.561.292c-.261.091-.532.155-.8.236a4.267,4.267,0,0,0-1.424.73c-.489.386-.975.777-1.465,1.164a2.452,2.452,0,0,0-.549.618c-.2.307-.4.606-.606.907-.047.069-.1.13-.2.245a1.633,1.633,0,0,1-.079-.334,3.714,3.714,0,0,1,.224-1.221,5.5,5.5,0,0,1,1.155-1.895,3.3,3.3,0,0,1,1.1-.767,4.329,4.329,0,0,1,2.121-.4,2.052,2.052,0,0,1,.932.29A1.015,1.015,0,0,1,2049.079,3145.806Z" transform="translate(-1967.321 -3138.229)"/><path d="M2236.367,3193.937a.531.531,0,0,1,.312-.392.607.607,0,0,0,.3-.565,1.145,1.145,0,0,0-.3-.908,3.344,3.344,0,0,1-.849-1.52c-.066-.231-.176-.449-.264-.675a.882.882,0,0,1-.112-.533,1.08,1.08,0,0,1,.229.012,2.347,2.347,0,0,1,1.876,2.034,3.7,3.7,0,0,1-.021,1.543,2.1,2.1,0,0,1-.259.615A.834.834,0,0,1,2236.367,3193.937Z" transform="translate(-2129.871 -3175.448)"/><path d="M2208.853,3147.557a1.25,1.25,0,0,1-.1.385,1.924,1.924,0,0,0-.312,1.023.886.886,0,0,1-.132.555,1.169,1.169,0,0,1-.19.03q-.568,0-1.135-.009c-.12,0-.241,0-.294-.132,0-.03,0-.055.009-.063a8.959,8.959,0,0,0,1.12-1.21A1.453,1.453,0,0,1,2208.853,3147.557Z" transform="translate(-2105.527 -3140.078)"/></g></g></svg>