<svg xmlns="http://www.w3.org/2000/svg" width="109.187" height="39.091" viewBox="0 0 109.187 39.091"><defs><style>.a{fill:#fff;}.b{fill:#212121;}.c{fill:#f29b38;}</style></defs><g transform="translate(-76.738 -366.386)"><g transform="translate(76.738 366.688)"><g transform="translate(0 18.259)"><path d="M257.008,100.524c-.37-.065-3.156-.087-4.919-.044-.087,0-.152.022-.261.022-.044.457-.022.892-.022,1.328v5.355c-.087.022-.152.022-.218.044h-7.183a1.061,1.061,0,0,1-.087-.239c-.218-.805-.435-1.632-.631-2.438-.044-.131-.065-.239-.109-.392-.065,0-.152-.022-.218-.022h-4.984a.425.425,0,0,0-.152.022c-.022.065-.065.152-.087.218-.239.849-.457,1.72-.7,2.59-.022.087-.065.174-.087.261-.109,0-.2.022-.3.022h-4.44c-.109,0-.174-.044-.174-.174-.348.065-.675.109-1,.174a18.612,18.612,0,0,1-4.4.174,7.969,7.969,0,0,1-2.46-.588,6.476,6.476,0,0,1-3.483-3.309,3.452,3.452,0,0,1-.174-.392c-.044.065-.087.109-.131.174a8.687,8.687,0,0,1-.74,1.328,6.269,6.269,0,0,1-3.483,2.416,10.54,10.54,0,0,1-3.591.392,11.176,11.176,0,0,1-2.416-.37,6.586,6.586,0,0,1-4.288-3.679c-.022-.044-.044-.109-.065-.152q0-.033-.065-.065c-.044.109-.109.2-.152.283a6.46,6.46,0,0,1-.914,1.48,6.374,6.374,0,0,1-3.265,2.133,10.914,10.914,0,0,1-3.57.392,11.089,11.089,0,0,1-2.525-.392,3.107,3.107,0,0,1-.479-.174c-.044-.087,0-.131.044-.174.174-.152.326-.3.5-.457.762-.675,1.5-1.35,2.264-2.024a3.781,3.781,0,0,0,.327-.283A.766.766,0,0,1,199,103.7a2.306,2.306,0,0,0,.849-.131,2.618,2.618,0,0,0,1.5-1.132,3.3,3.3,0,0,0,.457-1.067.725.725,0,0,1,.37-.5,5.144,5.144,0,0,1,1.872-.827c.74-.152,1.458-.414,2.2-.631a28.25,28.25,0,0,0,3.635-1.371c.087-.044.174-.065.261-.109a.273.273,0,0,1,.065.239c0,.5-.022,1.023,0,1.524a6.288,6.288,0,0,0,.283,1.676,3.927,3.927,0,0,0,.348.827,2.7,2.7,0,0,0,2.22,1.48,4.385,4.385,0,0,0,1.306-.044,2.7,2.7,0,0,0,1.85-1.328,5.189,5.189,0,0,0,.5-1.371,10.9,10.9,0,0,0,.174-2.373,8.655,8.655,0,0,0-.239-1.981,5.536,5.536,0,0,0-.37-1,2.864,2.864,0,0,0-1.219-1.219.882.882,0,0,1-.2-.109A.947.947,0,0,1,215,94.1c.5-.479,1-.979,1.524-1.458.326-.3.653-.609.979-.892.152-.152.327-.261.479-.392a5.545,5.545,0,0,1,1.828,1.415,7.157,7.157,0,0,1,1.175,2.024.457.457,0,0,0,.131-.174,6.808,6.808,0,0,1,.784-1.262,7.153,7.153,0,0,1,3.7-2.5,10.576,10.576,0,0,1,2.59-.435,14.485,14.485,0,0,1,2.568.087,13.407,13.407,0,0,1,3.308.827l.261.131c-.479,1.154-.936,2.307-1.393,3.461a1.654,1.654,0,0,0-.239-.087,8.673,8.673,0,0,0-3.853-.784,3.919,3.919,0,0,0-1.5.283,3.491,3.491,0,0,0-1.763,1.545,4.944,4.944,0,0,0-.609,1.915,8.292,8.292,0,0,0,.065,2.743,4.57,4.57,0,0,0,.522,1.5,3.191,3.191,0,0,0,2.416,1.654,7.228,7.228,0,0,0,2.373-.109c.044,0,.087-.044.152-.065a3.068,3.068,0,0,0,.022-.631v-1.85c-.109-.109-.218-.065-.327-.065H227.6a.675.675,0,0,1-.044-.174V97.673c0-.044.022-.065.022-.131.065,0,.152-.022.239-.022h6.443a1.991,1.991,0,0,1,.37.022c.109.131.065.239.065.37V99.98a1.438,1.438,0,0,0,.022.3c.109,0,.087-.065.109-.109a.309.309,0,0,0,.043-.131c.414-1.262.805-2.5,1.219-3.766.566-1.763,1.154-3.548,1.72-5.311l.131-.326c.3-.044,3.831-.065,4.44-.022.022.022.044.022.065.044a1.505,1.505,0,0,1,.522.871,1,1,0,0,0,.152.348.725.725,0,0,0,.5.37c.152.022.327.044.5.065a1.992,1.992,0,0,0,.37.022c.044.152.109.283.152.435.871,2.634,1.72,5.267,2.59,7.879a1.084,1.084,0,0,0,.2.435c0-.174.022-.283.022-.414V92.34c0-.087-.022-.174.087-.218.087-.022.109.065.174.109.109.131.239.283.348.392a4.353,4.353,0,0,0,.348.3,1.149,1.149,0,0,0,1.023.2c.131-.044.283-.065.414-.109a2.32,2.32,0,0,1,.653-.131,1.852,1.852,0,0,0,.675-.2c.174-.065.348-.131.544-.2a.726.726,0,0,1,.218,0,8.808,8.808,0,0,1,.022,1.067v3.178c.109.109.239.065.348.065h4.527a1.542,1.542,0,0,0,.3-.022,4.459,4.459,0,0,0,.022-.762V90.751c.131-.109.261-.065.392-.065h3.7a2.239,2.239,0,0,1,.37.022.817.817,0,0,1,.022.218v16.281a.652.652,0,0,1-.392.065h-3.787c-.087,0-.2-.022-.283-.022a.81.81,0,0,1-.044-.392v-5.877A.7.7,0,0,1,257.008,100.524Zm-14.409-.109c-.2-.784-.392-1.545-.609-2.329-.2-.762-.414-1.5-.588-2.264-.2-.762-.37-1.524-.566-2.373-.044.152-.065.218-.087.3-.174.805-.348,1.632-.544,2.438-.327,1.284-.653,2.568-1,3.853a1.106,1.106,0,0,0-.065.37C239.421,100.459,242.185,100.459,242.6,100.415Z" transform="translate(-152.587 -90.385)"/><path d="M118.808,103.493c.109-.849.152-1.7.239-2.547a9.124,9.124,0,0,0-1.35.044c-.435.022-.871.022-1.306.044-.065-.218-.065-.218.022-.522a5.813,5.813,0,0,1,.871,0h.849a6.4,6.4,0,0,0,.914,0c.087-.457.087-.892.131-1.35.044-.435.087-.871.109-1.306a.346.346,0,0,0-.283-.065c-.7.022-1.371.065-2.068.087h-.3a3.582,3.582,0,0,1,.065-1.045c.087,0,.174-.022.261-.022.653.022,1.306.044,1.959.044h.414a6.252,6.252,0,0,0,.152-1.262,8.023,8.023,0,0,0,.087-1.262c-.457,0-.892.044-1.328.044s-.871.087-1.284.044c-.022-.022-.044-.022-.044-.044V94.33c.065-.849.131-1.7.218-2.547a1.3,1.3,0,0,1,.044-.261c.065,0,.131-.022.2-.022H121.4a.25.25,0,0,1,.261.414v6.312a2.375,2.375,0,0,0,.022.37c1.589-2.416,3.221-4.723,4.789-7.031a.269.269,0,0,0,.065-.044h4.789l.022.022v.022c0,.022,0,.022-.022.044s-.022.044-.044.065l-.022.022c-.022.022-.022.044-.044.065l-4.963,7.052-.022.022a.021.021,0,0,1-.022.022c0,.022,0,.022-.022.044a.715.715,0,0,0,.152.348c.7,1.262,1.415,2.5,2.111,3.766.065.109.131.218.2.348a4.4,4.4,0,0,1-.805.871,2.211,2.211,0,0,1-.784.392c-.239.065-.479.131-.718.218a3.009,3.009,0,0,0-1.241.675.475.475,0,0,1-.109.065c-.109-.065-.131-.2-.2-.283-.544-1.067-1.11-2.133-1.654-3.2a2.174,2.174,0,0,0-.174-.3c-.044.022-.087.022-.109.044-.392.239-.805.479-1.219.718v7.792a.816.816,0,0,1-.218.022h-5.659c-.087,0-.152-.022-.239-.022,0-.065-.022-.109-.022-.152.109-1.175.2-2.373.3-3.548,0-.044.022-.065.044-.109.871-.044,1.741.065,2.634.044a3.6,3.6,0,0,0,.109-.827c.022-.261.044-.544.065-.827a5.132,5.132,0,0,0,.044-.827.975.975,0,0,0-.5,0c-.631.044-1.262.087-1.894.109h-.283c0-.065-.022-.087-.022-.131.022-.2.044-.37.065-.544a.448.448,0,0,1,.326-.065c.675,0,1.328.022,2,.022Z" transform="translate(-90.306 -91.243)"/><path d="M174.716,102.329c-.065-.218-.109-.37-.152-.544a11.98,11.98,0,0,1-.3-2.329,13.557,13.557,0,0,1,.087-2.307,9.633,9.633,0,0,1,.653-2.59,6.5,6.5,0,0,1,4.288-3.831,10.733,10.733,0,0,1,3.635-.392c.414.022.805.065,1.2.109a3.844,3.844,0,0,1,.435.087c0,.065,0,.109-.022.131a12.659,12.659,0,0,1-2.307,3.156.752.752,0,0,1-.457.218,3.22,3.22,0,0,0-.784.218,2.558,2.558,0,0,0-1.371,1.328,1.168,1.168,0,0,1-.37.435,4.041,4.041,0,0,0-1.2,1.306c-.327.522-.653,1.045-.958,1.589-.2.326-.392.653-.609.958s-.414.609-.609.914c-.3.457-.631.892-.936,1.35A.617.617,0,0,0,174.716,102.329Z" transform="translate(-136.253 -90.318)"/><path d="M-.078,123.706H.1c1.35-.065,2.7-.109,4.07-.174,1.328-.065,2.656-.131,3.983-.174.762-.044,1.545-.065,2.307-.087.849-.044,1.676-.065,2.525-.109.609-.022,1.219-.065,1.807-.087,1.371-.065,2.721-.109,4.092-.174,1.35-.065,2.677-.131,4.027-.174.762-.044,1.524-.065,2.285-.087.849-.044,1.72-.087,2.568-.109a3.051,3.051,0,0,1,.631,0c-.022.631-.087,1.219-.152,1.807-.044.022-.044.022-.065.022-.044,0-.065.022-.109.022L.292,123.793c-.131,0-.261-.022-.392-.022C-.078,123.728-.078,123.728-.078,123.706Z" transform="translate(0.1 -115.504)"/><path d="M40.257,136.8c-.044.588-.087,1.132-.152,1.676a.368.368,0,0,1-.109.044c-8.206-.174-16.39-.348-24.6-.544.348-.022.718-.065,1.067-.087,1.284-.065,2.568-.109,3.853-.174s2.568-.131,3.853-.174c.588-.022,1.154-.065,1.741-.087,1.284-.065,2.59-.109,3.874-.174,1.262-.065,2.525-.131,3.766-.174.74-.044,1.48-.065,2.2-.087.784-.044,1.567-.065,2.351-.109.631-.022,1.262-.065,1.894-.087A.975.975,0,0,1,40.257,136.8Z" transform="translate(-12.026 -126.682)"/><path d="M31.522,107.61l.588-.065c1.676-.087,3.374-.152,5.05-.239,1.458-.065,2.895-.152,4.353-.218,1.415-.065,2.851-.131,4.266-.218l4.919-.261c.827-.044,1.632-.065,2.46-.109a1.151,1.151,0,0,1,.261.022c-.044.544-.065,1.067-.152,1.589-.044.022-.065.044-.087.044-7.226-.174-14.453-.327-21.679-.5A.067.067,0,0,0,31.522,107.61Z" transform="translate(-24.622 -102.978)"/><path d="M69.255,151.4c-.044.522-.065,1.045-.152,1.545-.109.087-.218.044-.326.044-.892-.022-1.785-.044-2.677-.087-.979-.022-1.981-.065-2.96-.109-1.11-.044-2.22-.065-3.308-.087-1.894-.065-3.809-.131-5.7-.174-.435-.022-.849-.022-1.328-.044C53.17,152.379,68.82,151.4,69.255,151.4Z" transform="translate(-41.286 -138.105)"/><g transform="translate(70.249 17.491)"><path d="M345.3,172.3a2.318,2.318,0,0,1-.131.675,1.184,1.184,0,0,1-.849.784,1.959,1.959,0,0,1-.871,0,1.2,1.2,0,0,1-.827-.718,2.169,2.169,0,0,1-.022-1.437,1.108,1.108,0,0,1,.805-.74,1.788,1.788,0,0,1,.958,0,1.146,1.146,0,0,1,.827.805C345.232,171.845,345.254,172.084,345.3,172.3Zm-.675.065a2.789,2.789,0,0,1-.022-.392.351.351,0,0,0-.065-.2.636.636,0,0,0-.653-.457.645.645,0,0,0-.675.435,1.622,1.622,0,0,0,0,1.11.629.629,0,0,0,.675.414.609.609,0,0,0,.631-.435A2.838,2.838,0,0,0,344.623,172.367Z" transform="translate(-338.049 -170.773)"/><path d="M369.878,172.617c-.174-.022-.327-.022-.5-.044a.818.818,0,0,1-.022-.457,3.56,3.56,0,0,1,1.088-.022,5.776,5.776,0,0,1,0,1.5,2.754,2.754,0,0,1-1.328.131,1.148,1.148,0,0,1-.979-.98,2.5,2.5,0,0,1-.022-.805,1.273,1.273,0,0,1,.979-1.11,2,2,0,0,1,1.371.109,1.119,1.119,0,0,1-.2.479c-.109-.022-.2-.065-.3-.087a.915.915,0,0,0-1.241.958,1.657,1.657,0,0,0,.065.457.656.656,0,0,0,.653.522,2.666,2.666,0,0,0,.414-.044A1.441,1.441,0,0,0,369.878,172.617Z" transform="translate(-358.08 -170.739)"/><path d="M410.933,171a1,1,0,0,1-.2.435,2.038,2.038,0,0,0-.348-.087A2.4,2.4,0,0,0,410,171.3a.266.266,0,0,0-.283.218.279.279,0,0,0,.131.3c.109.065.218.131.348.2a3.469,3.469,0,0,1,.479.283.681.681,0,0,1,.283.544.828.828,0,0,1-.588.871,1.685,1.685,0,0,1-1.284-.131,1.061,1.061,0,0,1,0-.522c.087.022.174.065.239.087a3.788,3.788,0,0,0,.479.109.646.646,0,0,0,.348-.044.262.262,0,0,0,.109-.435.677.677,0,0,0-.2-.152c-.109-.065-.239-.109-.348-.174s-.218-.109-.3-.174a.8.8,0,0,1-.3-.914.819.819,0,0,1,.7-.566A1.647,1.647,0,0,1,410.933,171Z" transform="translate(-390.124 -170.751)"/><path d="M491.3,173.584v-.522c.087.022.152.022.218.044a4.579,4.579,0,0,0,.522.131.942.942,0,0,0,.348-.022.272.272,0,0,0,.109-.457,2.2,2.2,0,0,0-.283-.2,3.719,3.719,0,0,1-.5-.283.8.8,0,0,1-.37-.609.757.757,0,0,1,.7-.871,1.639,1.639,0,0,1,1.11.174.929.929,0,0,1-.131.435c-.131.065-.218-.044-.3-.044a3.244,3.244,0,0,0-.457-.044.266.266,0,0,0-.283.218.279.279,0,0,0,.131.3c.087.065.2.109.3.174.152.087.327.174.457.261a.747.747,0,0,1,.327.805.768.768,0,0,1-.588.631,1.832,1.832,0,0,1-1.132-.044A.65.65,0,0,1,491.3,173.584Z" transform="translate(-454.471 -170.75)"/><path d="M470.781,173.054v.479a1.818,1.818,0,0,1-1.458,0,1.044,1.044,0,0,1-.544-.631,2.269,2.269,0,0,1-.022-1.371,1.2,1.2,0,0,1,1.154-.849,1.59,1.59,0,0,1,.936.2,1.071,1.071,0,0,1-.174.479.636.636,0,0,0-.2-.044l-.2-.065a.7.7,0,0,0-.936.522,1.96,1.96,0,0,0,0,.871.643.643,0,0,0,.7.522,3.3,3.3,0,0,0,.457-.065A1.273,1.273,0,0,0,470.781,173.054Z" transform="translate(-436.76 -170.676)"/><path d="M430.976,173.825c-.109,0-.174.022-.261.022h-.326a1.3,1.3,0,0,1-.044-.261v-1.741a2.236,2.236,0,0,0-.022-.37c-.261-.087-.5,0-.74-.065a.816.816,0,0,1,0-.457,14.232,14.232,0,0,1,2.155,0,.814.814,0,0,1,0,.457c-.239.087-.5,0-.762.087a10.588,10.588,0,0,0-.022,1.175C430.976,173.02,430.976,173.411,430.976,173.825Z" transform="translate(-406.162 -170.86)"/><path d="M322.1,170.971a1.577,1.577,0,0,1,.544-.022.3.3,0,0,1,.087.283v1.741a2.242,2.242,0,0,0,.022.37,2.659,2.659,0,0,0,.588.022h.544a1.126,1.126,0,0,1,.044.457,9.436,9.436,0,0,1-1.763.022,4.485,4.485,0,0,1-.022-.936v-.936A7.7,7.7,0,0,1,322.1,170.971Z" transform="translate(-322.1 -170.878)"/><path d="M393.531,173.8h-.588a.513.513,0,0,1-.044-.174v-2.568c0-.044.022-.087.022-.152a2.464,2.464,0,0,1,.566-.022.424.424,0,0,1,.022.152C393.531,171.947,393.531,172.839,393.531,173.8Z" transform="translate(-377.489 -170.832)"/><path d="M452.522,170.941a2.453,2.453,0,0,1,.566,0,.553.553,0,0,1,.044.152v2.721a1.341,1.341,0,0,1-.588.022.512.512,0,0,1-.044-.174v-2.525C452.5,171.072,452.522,171.028,452.522,170.941Z" transform="translate(-424.117 -170.871)"/></g></g><g transform="translate(28.84 0)"><path d="M156.183,18.789a2.737,2.737,0,0,0-.98-.261,18.646,18.646,0,0,0-2.917-.044c-.675.022-1.328.065-2,.131-.631.044-1.262.109-1.872.174-.327.022-.631.044-.958.087-.414.044-.827.131-1.241.174-.522.065-1.045.131-1.567.174-.892.087-1.807.174-2.7.174a14.7,14.7,0,0,1-3.091-.261,9.885,9.885,0,0,1-3.265-1.306,9.015,9.015,0,0,1-1.915-1.48,7.152,7.152,0,0,1-1.48-2.264,3.8,3.8,0,0,1-.327-1.763,1.186,1.186,0,0,1,.109-.479.5.5,0,0,1,.5-.326,1.51,1.51,0,0,1,.609.174,3.606,3.606,0,0,1,1.067.827c.348.392.675.805,1,1.2.174.218.348.457.522.675a5.416,5.416,0,0,0,1.567,1.328,9.288,9.288,0,0,0,2.895,1.067,18,18,0,0,0,4.832.2c.457-.044.914-.131,1.371-.152.958-.087,1.894-.326,2.83-.5,1.415-.261,2.851-.544,4.266-.805,1.088-.2,2.2-.283,3.287-.392.675-.065,1.328-.065,2-.087.98-.022,1.981-.087,2.96-.174l1.175-.131a9,9,0,0,0,2-.5c1.393-.457,2.764-1,4.114-1.589,3.374-1.48,6.835-2.721,10.317-3.94.174-.065.348-.131.544-.2a5.689,5.689,0,0,0,1.175-.522,11.688,11.688,0,0,1,3.5-1.284,13.748,13.748,0,0,1,4.223-.2,21.3,21.3,0,0,1,5.92,1.48,31.446,31.446,0,0,1,2.982,1.458c.958.522,1.915,1.067,2.873,1.589.022.022.065.022.087.044a.721.721,0,0,0,.805.044,8.536,8.536,0,0,1,.784-.348,1.683,1.683,0,0,1,1.219-.022.69.69,0,0,1,.414.326.474.474,0,0,0,.109.174.606.606,0,0,1,.109.544,3.112,3.112,0,0,0-.022.631.681.681,0,0,0,.283.544c.109.087.218.174.37.283a1.253,1.253,0,0,0,.087-.152,1.449,1.449,0,0,0-.022-.805.855.855,0,0,0-.283-.457l-.2-.2a.2.2,0,0,1-.044-.239.8.8,0,0,1,.588.065,1.212,1.212,0,0,1,.588.762,2.482,2.482,0,0,1,.044.979,3.244,3.244,0,0,0-.044.457.615.615,0,0,0,.2.522c.174.174.348.326.522.479a2.9,2.9,0,0,1,.609.653,2.18,2.18,0,0,1,.457,1.262c.044.479.087.958.109,1.415.044.74.065,1.48.109,2.2a.774.774,0,0,1-.479.827,3.538,3.538,0,0,0-1.067.805,2.647,2.647,0,0,1-.37.326,1.621,1.621,0,0,1-.544.283.94.94,0,0,1-.892-.109,8.165,8.165,0,0,1-1.545-1.2l-.457-.457a2.075,2.075,0,0,0-1.023-.566c-.261-.065-.522-.131-.805-.174a2.366,2.366,0,0,0-.392-.022.429.429,0,0,0-.174.087c.087.065.152.131.218.174a4.687,4.687,0,0,1,1.045.653c.174.131.37.283.544.414A4.192,4.192,0,0,1,203,24.426a1.545,1.545,0,0,1-.152.762.564.564,0,0,1-.479.37,2.4,2.4,0,0,1-.392.044,2.255,2.255,0,0,0-.827.239,2.077,2.077,0,0,1-.653.2,2.226,2.226,0,0,0-.631.152.786.786,0,0,1-.936-.261,1.431,1.431,0,0,1-.261-.37c-.131-.218-.239-.435-.37-.653-.065-.109-.131-.218-.218-.348a.784.784,0,0,0-.2.109,3.181,3.181,0,0,0-.348.414,1.293,1.293,0,0,1-1.284.522,2.95,2.95,0,0,0-.435-.044c-.3-.022-.609-.044-.914-.087-.152-.022-.283-.022-.435-.044a.348.348,0,0,1-.3-.261c-.044-.131-.087-.239-.131-.37a.775.775,0,0,0-.348-.479.474.474,0,0,1-.109-.087.429.429,0,0,1-.087-.5.67.67,0,0,0,.131-.414.874.874,0,0,0-.479-.261,9.511,9.511,0,0,0-1.067-.261c-.609-.109-1.241-.2-1.872-.261-.218-.022-.457-.022-.675-.022a12.71,12.71,0,0,1-2.024-.174c-.784-.109-1.567-.326-2.329-.479a7.01,7.01,0,0,0-2.024-.152c-1.023.087-2.068.152-3.091.218-.849.044-1.72.065-2.568.087l-3.243.065a12.772,12.772,0,0,0-1.284.109,9.059,9.059,0,0,0-2.612.784,10.627,10.627,0,0,0-2.394,1.524c-1.045.849-2,1.741-2.96,2.677-.544.544-1.067,1.088-1.611,1.611-.283.283-.588.544-.892.827a9.557,9.557,0,0,1-2.351,1.545,30.95,30.95,0,0,1-4.092,1.545c-.7.218-1.415.435-2.133.609a4.244,4.244,0,0,0-1.415.588,13.446,13.446,0,0,0-1.154.784c-1.175.936-2.351,1.894-3.483,2.895-.827.74-1.654,1.458-2.481,2.2-.588.544-1.154,1.11-1.72,1.676a8.7,8.7,0,0,0-.588.675c-.392.5-.762,1-1.154,1.5a5.283,5.283,0,0,1-1.175,1.132,2.462,2.462,0,0,1-.849.37.755.755,0,0,1-.805-.3,1.027,1.027,0,0,0-.7-.457,1.617,1.617,0,0,1-.979-.653,1.5,1.5,0,0,1-.3-1.241,3.705,3.705,0,0,1,.327-.979c.261-.479.522-.936.784-1.393a1.89,1.89,0,0,1,1.11-.849c.239-.087.479-.152.718-.218a3.51,3.51,0,0,0,1.654-1,18.89,18.89,0,0,0,1.72-2.22l.914-1.371c.131-.2.239-.392.348-.588.261-.435.5-.871.762-1.284.131-.218.261-.414.414-.631a3.564,3.564,0,0,1,.914-.892c.435-.283.849-.566,1.262-.849.414-.3.827-.588,1.219-.914a12.277,12.277,0,0,0,3.134-4.157c.435-.892.805-1.828,1.219-2.743.239-.5.457-1.023.718-1.524a6.043,6.043,0,0,1,.718-1.11,2.851,2.851,0,0,1,.849-.762A.226.226,0,0,0,156.183,18.789ZM138.64,43.015a1.061,1.061,0,0,1-.065.152.663.663,0,0,1-.174.174c-.152.152-.174.261-.022.479a.555.555,0,0,0,.261.174,1,1,0,0,0,.566.044,2.786,2.786,0,0,0,1-.37,5.07,5.07,0,0,0,1.11-.936c.3-.326.588-.675.871-1.023,1.045-1.306,2.09-2.612,3.156-3.918a18.926,18.926,0,0,1,2.2-2.373,7.889,7.889,0,0,1,1.48-1.045c1.937-1,3.874-2.046,5.877-2.895a2.2,2.2,0,0,0,.326-.152,40.251,40.251,0,0,0,4.223-2.373,8.5,8.5,0,0,0,1-.74c1.437-1.175,2.851-2.329,4.266-3.526a26.326,26.326,0,0,1,2.177-1.567,5.026,5.026,0,0,1,1.328-.653,15.441,15.441,0,0,1,1.981-.479c.414-.065.849-.109,1.262-.152.805-.087,1.632-.152,2.46-.174.544-.022,1.088-.022,1.632-.044.566-.022,1.11-.087,1.676-.109,1.154-.044,2.307-.109,3.461-.218a9.607,9.607,0,0,0,2.09-.414c.7-.218,1.393-.414,2.068-.631a2.2,2.2,0,0,0,.326-.152.181.181,0,0,0,.065-.239c-.109-.044-.218-.087-.348-.131s-.283-.044-.414-.087c-.152-.044-.326-.065-.479-.109a.7.7,0,0,1-.544-.784V18.68a1.689,1.689,0,0,1,.261-.849l.588-.849c.109-.174.239-.326.348-.5a.166.166,0,0,0,.022-.2c-.109-.044-.239.065-.348-.044a.615.615,0,0,1,.087-.326c.239-.457.457-.914.718-1.35a5.592,5.592,0,0,1,1.545-1.654,4.764,4.764,0,0,1,1.567-.762.866.866,0,0,1,.239,0c-.109.131-.174.239-.261.348-.326.37-.653.762-1,1.11a4.723,4.723,0,0,0-.871,1.306,3.085,3.085,0,0,0-.152.479c-.022.044,0,.109,0,.174a2.4,2.4,0,0,0,.7-.239.424.424,0,0,1,.174-.022.976.976,0,0,1-.3.348c-.218.218-.457.435-.675.653a4.732,4.732,0,0,0-.936,1.328,2.485,2.485,0,0,0-.2.566.664.664,0,0,0,.37.784c.2.109.392.174.588.261,1.045.37,2.111.74,3.156,1.11a6.025,6.025,0,0,0,.892.261,1.839,1.839,0,0,1,.37.109,6.45,6.45,0,0,0,1.262.37c.218.044.435.109.653.174.653.2,1.328.392,1.981.566a6.778,6.778,0,0,1,1.415.479,1.058,1.058,0,0,0,.631.109c.152-.022.283-.022.435-.044a.316.316,0,0,1,.37.218,3.081,3.081,0,0,1,.174.392.932.932,0,0,0,.566.544,1.707,1.707,0,0,0,.3.109.984.984,0,0,1,.5.435,3.085,3.085,0,0,1,.174.392,3.172,3.172,0,0,0,.131.3,6.556,6.556,0,0,0,.435.74c.174.239.414.218.544-.065l.065-.2a1.228,1.228,0,0,1,.087-.261c.218.174.218.174.261.348a.479.479,0,0,0,.022.174.256.256,0,0,0,.239.218.626.626,0,0,0,.435-.109.813.813,0,0,0,.37-.74,1.926,1.926,0,0,1,0-.5.578.578,0,0,1,.261.348,1.685,1.685,0,0,0,.152.348.366.366,0,0,0,.609.022,1.016,1.016,0,0,0,.109-.218,1.233,1.233,0,0,0,.022-.566,6.607,6.607,0,0,0-.675-1.937,2.251,2.251,0,0,0-.522-.675,20.679,20.679,0,0,0-1.741-1.35c-.087-.065-.2-.131-.3-.2a16.394,16.394,0,0,0-2.416-1.154c-.065-.022-.109-.044-.174-.065a4.072,4.072,0,0,0-.871-.283,10.911,10.911,0,0,0-1.437-.218c-.392-.044-.805-.087-1.2-.152a1.028,1.028,0,0,1-.479-.152c.109-.065.2-.109.3-.174l-.174-.087a4.514,4.514,0,0,0-1.088-.131c-.218-.022-.457-.022-.675-.044-.044,0-.087-.044-.174-.087a1.356,1.356,0,0,1,.675-.174l1-.065a1.421,1.421,0,0,0,.239-.044c-.044-.065-.065-.109-.109-.131a2.419,2.419,0,0,0-.348-.152c-.109-.044-.239-.087-.37-.152-.044-.022-.044-.065-.109-.109.087,0,.131-.022.174-.022a6.258,6.258,0,0,1,1.415.152c.414.109.5.044.7-.326a2.046,2.046,0,0,0,.131-.326c.065-.239.109-.457.152-.7.044-.326.087-.653.152-.979,0-.065.065-.109.109-.2.043.109.087.2.109.261.044.283.087.566.109.849.022.131.065.2.218.2.022-.109.065-.218.087-.326a3.126,3.126,0,0,1,.609-1.2c.044-.044.065-.131.174-.087,0,.044.022.065,0,.109-.022.087-.065.174-.087.261a5.764,5.764,0,0,0-.414,2.09,2.556,2.556,0,0,0,.5,1.524,1.249,1.249,0,0,0,.479.414.323.323,0,0,0,.152.022c-.044-.218-.087-.392-.131-.566a1.246,1.246,0,0,1,.022-.566.607.607,0,0,1,.3-.457c.022.044.065.109.087.152a2.668,2.668,0,0,1,.044.414,4.489,4.489,0,0,0,.065.566,1.126,1.126,0,0,0,.936.784.538.538,0,0,0,.522-.218,2.212,2.212,0,0,0,.2-.283.97.97,0,0,1,.392-.392,5.2,5.2,0,0,0,.457-.283,1.492,1.492,0,0,0,.631-.74c.022-.044.065-.087.131-.2a1.363,1.363,0,0,1-.218.653,5.5,5.5,0,0,0-.261.5.774.774,0,0,0,.174.979,2.833,2.833,0,0,0,.5.392c.3.2.631.392.936.588a6.523,6.523,0,0,1,1.5,1.284,7.041,7.041,0,0,0,.936.871,1.065,1.065,0,0,0,.805.261.264.264,0,0,0,.261-.152.3.3,0,0,0-.087-.326,1.208,1.208,0,0,0-.174-.131,3.346,3.346,0,0,0-.414-.174c-.218-.087-.457-.131-.675-.218a1.338,1.338,0,0,1-.784-1.72.6.6,0,0,1,.718.109,3.774,3.774,0,0,1,.283.326c.152.2.283.414.435.609a7.57,7.57,0,0,0,.566.653,1.437,1.437,0,0,0,.435.3.452.452,0,0,0,.653-.479c0-.065-.022-.109-.022-.174-.022-.131-.044-.283-.065-.414a.313.313,0,0,1,.065-.3c.087-.044.131.022.174.087a1.012,1.012,0,0,0,.718.5c.239.044.392-.065.37-.283v-.326c-.022-.326-.044-.631-.065-.958a16.652,16.652,0,0,0-.37-2.285,3.493,3.493,0,0,0-.631-1.35,7.248,7.248,0,0,0-.544-.609c-.37-.37-.74-.718-1.11-1.067a1,1,0,0,0-.414-.283.455.455,0,0,1-.087.131.25.25,0,0,1-.435-.087,1.094,1.094,0,0,1-.131-.522c0-.283.022-.566.022-.849a3.216,3.216,0,0,0-.022-.457.558.558,0,0,0-.74-.457,1.141,1.141,0,0,0-.392.218,4.145,4.145,0,0,0-.522.544c-.152.174-.283.37-.414.544a1.668,1.668,0,0,1-.892.544.85.85,0,0,1-.609-.087.422.422,0,0,1,.044-.326,2.734,2.734,0,0,1,.784-.936.359.359,0,0,0-.261-.239c-.239-.131-.457-.239-.7-.37-.457-.261-.892-.544-1.35-.805-.37-.2-.718-.392-1.11-.566a4.511,4.511,0,0,0-.914-.3,3.178,3.178,0,0,0-1.2-.065c-.3.044-.392,0-.522-.261a1.424,1.424,0,0,0-.414-.522,4.95,4.95,0,0,0-.7-.479,6.383,6.383,0,0,0-1.393-.544,14.727,14.727,0,0,0-2.373-.457,13.668,13.668,0,0,0-2.982-.065c-.522.065-1.067.152-1.589.239a9.235,9.235,0,0,0-1.872.544c-.435.2-.892.392-1.328.609a8.3,8.3,0,0,0-1.415.827,1.816,1.816,0,0,1-.261.174,10.572,10.572,0,0,0-1.284.914c-.152.131-.3.239-.457.348a.093.093,0,0,1-.152-.022,1.2,1.2,0,0,1,.3-.5c.152-.174.326-.326.479-.479a.716.716,0,0,0,.239-.435.671.671,0,0,0-.218.022c-.2.065-.414.131-.609.218a24.043,24.043,0,0,1-2.373.892,2.561,2.561,0,0,0-.435.152c-.718.3-1.437.544-2.177.805-1.35.479-2.677,1.067-3.983,1.632-1.35.588-2.7,1.154-4.092,1.632a16.829,16.829,0,0,1-3.243.805,24.3,24.3,0,0,1-3.091.218c-.892.022-1.807-.044-2.7,0-.805.044-1.589.044-2.373.152-1.35.174-2.7.392-4.049.675-1.328.261-2.655.544-4.005.7-.936.109-1.872.2-2.808.239a7.941,7.941,0,0,1-1.023-.022,21.835,21.835,0,0,1-2.394-.326,10.55,10.55,0,0,1-3.113-1.067,4.8,4.8,0,0,1-.784-.5,3.58,3.58,0,0,0-.479-.3.276.276,0,0,0-.131-.022c0,.044-.022.065,0,.087a1.065,1.065,0,0,0,.065.152,4.76,4.76,0,0,0,1.175,1.458,6.548,6.548,0,0,0,1.915,1.132,10.25,10.25,0,0,0,3.5.7c.566.022,1.11.022,1.676.044h.348c.74-.065,1.5-.109,2.242-.174,1.154-.109,2.307-.261,3.483-.3.827-.044,1.632-.131,2.46-.131a11.883,11.883,0,0,0,1.241-.087,6.291,6.291,0,0,1,1.915.065c.37.087.74.2,1.088.3a1.274,1.274,0,0,0,.805,0,4.936,4.936,0,0,1,.544-.131.554.554,0,0,1,.152.044,1.478,1.478,0,0,1-.109.152c-.131.087-.239.2-.37.283a7.477,7.477,0,0,0-2.242,2.133,11.4,11.4,0,0,0-1,1.72c-.3.675-.631,1.328-.914,2a10.921,10.921,0,0,1-.979,1.785c-.37.544-.74,1.11-1.11,1.654a4.924,4.924,0,0,1-.871,1.023l-1.2,1.067c-.174.174-.348.348-.522.544a.739.739,0,0,0-.065.174,1.15,1.15,0,0,0,.283-.022,4.174,4.174,0,0,0,1.045-.326,2.085,2.085,0,0,0,1.088-.892c.131-.218.283-.435.435-.653a.632.632,0,0,1,.239-.239c0,.022.022.044.022.065a2.832,2.832,0,0,1-1.633,2.068c-.37.152-.718.326-1.088.457a12.612,12.612,0,0,0-1.72.849,5.887,5.887,0,0,0-2,1.807l-.2.261c-.544.827-1.11,1.654-1.654,2.5-.2.3-.37.609-.566.914a3.864,3.864,0,0,1-2.242,1.763c-.3.087-.609.2-.914.3a2.31,2.31,0,0,0-.74.348.9.9,0,0,0-.326.37.418.418,0,0,0,.326.609c.109.022.2.022.348.044-.087.087-.131.174-.2.2a2.067,2.067,0,0,1-.457.2c-.174.065-.348.087-.5.152a.612.612,0,0,0-.435.871.773.773,0,0,0,.087.2.4.4,0,0,0,.5.239A.615.615,0,0,1,138.64,43.015Z" transform="translate(-131.862 -6.433)"/><path class="a" d="M151.109,45.37a.7.7,0,0,0-.37.022.406.406,0,0,1-.5-.239.773.773,0,0,1-.087-.2.612.612,0,0,1,.435-.871c.174-.065.348-.087.5-.152l.457-.2a1.64,1.64,0,0,0,.2-.2c-.152-.022-.261-.022-.348-.044a.409.409,0,0,1-.327-.609.769.769,0,0,1,.327-.37,2.887,2.887,0,0,1,.74-.348c.3-.109.609-.2.914-.3a3.951,3.951,0,0,0,2.242-1.763c.2-.3.37-.609.566-.914.544-.827,1.088-1.676,1.654-2.5l.2-.261a5.909,5.909,0,0,1,2-1.807,17.99,17.99,0,0,1,1.72-.849c.37-.152.718-.3,1.088-.457a2.871,2.871,0,0,0,1.632-2.068.08.08,0,0,0-.022-.065c-.131.044-.174.152-.239.239-.152.218-.3.435-.435.653a2.312,2.312,0,0,1-1.088.892,6.42,6.42,0,0,1-1.045.326,1.15,1.15,0,0,1-.283.022c.022-.065.022-.131.065-.174.174-.174.326-.37.522-.544.392-.37.784-.718,1.2-1.067a4.344,4.344,0,0,0,.871-1.023c.348-.566.74-1.11,1.11-1.654a12.847,12.847,0,0,0,.979-1.785c.3-.675.609-1.35.914-2a10.424,10.424,0,0,1,1-1.72,7.769,7.769,0,0,1,2.242-2.133,2.376,2.376,0,0,0,.37-.283.919.919,0,0,0,.109-.152.553.553,0,0,0-.152-.044,3.98,3.98,0,0,0-.544.131,1.14,1.14,0,0,1-.805,0c-.37-.109-.718-.218-1.088-.3a7.068,7.068,0,0,0-1.915-.065c-.414.022-.827.087-1.241.087-.827,0-1.632.087-2.46.131-1.175.044-2.329.2-3.483.3-.74.065-1.5.131-2.242.174h-.348c-.566-.022-1.11-.022-1.676-.044a10.049,10.049,0,0,1-3.5-.7,7.063,7.063,0,0,1-1.915-1.132,4.759,4.759,0,0,1-1.175-1.458c-.022-.044-.044-.109-.065-.152v-.087a.276.276,0,0,1,.131.022c.152.109.327.2.479.3a4.8,4.8,0,0,0,.784.5,10.55,10.55,0,0,0,3.113,1.067,22.579,22.579,0,0,0,2.394.326,8.111,8.111,0,0,0,1.023.022c.936-.044,1.872-.131,2.808-.239,1.35-.174,2.677-.435,4.005-.7,1.35-.261,2.677-.5,4.049-.675a21.7,21.7,0,0,1,2.373-.152c.914-.044,1.807.022,2.7,0a29.09,29.09,0,0,0,3.091-.218,18.592,18.592,0,0,0,3.243-.805c1.393-.479,2.743-1.045,4.092-1.632,1.328-.566,2.634-1.154,3.983-1.632.718-.261,1.458-.5,2.177-.805a2.56,2.56,0,0,1,.435-.152,24.039,24.039,0,0,0,2.373-.892,5.021,5.021,0,0,1,.609-.218c.065-.022.131,0,.218-.022a.716.716,0,0,1-.239.435c-.152.174-.326.326-.479.479a1.012,1.012,0,0,0-.3.5.109.109,0,0,0,.152.022c.152-.109.3-.239.457-.348a10.575,10.575,0,0,1,1.284-.914,1.815,1.815,0,0,0,.261-.174,6.171,6.171,0,0,1,1.415-.827c.435-.218.892-.414,1.328-.609a9.658,9.658,0,0,1,1.872-.544,12.7,12.7,0,0,1,1.589-.239,13.639,13.639,0,0,1,2.982.065,14.727,14.727,0,0,1,2.373.457,6.383,6.383,0,0,1,1.393.544,4.951,4.951,0,0,1,.7.479,1.233,1.233,0,0,1,.414.522c.131.261.2.3.522.261a2.77,2.77,0,0,1,1.2.065,7.5,7.5,0,0,1,.914.3c.37.174.74.37,1.11.566.457.261.892.544,1.35.805.218.131.457.239.7.37.109.065.218.087.261.239a3.27,3.27,0,0,0-.784.936.408.408,0,0,0-.044.326.834.834,0,0,0,.609.087,1.423,1.423,0,0,0,.892-.544c.131-.174.261-.37.414-.544a4.087,4.087,0,0,1,.522-.544,1,1,0,0,1,.392-.218.551.551,0,0,1,.74.457,3.216,3.216,0,0,1,.022.457c0,.283-.022.566-.022.849a1.159,1.159,0,0,0,.131.522.258.258,0,0,0,.435.087.456.456,0,0,0,.087-.131,1,1,0,0,1,.414.283c.37.348.74.7,1.11,1.067.2.2.37.414.544.609a3.087,3.087,0,0,1,.631,1.35,16.652,16.652,0,0,1,.37,2.285c.022.326.044.631.065.958V22.8a.265.265,0,0,1-.37.283,1.056,1.056,0,0,1-.718-.5c-.044-.065-.087-.131-.174-.087a.486.486,0,0,0-.065.3c.022.152.044.283.065.414,0,.065.022.109.022.174a.452.452,0,0,1-.653.479,1.214,1.214,0,0,1-.435-.3,5.544,5.544,0,0,1-.566-.653c-.152-.2-.283-.414-.435-.609a3.789,3.789,0,0,0-.283-.326.6.6,0,0,0-.718-.109,1.33,1.33,0,0,0,.784,1.72c.218.087.457.131.675.218a2.358,2.358,0,0,1,.414.174.523.523,0,0,1,.174.131.27.27,0,0,1,.087.326.264.264,0,0,1-.261.152,1.094,1.094,0,0,1-.805-.261,8.866,8.866,0,0,1-.936-.871,6.524,6.524,0,0,0-1.5-1.284c-.3-.2-.631-.392-.936-.588a2.831,2.831,0,0,1-.5-.392.769.769,0,0,1-.174-.979c.087-.174.174-.326.261-.5a1.775,1.775,0,0,0,.218-.653c-.065.109-.109.152-.131.2a1.508,1.508,0,0,1-.631.74,5.213,5.213,0,0,1-.457.283.854.854,0,0,0-.392.392,1.309,1.309,0,0,1-.2.283.538.538,0,0,1-.522.218,1.126,1.126,0,0,1-.936-.784,4.483,4.483,0,0,1-.065-.566c-.022-.131-.022-.283-.044-.414a.276.276,0,0,0-.087-.152.75.75,0,0,0-.3.457,1.651,1.651,0,0,0-.022.566c.044.174.087.37.131.566a.323.323,0,0,1-.152-.022,1.249,1.249,0,0,1-.479-.414,2.6,2.6,0,0,1-.5-1.524,5.764,5.764,0,0,1,.414-2.09,1.227,1.227,0,0,0,.087-.261v-.109c-.087-.044-.131.044-.174.087a3.464,3.464,0,0,0-.609,1.2c-.022.109-.065.218-.087.326-.152,0-.2-.065-.218-.2-.022-.283-.065-.566-.109-.849a2.268,2.268,0,0,0-.109-.261c-.044.087-.109.131-.109.2-.044.326-.087.653-.152.979-.044.239-.087.457-.152.7a2.042,2.042,0,0,1-.131.326c-.2.392-.283.435-.7.326a6.127,6.127,0,0,0-1.415-.152.613.613,0,0,0-.174.022c.044.065.065.109.109.109a1.884,1.884,0,0,0,.37.152c.109.044.239.109.348.152.044.022.044.065.109.131-.109.022-.174.022-.239.044l-1,.065a1.634,1.634,0,0,0-.675.174l.174.087c.218.022.457.022.675.044a5.952,5.952,0,0,1,1.088.131,1.285,1.285,0,0,1,.174.087c-.109.065-.2.109-.3.174a.829.829,0,0,0,.479.152c.392.065.805.109,1.2.152a10.912,10.912,0,0,1,1.437.218,4.072,4.072,0,0,1,.871.283,1.5,1.5,0,0,0,.174.065,14.456,14.456,0,0,1,2.416,1.154,2.391,2.391,0,0,1,.3.2,17.677,17.677,0,0,1,1.741,1.35,2.251,2.251,0,0,1,.522.675,6.034,6.034,0,0,1,.675,1.937,1.245,1.245,0,0,1-.022.566.682.682,0,0,1-.109.218.357.357,0,0,1-.609-.022,2.421,2.421,0,0,1-.152-.348.677.677,0,0,0-.261-.348,1.286,1.286,0,0,0,0,.5.917.917,0,0,1-.37.74.626.626,0,0,1-.435.109.256.256,0,0,1-.239-.218c-.022-.065,0-.109-.022-.174-.022-.174-.022-.174-.261-.348-.022.087-.065.174-.087.261l-.065.2c-.131.283-.37.3-.544.065a5.068,5.068,0,0,1-.435-.74c-.044-.087-.087-.2-.131-.3-.065-.131-.109-.261-.174-.392a.769.769,0,0,0-.5-.435,1.708,1.708,0,0,0-.3-.109.994.994,0,0,1-.566-.544c-.065-.131-.109-.261-.174-.392a.364.364,0,0,0-.37-.218c-.152.022-.283.022-.435.044a1.058,1.058,0,0,1-.631-.109,6.375,6.375,0,0,0-1.415-.479c-.675-.174-1.328-.37-1.981-.566-.218-.065-.435-.131-.653-.174a12.049,12.049,0,0,1-1.262-.37,1.838,1.838,0,0,0-.37-.109,6.908,6.908,0,0,1-.892-.261c-1.045-.37-2.111-.74-3.156-1.11a3.471,3.471,0,0,1-.588-.261.689.689,0,0,1-.37-.784,2.487,2.487,0,0,1,.2-.566,4.734,4.734,0,0,1,.936-1.328c.218-.218.457-.435.675-.653a1.591,1.591,0,0,0,.3-.348.613.613,0,0,1-.174.022,3.276,3.276,0,0,1-.7.239c0-.065-.022-.131,0-.174a4.06,4.06,0,0,1,.152-.479,4.724,4.724,0,0,1,.871-1.306c.348-.37.675-.74,1-1.11a2.874,2.874,0,0,0,.261-.348.866.866,0,0,0-.239,0,4.765,4.765,0,0,0-1.567.762,5.889,5.889,0,0,0-1.545,1.654c-.261.435-.479.892-.718,1.35a.614.614,0,0,0-.087.326c.109.109.239,0,.348.044.065.065.022.131-.022.2-.109.174-.218.326-.348.5-.2.283-.414.566-.588.849a1.5,1.5,0,0,0-.261.849v.065a.718.718,0,0,0,.544.784,3.791,3.791,0,0,0,.479.109,2.8,2.8,0,0,1,.414.087c.131.044.239.087.348.131a.181.181,0,0,1-.065.239,1.5,1.5,0,0,1-.326.152c-.7.218-1.393.414-2.068.631a9.607,9.607,0,0,1-2.09.414c-1.154.109-2.307.152-3.461.218-.566.022-1.11.087-1.676.109-.544.022-1.088.044-1.632.044-.827.022-1.632.087-2.46.174-.435.044-.849.087-1.262.152a15.441,15.441,0,0,0-1.981.479,5.793,5.793,0,0,0-1.328.653,21.1,21.1,0,0,0-2.177,1.567c-1.415,1.175-2.83,2.351-4.266,3.526-.327.261-.653.5-1,.74-1.35.871-2.786,1.632-4.223,2.373-.109.044-.218.109-.326.152-2.024.849-3.94,1.894-5.877,2.895a7,7,0,0,0-1.48,1.045,17.429,17.429,0,0,0-2.2,2.373c-1.045,1.306-2.09,2.612-3.156,3.918-.283.348-.566.7-.871,1.023A5.07,5.07,0,0,1,152.7,46a2.325,2.325,0,0,1-1,.37,1,1,0,0,1-.566-.044,1.094,1.094,0,0,1-.261-.174.307.307,0,0,1,.022-.479,1.315,1.315,0,0,0,.174-.174A.856.856,0,0,1,151.109,45.37Zm34.173-22.289a1.651,1.651,0,0,0,.653-.022c.588-.109,1.2-.239,1.785-.348a20.674,20.674,0,0,1,2.329-.326c.805-.087,1.611-.174,2.394-.283a4.472,4.472,0,0,0,1.393-.414,2.472,2.472,0,0,0,1.284-1.328c.218-.544.414-1.11.609-1.676a.671.671,0,0,0,.022-.218.882.882,0,0,0-.218.065c-.174.109-.37.218-.544.348-.239.174-.457.348-.675.522a7.65,7.65,0,0,1-2.307,1.154c-1.2.37-2.394.762-3.591,1.154-.784.261-1.545.522-2.307.849-.239.109-.479.261-.718.392C185.3,22.951,185.26,22.972,185.282,23.081Zm-2.917-7.248a1.552,1.552,0,0,0-.566.152c-.457.2-.936.414-1.393.631a9.568,9.568,0,0,1-1.654.631c-.2.044-.414.131-.609.2a1.736,1.736,0,0,0-.348.174.673.673,0,0,0-.326.74,2.042,2.042,0,0,0,.087.348,1.449,1.449,0,0,1-.022.805c-.065.218-.174.414-.261.631-.065.152-.152.283-.218.435a1.313,1.313,0,0,0-.131.414c-.065.3.109.457.414.37.044-.022.087-.022.131-.044a1.088,1.088,0,0,0,.522-.414,10.1,10.1,0,0,0,.544-.914,7.808,7.808,0,0,1,1.937-2.438c.174-.152.348-.3.544-.457l1.045-.849A1.2,1.2,0,0,0,182.365,15.833Zm-6.573,7.074a1.349,1.349,0,0,0-.958.37,3.533,3.533,0,0,0-.653.849,9.328,9.328,0,0,0-.566,1.262c-.152.392-.283.784-.435,1.175a7.512,7.512,0,0,1-.827,1.611l-1.045,1.437c-.087.131-.174.261-.261.37-.022.044-.065.087,0,.131a1.294,1.294,0,0,1,.174-.087c.174-.152.37-.3.544-.457a17.222,17.222,0,0,0,3.156-3.831c.109-.2.239-.37.348-.588.218-.435.435-.892.653-1.35A.845.845,0,0,0,175.792,22.907Zm-10.383,6.138a1.965,1.965,0,0,1-.2.218.376.376,0,0,0,.544.109c.414-.218.827-.414,1.241-.609a10.26,10.26,0,0,0,2.982-2.22,2.011,2.011,0,0,0,.37-.479,1.5,1.5,0,0,0,.065-.174.642.642,0,0,0-.326.109c-.326.174-.675.37-1,.544a1.511,1.511,0,0,1-1.067.152l-.522-.131a1.1,1.1,0,0,0-1.132.326,3.03,3.03,0,0,0-.327.414,6.373,6.373,0,0,0-.457.849A1.283,1.283,0,0,0,165.409,29.045Zm35.022-15c-.044-.022-.065-.065-.109-.087a1.339,1.339,0,0,0-.631-.2,2.829,2.829,0,0,0-1.458.283,2.636,2.636,0,0,0-.762.522,3.611,3.611,0,0,0-.784,1.306,2.649,2.649,0,0,0-.152.827,1.423,1.423,0,0,0,.044.239,1.736,1.736,0,0,0,.131-.174c.131-.2.283-.414.414-.631a1.682,1.682,0,0,1,.37-.414c.327-.261.675-.522,1-.805a2.79,2.79,0,0,1,.979-.5,5.082,5.082,0,0,1,.544-.152A.947.947,0,0,0,200.431,14.048Zm16.956,7.488a.588.588,0,0,0,.631-.261,1.677,1.677,0,0,0,.174-.414,2.92,2.92,0,0,0,.022-1.067A1.62,1.62,0,0,0,216.93,18.4c-.044-.022-.109,0-.152,0a.667.667,0,0,0,.087.37,3.926,3.926,0,0,1,.174.457,2.179,2.179,0,0,0,.588,1.045.744.744,0,0,1,.2.631.417.417,0,0,1-.2.392A.256.256,0,0,0,217.387,21.536Zm-2.177-7.553a1.063,1.063,0,0,0-.718.392,6.865,6.865,0,0,1-.762.827v.044c.044.087.109.087.2.087h.784c.044,0,.087-.022.131-.022a.474.474,0,0,0,.087-.37,1.315,1.315,0,0,1,.218-.7A.761.761,0,0,0,215.211,13.983Z" transform="translate(-144.331 -8.788)"/><path d="M319.979,55.358c-.022-.109.022-.152.065-.174l.718-.392a20.845,20.845,0,0,1,2.307-.849c1.2-.392,2.394-.784,3.591-1.154a7.408,7.408,0,0,0,2.307-1.154c.218-.174.457-.348.675-.522a4.629,4.629,0,0,1,.544-.348.638.638,0,0,1,.218-.065.607.607,0,0,1-.022.218c-.2.566-.392,1.11-.609,1.676a2.4,2.4,0,0,1-1.284,1.328,4.471,4.471,0,0,1-1.393.414c-.805.109-1.611.2-2.394.283s-1.567.174-2.329.326c-.588.109-1.2.239-1.785.348A.955.955,0,0,1,319.979,55.358Z" transform="translate(-279.028 -41.065)"/><path d="M286.914,38.8a.692.692,0,0,1-.327.37l-1.045.849c-.174.152-.37.3-.544.457a7.809,7.809,0,0,0-1.937,2.438,7.788,7.788,0,0,1-.544.914,1.088,1.088,0,0,1-.522.414.309.309,0,0,1-.131.044c-.3.087-.479-.065-.414-.37a3.021,3.021,0,0,1,.131-.414c.065-.152.152-.3.218-.435a5.466,5.466,0,0,0,.261-.631,1.449,1.449,0,0,0,.022-.805c-.022-.109-.065-.239-.087-.348a.686.686,0,0,1,.326-.74,1.737,1.737,0,0,1,.348-.174,2.848,2.848,0,0,1,.609-.2,8.383,8.383,0,0,0,1.654-.631c.457-.218.914-.435,1.393-.631A4.7,4.7,0,0,1,286.914,38.8Z" transform="translate(-248.88 -31.755)"/><path d="M259.221,71.293a.8.8,0,0,1,.131.892c-.2.457-.414.892-.653,1.35-.109.2-.24.392-.348.588a16.743,16.743,0,0,1-3.156,3.831c-.174.152-.37.3-.544.457a.438.438,0,0,1-.174.087.079.079,0,0,1,0-.131c.087-.131.174-.261.261-.37l1.045-1.437a7.512,7.512,0,0,0,.827-1.611c.152-.392.283-.784.435-1.175a13.125,13.125,0,0,1,.566-1.262,3.056,3.056,0,0,1,.653-.849A1.263,1.263,0,0,1,259.221,71.293Z" transform="translate(-227.76 -57.173)"/><path d="M228.074,88.156a1.169,1.169,0,0,1,.2-.892l.457-.849a3.035,3.035,0,0,1,.326-.414,1.025,1.025,0,0,1,1.132-.326l.522.131a1.315,1.315,0,0,0,1.067-.152c.326-.174.675-.37,1-.544A.642.642,0,0,1,233.1,85c-.022.065-.022.131-.065.174-.131.152-.239.326-.37.479a11.1,11.1,0,0,1-2.982,2.22c-.414.2-.827.414-1.241.609a.388.388,0,0,1-.544-.109A1.256,1.256,0,0,1,228.074,88.156Z" transform="translate(-206.996 -67.899)"/><path d="M375.653,29.493a.746.746,0,0,1-.392.2,5.078,5.078,0,0,1-.544.152,2.988,2.988,0,0,0-.979.5c-.327.261-.675.522-1,.805a1.336,1.336,0,0,0-.37.414c-.131.218-.283.414-.414.631a1.733,1.733,0,0,1-.131.174c-.022-.109-.065-.174-.044-.239a2.649,2.649,0,0,1,.152-.827,4.019,4.019,0,0,1,.784-1.306,2.269,2.269,0,0,1,.762-.522,3.018,3.018,0,0,1,1.458-.283,1.533,1.533,0,0,1,.631.2A.382.382,0,0,0,375.653,29.493Z" transform="translate(-319.553 -24.233)"/><path d="M465.216,53.656a.341.341,0,0,1,.218-.261.4.4,0,0,0,.2-.392.819.819,0,0,0-.2-.631,2.179,2.179,0,0,1-.588-1.045c-.044-.152-.131-.3-.174-.457a.667.667,0,0,1-.087-.37h.152a1.644,1.644,0,0,1,1.284,1.393A2.213,2.213,0,0,1,466,52.96a1.187,1.187,0,0,1-.174.414A.556.556,0,0,1,465.216,53.656Z" transform="translate(-392.159 -40.908)"/><path d="M452.18,30.3c-.022.109-.022.218-.065.261a1.377,1.377,0,0,0-.218.7c-.022.131,0,.261-.087.37-.044,0-.087.022-.131.022H450.9c-.087,0-.174,0-.2-.087v-.044a6.865,6.865,0,0,0,.762-.827A.985.985,0,0,1,452.18,30.3Z" transform="translate(-381.3 -25.105)"/></g></g><g transform="translate(76.867 366.386)"><g transform="translate(0 18.226)"><path class="b" d="M256.9,100.506c-.369-.065-3.151-.087-4.911-.043-.087,0-.152.022-.261.022-.043.456-.022.891-.022,1.325v5.345c-.087.022-.152.022-.217.043h-7.17a1.06,1.06,0,0,1-.087-.239c-.217-.8-.435-1.63-.63-2.434-.043-.13-.065-.239-.109-.391-.065,0-.152-.022-.217-.022H238.3a.425.425,0,0,0-.152.022c-.022.065-.065.152-.087.217-.239.847-.456,1.717-.7,2.586-.022.087-.065.174-.087.261-.109,0-.2.022-.3.022h-4.432c-.109,0-.174-.043-.174-.174-.348.065-.674.109-1,.174a18.579,18.579,0,0,1-4.389.174,7.954,7.954,0,0,1-2.455-.587,6.464,6.464,0,0,1-3.476-3.3,3.447,3.447,0,0,1-.174-.391c-.043.065-.087.109-.13.174a8.672,8.672,0,0,1-.739,1.325,6.258,6.258,0,0,1-3.476,2.412,10.522,10.522,0,0,1-3.585.391,11.156,11.156,0,0,1-2.412-.369,6.574,6.574,0,0,1-4.28-3.672c-.022-.043-.043-.109-.065-.152q0-.033-.065-.065c-.043.109-.109.2-.152.282a6.45,6.45,0,0,1-.913,1.477,6.363,6.363,0,0,1-3.259,2.129,10.894,10.894,0,0,1-3.563.391,11.068,11.068,0,0,1-2.52-.391,3.1,3.1,0,0,1-.478-.174c-.043-.087,0-.13.043-.174.174-.152.326-.3.5-.456.76-.674,1.5-1.347,2.26-2.021a3.772,3.772,0,0,0,.326-.282.765.765,0,0,1,.63-.261,2.3,2.3,0,0,0,.847-.13,2.614,2.614,0,0,0,1.5-1.13,3.292,3.292,0,0,0,.456-1.065.724.724,0,0,1,.369-.5,5.135,5.135,0,0,1,1.869-.826c.739-.152,1.456-.413,2.195-.63a28.2,28.2,0,0,0,3.629-1.369c.087-.043.174-.065.261-.109a.272.272,0,0,1,.065.239c0,.5-.022,1.021,0,1.521a6.276,6.276,0,0,0,.282,1.673,3.918,3.918,0,0,0,.348.826,2.692,2.692,0,0,0,2.216,1.477,4.377,4.377,0,0,0,1.3-.043,2.7,2.7,0,0,0,1.847-1.325,5.179,5.179,0,0,0,.5-1.369,10.875,10.875,0,0,0,.174-2.368,8.636,8.636,0,0,0-.239-1.977,5.524,5.524,0,0,0-.369-1,2.859,2.859,0,0,0-1.217-1.217.88.88,0,0,1-.2-.109.945.945,0,0,1,.13-.152c.5-.478,1-.978,1.521-1.456.326-.3.652-.608.978-.891.152-.152.326-.261.478-.391a5.535,5.535,0,0,1,1.825,1.412,7.145,7.145,0,0,1,1.173,2.021.455.455,0,0,0,.13-.174,6.8,6.8,0,0,1,.782-1.26,7.14,7.14,0,0,1,3.694-2.5,10.557,10.557,0,0,1,2.586-.435,14.459,14.459,0,0,1,2.564.087,13.382,13.382,0,0,1,3.3.826l.261.13c-.478,1.152-.934,2.3-1.391,3.455a1.648,1.648,0,0,0-.239-.087,8.657,8.657,0,0,0-3.846-.782,3.912,3.912,0,0,0-1.5.282,3.485,3.485,0,0,0-1.76,1.543,4.935,4.935,0,0,0-.608,1.912,8.277,8.277,0,0,0,.065,2.738,4.559,4.559,0,0,0,.521,1.5,3.186,3.186,0,0,0,2.412,1.651,7.215,7.215,0,0,0,2.368-.109c.043,0,.087-.043.152-.065a3.059,3.059,0,0,0,.022-.63v-1.847c-.109-.109-.217-.065-.326-.065h-2.586a.673.673,0,0,1-.043-.174V97.66c0-.043.022-.065.022-.13.065,0,.152-.022.239-.022h6.431a1.988,1.988,0,0,1,.369.022c.109.13.065.239.065.369v2.064a1.434,1.434,0,0,0,.022.3c.109,0,.087-.065.109-.109a.309.309,0,0,0,.043-.13c.413-1.26.8-2.5,1.217-3.759.565-1.76,1.152-3.542,1.716-5.3l.13-.326c.3-.043,3.824-.065,4.432-.022.022.022.043.022.065.043a1.5,1.5,0,0,1,.521.869,1,1,0,0,0,.152.348.724.724,0,0,0,.5.369c.152.022.326.043.5.065a1.987,1.987,0,0,0,.369.022c.043.152.109.282.152.435.869,2.629,1.717,5.258,2.586,7.865a1.081,1.081,0,0,0,.2.435c0-.174.022-.282.022-.413V92.337c0-.087-.022-.174.087-.217.087-.022.109.065.174.109.109.13.239.282.348.391a4.356,4.356,0,0,0,.348.3,1.147,1.147,0,0,0,1.021.2c.13-.043.282-.065.413-.109a2.316,2.316,0,0,1,.652-.13,1.849,1.849,0,0,0,.674-.2c.174-.065.348-.13.543-.2a.724.724,0,0,1,.217,0,8.8,8.8,0,0,1,.022,1.065v3.172c.109.109.239.065.348.065h4.519a1.539,1.539,0,0,0,.3-.022,4.45,4.45,0,0,0,.022-.76V90.75c.13-.109.261-.065.391-.065h3.694a2.233,2.233,0,0,1,.369.022.815.815,0,0,1,.022.217v16.252a.65.65,0,0,1-.391.065h-3.781c-.087,0-.2-.022-.282-.022a.809.809,0,0,1-.043-.391v-5.867A.7.7,0,0,1,256.9,100.506Zm-14.384-.109c-.2-.782-.391-1.543-.608-2.325-.2-.76-.413-1.5-.587-2.26-.2-.76-.369-1.521-.565-2.368-.043.152-.065.217-.087.3-.174.8-.348,1.63-.543,2.434-.326,1.282-.652,2.564-1,3.846a1.1,1.1,0,0,0-.065.369C239.343,100.441,242.1,100.441,242.515,100.4Z" transform="translate(-152.469 -90.385)"/><path class="b" d="M118.8,103.472c.109-.847.152-1.695.239-2.542a9.108,9.108,0,0,0-1.347.043c-.435.022-.869.022-1.3.043-.065-.217-.065-.217.022-.521a5.8,5.8,0,0,1,.869,0h.847a6.4,6.4,0,0,0,.913,0c.087-.456.087-.891.13-1.347.043-.435.087-.869.109-1.3a.346.346,0,0,0-.282-.065c-.7.022-1.369.065-2.064.087h-.3a3.576,3.576,0,0,1,.065-1.043c.087,0,.174-.022.261-.022.652.022,1.3.043,1.955.043h.413a6.241,6.241,0,0,0,.152-1.26,8.008,8.008,0,0,0,.087-1.26c-.456,0-.891.043-1.325.043s-.869.087-1.282.043c-.022-.022-.043-.022-.043-.043v-.043c.065-.847.13-1.695.217-2.542a1.3,1.3,0,0,1,.043-.261c.065,0,.13-.022.2-.022h4.02a.25.25,0,0,1,.261.413v6.3a2.37,2.37,0,0,0,.022.369c1.586-2.412,3.216-4.715,4.78-7.018a.269.269,0,0,0,.065-.043h4.78l.022.022v.022c0,.022,0,.022-.022.043s-.022.043-.043.065l-.022.022c-.022.022-.022.043-.043.065l-4.954,7.04-.022.022a.021.021,0,0,1-.022.022c0,.022,0,.022-.022.043a.714.714,0,0,0,.152.348c.7,1.26,1.412,2.5,2.108,3.759.065.109.13.217.2.348a4.392,4.392,0,0,1-.8.869,2.208,2.208,0,0,1-.782.391c-.239.065-.478.13-.717.217a3,3,0,0,0-1.238.674.475.475,0,0,1-.109.065c-.109-.065-.13-.2-.2-.282-.543-1.065-1.108-2.129-1.651-3.194a2.168,2.168,0,0,0-.174-.3c-.043.022-.087.022-.109.043-.391.239-.8.478-1.217.717v7.779a.815.815,0,0,1-.217.022h-5.649c-.087,0-.152-.022-.239-.022,0-.065-.022-.109-.022-.152.109-1.173.2-2.368.3-3.542,0-.043.022-.065.043-.109.869-.043,1.738.065,2.629.043a3.588,3.588,0,0,0,.109-.826c.022-.261.043-.543.065-.826a5.124,5.124,0,0,0,.043-.826.973.973,0,0,0-.5,0c-.63.043-1.26.087-1.89.109h-.282c0-.065-.022-.087-.022-.13.022-.2.043-.369.065-.543a.447.447,0,0,1,.326-.065c.674,0,1.325.022,2,.022Z" transform="translate(-90.299 -91.243)"/><path class="b" d="M174.715,102.307c-.065-.217-.109-.369-.152-.543a11.958,11.958,0,0,1-.3-2.325,13.532,13.532,0,0,1,.087-2.3A9.616,9.616,0,0,1,175,94.551a6.488,6.488,0,0,1,4.28-3.824,10.714,10.714,0,0,1,3.629-.391c.413.022.8.065,1.2.109a3.837,3.837,0,0,1,.435.087c0,.065,0,.109-.022.13a12.636,12.636,0,0,1-2.3,3.151.751.751,0,0,1-.456.217,3.214,3.214,0,0,0-.782.217,2.554,2.554,0,0,0-1.369,1.325,1.166,1.166,0,0,1-.369.435,4.034,4.034,0,0,0-1.2,1.3c-.326.521-.652,1.043-.956,1.586-.2.326-.391.652-.608.956s-.413.608-.608.913c-.3.456-.63.891-.934,1.347A.617.617,0,0,0,174.715,102.307Z" transform="translate(-136.246 -90.318)"/><path class="b" d="M-.078,123.7H.1c1.347-.065,2.694-.109,4.063-.174,1.325-.065,2.651-.13,3.976-.174.76-.043,1.543-.065,2.3-.087.847-.043,1.673-.065,2.52-.109.608-.022,1.217-.065,1.8-.087,1.369-.065,2.716-.109,4.085-.174,1.347-.065,2.673-.13,4.02-.174.76-.043,1.521-.065,2.281-.087.847-.043,1.717-.087,2.564-.109a3.045,3.045,0,0,1,.63,0c-.022.63-.087,1.217-.152,1.8-.043.022-.043.022-.065.022-.043,0-.065.022-.109.022L.291,123.791c-.13,0-.261-.022-.391-.022C-.078,123.725-.078,123.725-.078,123.7Z" transform="translate(0.1 -115.516)"/><path class="b" d="M40.213,136.8c-.043.587-.087,1.13-.152,1.673a.367.367,0,0,1-.109.043c-8.191-.174-16.361-.348-24.552-.543.348-.022.717-.065,1.065-.087,1.282-.065,2.564-.109,3.846-.174s2.564-.13,3.846-.174c.587-.022,1.152-.065,1.738-.087,1.282-.065,2.586-.109,3.868-.174,1.26-.065,2.52-.13,3.759-.174.739-.043,1.477-.065,2.195-.087.782-.043,1.564-.065,2.347-.109.63-.022,1.26-.065,1.89-.087A.973.973,0,0,1,40.213,136.8Z" transform="translate(-12.032 -126.7)"/><path class="b" d="M31.522,107.608l.587-.065c1.673-.087,3.368-.152,5.041-.239,1.456-.065,2.89-.152,4.346-.217,1.412-.065,2.846-.13,4.259-.217l4.91-.261c.826-.043,1.63-.065,2.455-.109a1.148,1.148,0,0,1,.261.022c-.043.543-.065,1.065-.152,1.586-.043.022-.065.043-.087.043-7.214-.174-14.427-.326-21.641-.5A.067.067,0,0,0,31.522,107.608Z" transform="translate(-24.634 -102.984)"/><path class="b" d="M69.226,151.4c-.043.521-.065,1.043-.152,1.543-.109.087-.217.043-.326.043-.891-.022-1.782-.043-2.673-.087-.978-.022-1.977-.065-2.955-.109-1.108-.043-2.216-.065-3.3-.087-1.89-.065-3.8-.13-5.693-.174-.435-.022-.847-.022-1.325-.043C53.169,152.378,68.792,151.4,69.226,151.4Z" transform="translate(-41.306 -138.128)"/><g transform="translate(70.317 17.46)"><path class="b" d="M345.293,172.3a2.319,2.319,0,0,1-.13.674,1.182,1.182,0,0,1-.847.782,1.955,1.955,0,0,1-.869,0,1.194,1.194,0,0,1-.826-.717,2.165,2.165,0,0,1-.022-1.434,1.106,1.106,0,0,1,.8-.739,1.785,1.785,0,0,1,.956,0,1.145,1.145,0,0,1,.826.8C345.227,171.843,345.249,172.082,345.293,172.3Zm-.674.065a2.787,2.787,0,0,1-.022-.391.35.35,0,0,0-.065-.2.635.635,0,0,0-.652-.456.643.643,0,0,0-.674.435,1.619,1.619,0,0,0,0,1.108.628.628,0,0,0,.674.413.608.608,0,0,0,.63-.435A2.837,2.837,0,0,0,344.619,172.364Z" transform="translate(-338.057 -170.773)"/><path class="b" d="M369.875,172.613c-.174-.022-.326-.022-.5-.043a.818.818,0,0,1-.022-.456,3.555,3.555,0,0,1,1.086-.022,5.763,5.763,0,0,1,0,1.5,2.748,2.748,0,0,1-1.325.13,1.147,1.147,0,0,1-.978-.978,2.5,2.5,0,0,1-.022-.8,1.271,1.271,0,0,1,.978-1.108,2,2,0,0,1,1.369.109,1.118,1.118,0,0,1-.2.478c-.109-.022-.2-.065-.3-.087a.914.914,0,0,0-1.238.956,1.654,1.654,0,0,0,.065.456.655.655,0,0,0,.652.521,2.661,2.661,0,0,0,.413-.043A1.438,1.438,0,0,0,369.875,172.613Z" transform="translate(-358.098 -170.739)"/><path class="b" d="M410.93,171a.994.994,0,0,1-.2.435,2.033,2.033,0,0,0-.348-.087A2.391,2.391,0,0,0,410,171.3a.265.265,0,0,0-.282.217.278.278,0,0,0,.13.3c.109.065.217.13.348.2a3.465,3.465,0,0,1,.478.282.68.68,0,0,1,.282.543.827.827,0,0,1-.587.869,1.682,1.682,0,0,1-1.282-.13,1.059,1.059,0,0,1,0-.521c.087.022.174.065.239.087a3.779,3.779,0,0,0,.478.109.645.645,0,0,0,.348-.043.262.262,0,0,0,.109-.435.677.677,0,0,0-.2-.152c-.109-.065-.239-.109-.348-.174s-.217-.109-.3-.174a.794.794,0,0,1-.3-.913.818.818,0,0,1,.7-.565A1.644,1.644,0,0,1,410.93,171Z" transform="translate(-390.158 -170.751)"/><path class="b" d="M491.3,173.579v-.521c.087.022.152.022.217.043a4.577,4.577,0,0,0,.521.13.94.94,0,0,0,.348-.022.272.272,0,0,0,.109-.456,2.2,2.2,0,0,0-.282-.2,3.717,3.717,0,0,1-.5-.282.8.8,0,0,1-.369-.608.756.756,0,0,1,.7-.869,1.636,1.636,0,0,1,1.108.174.928.928,0,0,1-.13.435c-.13.065-.217-.043-.3-.043a3.242,3.242,0,0,0-.456-.043.265.265,0,0,0-.282.217.278.278,0,0,0,.13.3c.087.065.2.109.3.174.152.087.326.174.456.261a.745.745,0,0,1,.326.8.766.766,0,0,1-.587.63,1.829,1.829,0,0,1-1.13-.043A.65.65,0,0,1,491.3,173.579Z" transform="translate(-454.537 -170.75)"/><path class="b" d="M470.778,173.05v.478a1.814,1.814,0,0,1-1.456,0,1.042,1.042,0,0,1-.543-.63,2.266,2.266,0,0,1-.022-1.369,1.193,1.193,0,0,1,1.152-.847,1.587,1.587,0,0,1,.934.2,1.069,1.069,0,0,1-.174.478.634.634,0,0,0-.2-.043l-.2-.065a.694.694,0,0,0-.934.521,1.955,1.955,0,0,0,0,.869.642.642,0,0,0,.7.521,3.3,3.3,0,0,0,.456-.065A1.271,1.271,0,0,0,470.778,173.05Z" transform="translate(-436.817 -170.676)"/><path class="b" d="M430.973,173.82c-.109,0-.174.022-.261.022h-.326a1.3,1.3,0,0,1-.043-.261v-1.738a2.231,2.231,0,0,0-.022-.369c-.261-.087-.5,0-.739-.065a.815.815,0,0,1,0-.456,14.207,14.207,0,0,1,2.151,0,.814.814,0,0,1,0,.456c-.239.087-.5,0-.76.087a10.573,10.573,0,0,0-.022,1.173C430.973,173.016,430.973,173.407,430.973,173.82Z" transform="translate(-406.203 -170.86)"/><path class="b" d="M322.1,170.971a1.573,1.573,0,0,1,.543-.022.3.3,0,0,1,.087.282v1.738a2.234,2.234,0,0,0,.022.369,2.653,2.653,0,0,0,.587.022h.543a1.125,1.125,0,0,1,.043.456,9.42,9.42,0,0,1-1.76.022,4.48,4.48,0,0,1-.022-.934v-.934A7.687,7.687,0,0,1,322.1,170.971Z" transform="translate(-322.1 -170.879)"/><path class="b" d="M393.53,173.792h-.587a.512.512,0,0,1-.043-.174v-2.564c0-.043.022-.087.022-.152a2.461,2.461,0,0,1,.565-.022.424.424,0,0,1,.022.152C393.53,171.945,393.53,172.836,393.53,173.792Z" transform="translate(-377.517 -170.832)"/><path class="b" d="M452.522,170.941a2.448,2.448,0,0,1,.565,0,.552.552,0,0,1,.043.152v2.716a1.339,1.339,0,0,1-.587.022.511.511,0,0,1-.043-.174v-2.52C452.5,171.072,452.522,171.028,452.522,170.941Z" transform="translate(-424.167 -170.871)"/></g></g><g transform="translate(28.983 0)"><path class="a" d="M156.14,18.767a2.732,2.732,0,0,0-.978-.261,18.612,18.612,0,0,0-2.911-.043c-.674.022-1.325.065-2,.13-.63.043-1.26.109-1.869.174-.326.022-.63.043-.956.087-.413.043-.826.13-1.238.174-.521.065-1.043.13-1.564.174-.891.087-1.8.174-2.694.174a14.678,14.678,0,0,1-3.085-.261,9.867,9.867,0,0,1-3.259-1.3,9,9,0,0,1-1.912-1.477,7.14,7.14,0,0,1-1.477-2.26,3.792,3.792,0,0,1-.326-1.76,1.184,1.184,0,0,1,.109-.478.5.5,0,0,1,.5-.326,1.507,1.507,0,0,1,.608.174,3.6,3.6,0,0,1,1.065.826c.348.391.674.8,1,1.2.174.217.348.456.521.674a5.407,5.407,0,0,0,1.564,1.325,9.272,9.272,0,0,0,2.89,1.065,17.972,17.972,0,0,0,4.824.2c.456-.043.913-.13,1.369-.152.956-.087,1.89-.326,2.825-.5,1.412-.261,2.846-.543,4.259-.8,1.086-.2,2.195-.282,3.281-.391.674-.065,1.325-.065,2-.087.978-.022,1.977-.087,2.955-.174l1.173-.13a8.981,8.981,0,0,0,2-.5c1.391-.456,2.759-1,4.107-1.586,3.368-1.477,6.823-2.716,10.3-3.933.174-.065.348-.13.543-.2a5.68,5.68,0,0,0,1.173-.521,11.667,11.667,0,0,1,3.5-1.282,13.723,13.723,0,0,1,4.215-.2,21.258,21.258,0,0,1,5.91,1.477,31.394,31.394,0,0,1,2.977,1.456c.956.521,1.912,1.065,2.868,1.586.022.022.065.022.087.043a.72.72,0,0,0,.8.043,8.521,8.521,0,0,1,.782-.348,1.68,1.68,0,0,1,1.217-.022.689.689,0,0,1,.413.326.474.474,0,0,0,.109.174.605.605,0,0,1,.109.543,3.107,3.107,0,0,0-.022.63.679.679,0,0,0,.283.543c.109.087.217.174.369.282a1.253,1.253,0,0,0,.087-.152,1.447,1.447,0,0,0-.022-.8.854.854,0,0,0-.282-.456l-.2-.2a.2.2,0,0,1-.043-.239.8.8,0,0,1,.587.065,1.21,1.21,0,0,1,.587.76,2.476,2.476,0,0,1,.043.978,3.241,3.241,0,0,0-.043.456.614.614,0,0,0,.2.521c.174.174.348.326.521.478a2.893,2.893,0,0,1,.608.652,2.175,2.175,0,0,1,.456,1.26c.043.478.087.956.109,1.412.043.739.065,1.477.109,2.195a.773.773,0,0,1-.478.826,3.532,3.532,0,0,0-1.065.8,2.641,2.641,0,0,1-.369.326,1.619,1.619,0,0,1-.543.282.938.938,0,0,1-.891-.109,8.152,8.152,0,0,1-1.543-1.2l-.456-.456a2.071,2.071,0,0,0-1.021-.565c-.261-.065-.521-.13-.8-.174a2.362,2.362,0,0,0-.391-.022.428.428,0,0,0-.174.087c.087.065.152.13.217.174a4.678,4.678,0,0,1,1.043.652c.174.13.369.282.543.413a4.184,4.184,0,0,1,1.543,3.172,1.543,1.543,0,0,1-.152.76.563.563,0,0,1-.478.369,2.4,2.4,0,0,1-.391.043,2.251,2.251,0,0,0-.826.239,2.073,2.073,0,0,1-.652.2,2.221,2.221,0,0,0-.63.152.784.784,0,0,1-.934-.261,1.428,1.428,0,0,1-.261-.369c-.13-.217-.239-.435-.369-.652-.065-.109-.13-.217-.217-.348a.783.783,0,0,0-.2.109,3.18,3.18,0,0,0-.348.413,1.29,1.29,0,0,1-1.282.521,2.945,2.945,0,0,0-.435-.043c-.3-.022-.608-.043-.913-.087-.152-.022-.282-.022-.435-.043a.347.347,0,0,1-.3-.261c-.043-.13-.087-.239-.13-.369a.773.773,0,0,0-.348-.478.473.473,0,0,1-.109-.087.429.429,0,0,1-.087-.5.669.669,0,0,0,.13-.413.872.872,0,0,0-.478-.261,9.5,9.5,0,0,0-1.065-.261c-.608-.109-1.238-.2-1.869-.261-.217-.022-.456-.022-.674-.022a12.688,12.688,0,0,1-2.021-.174c-.782-.109-1.564-.326-2.325-.478a7,7,0,0,0-2.021-.152c-1.021.087-2.064.152-3.085.217-.847.043-1.716.065-2.564.087l-3.237.065a12.75,12.75,0,0,0-1.282.109,9.043,9.043,0,0,0-2.607.782,10.608,10.608,0,0,0-2.39,1.521c-1.043.847-2,1.738-2.955,2.673-.543.543-1.065,1.086-1.608,1.608-.282.282-.587.543-.891.826a9.54,9.54,0,0,1-2.347,1.543,30.893,30.893,0,0,1-4.085,1.543c-.7.217-1.412.435-2.129.608a4.236,4.236,0,0,0-1.412.587,13.426,13.426,0,0,0-1.152.782c-1.173.934-2.347,1.89-3.476,2.89-.826.739-1.651,1.456-2.477,2.195-.587.543-1.152,1.108-1.716,1.673a8.678,8.678,0,0,0-.587.674c-.391.5-.76,1-1.152,1.5a5.274,5.274,0,0,1-1.173,1.13,2.457,2.457,0,0,1-.847.369.754.754,0,0,1-.8-.3,1.025,1.025,0,0,0-.7-.456,1.614,1.614,0,0,1-.978-.652,1.5,1.5,0,0,1-.3-1.238,3.7,3.7,0,0,1,.326-.978c.261-.478.521-.934.782-1.391a1.887,1.887,0,0,1,1.108-.847c.239-.087.478-.152.717-.217a3.5,3.5,0,0,0,1.651-1,18.856,18.856,0,0,0,1.717-2.216l.913-1.369c.13-.2.239-.391.348-.587.261-.435.5-.869.76-1.282.13-.217.261-.413.413-.63a3.557,3.557,0,0,1,.913-.891c.435-.282.847-.565,1.26-.847.413-.3.826-.587,1.217-.913a12.256,12.256,0,0,0,3.129-4.15c.435-.891.8-1.825,1.217-2.738.239-.5.456-1.021.717-1.521a6.032,6.032,0,0,1,.717-1.108,2.845,2.845,0,0,1,.847-.76A.226.226,0,0,0,156.14,18.767ZM138.628,42.95a1.061,1.061,0,0,1-.065.152.662.662,0,0,1-.174.174c-.152.152-.174.261-.022.478a.554.554,0,0,0,.261.174.993.993,0,0,0,.565.043,2.781,2.781,0,0,0,1-.369,5.062,5.062,0,0,0,1.108-.934c.3-.326.587-.674.869-1.021,1.043-1.3,2.086-2.607,3.151-3.911a18.9,18.9,0,0,1,2.195-2.368,7.877,7.877,0,0,1,1.477-1.043c1.934-1,3.868-2.042,5.867-2.89a2.194,2.194,0,0,0,.326-.152,40.179,40.179,0,0,0,4.215-2.368,8.481,8.481,0,0,0,1-.739c1.434-1.173,2.846-2.325,4.259-3.52a26.281,26.281,0,0,1,2.173-1.564,5.017,5.017,0,0,1,1.325-.652,15.413,15.413,0,0,1,1.977-.478c.413-.065.847-.109,1.26-.152.8-.087,1.63-.152,2.455-.174.543-.022,1.086-.022,1.63-.043.565-.022,1.108-.087,1.673-.109,1.152-.043,2.3-.109,3.455-.217a9.59,9.59,0,0,0,2.086-.413c.7-.217,1.391-.413,2.064-.63a2.193,2.193,0,0,0,.326-.152.181.181,0,0,0,.065-.239c-.109-.043-.217-.087-.348-.13s-.282-.043-.413-.087c-.152-.043-.326-.065-.478-.109a.7.7,0,0,1-.543-.782v-.065a1.686,1.686,0,0,1,.261-.847l.587-.847c.109-.174.239-.326.348-.5a.165.165,0,0,0,.022-.2c-.109-.043-.239.065-.348-.043a.613.613,0,0,1,.087-.326c.239-.456.456-.913.717-1.347a5.582,5.582,0,0,1,1.543-1.651,4.756,4.756,0,0,1,1.564-.76.864.864,0,0,1,.239,0c-.109.13-.174.239-.261.348-.326.369-.652.76-1,1.108a4.715,4.715,0,0,0-.869,1.3,3.08,3.08,0,0,0-.152.478c-.022.043,0,.109,0,.174a2.391,2.391,0,0,0,.7-.239.424.424,0,0,1,.174-.022.974.974,0,0,1-.3.348c-.217.217-.456.435-.674.652a4.725,4.725,0,0,0-.934,1.325,2.482,2.482,0,0,0-.2.565.663.663,0,0,0,.369.782c.2.109.391.174.587.261,1.043.369,2.108.739,3.151,1.108a6.016,6.016,0,0,0,.891.261,1.836,1.836,0,0,1,.369.109,6.438,6.438,0,0,0,1.26.369c.217.043.435.109.652.174.652.2,1.325.391,1.977.565a6.765,6.765,0,0,1,1.412.478,1.056,1.056,0,0,0,.63.109c.152-.022.282-.022.435-.043a.316.316,0,0,1,.369.217,3.078,3.078,0,0,1,.174.391.931.931,0,0,0,.565.543,1.7,1.7,0,0,0,.3.109.982.982,0,0,1,.5.435,3.078,3.078,0,0,1,.174.391,3.184,3.184,0,0,0,.13.3,6.539,6.539,0,0,0,.435.739c.174.239.413.217.543-.065l.065-.2a1.225,1.225,0,0,1,.087-.261c.217.174.217.174.261.348a.479.479,0,0,0,.022.174.255.255,0,0,0,.239.217.625.625,0,0,0,.435-.109.811.811,0,0,0,.369-.739,1.92,1.92,0,0,1,0-.5.577.577,0,0,1,.261.348,1.682,1.682,0,0,0,.152.348.366.366,0,0,0,.608.022,1.017,1.017,0,0,0,.109-.217,1.231,1.231,0,0,0,.022-.565,6.594,6.594,0,0,0-.674-1.934,2.247,2.247,0,0,0-.522-.674,20.637,20.637,0,0,0-1.738-1.347c-.087-.065-.2-.13-.3-.2a16.367,16.367,0,0,0-2.412-1.152c-.065-.022-.109-.043-.174-.065a4.065,4.065,0,0,0-.869-.282,10.893,10.893,0,0,0-1.434-.217c-.391-.043-.8-.087-1.2-.152a1.027,1.027,0,0,1-.478-.152c.109-.065.2-.109.3-.174l-.174-.087a4.506,4.506,0,0,0-1.086-.13c-.217-.022-.456-.022-.674-.043-.043,0-.087-.043-.174-.087a1.354,1.354,0,0,1,.674-.174l1-.065a1.42,1.42,0,0,0,.239-.043c-.043-.065-.065-.109-.109-.13a2.413,2.413,0,0,0-.348-.152c-.109-.043-.239-.087-.369-.152-.043-.022-.043-.065-.109-.109.087,0,.13-.022.174-.022a6.247,6.247,0,0,1,1.412.152c.413.109.5.043.7-.326a2.039,2.039,0,0,0,.13-.326c.065-.239.109-.456.152-.7.043-.326.087-.652.152-.978,0-.065.065-.109.109-.2.043.109.087.2.109.261.043.282.087.565.109.847.022.13.065.2.217.2.022-.109.065-.217.087-.326a3.121,3.121,0,0,1,.608-1.2c.043-.043.065-.13.174-.087,0,.043.022.065,0,.109-.022.087-.065.174-.087.261a5.753,5.753,0,0,0-.413,2.086,2.551,2.551,0,0,0,.5,1.521,1.247,1.247,0,0,0,.478.413.322.322,0,0,0,.152.022c-.043-.217-.087-.391-.13-.565a1.243,1.243,0,0,1,.022-.565.606.606,0,0,1,.3-.456c.022.043.065.109.087.152a2.662,2.662,0,0,1,.043.413,4.476,4.476,0,0,0,.065.565,1.124,1.124,0,0,0,.934.782.537.537,0,0,0,.521-.217,2.2,2.2,0,0,0,.2-.282.968.968,0,0,1,.391-.391,5.2,5.2,0,0,0,.456-.282,1.49,1.49,0,0,0,.63-.739c.022-.043.065-.087.13-.2a1.36,1.36,0,0,1-.217.652,5.5,5.5,0,0,0-.261.5.772.772,0,0,0,.174.978,2.828,2.828,0,0,0,.5.391c.3.2.63.391.934.587a6.513,6.513,0,0,1,1.5,1.282,7.035,7.035,0,0,0,.934.869,1.063,1.063,0,0,0,.8.261.264.264,0,0,0,.261-.152.3.3,0,0,0-.087-.326,1.207,1.207,0,0,0-.174-.13,3.344,3.344,0,0,0-.413-.174c-.217-.087-.456-.13-.674-.217a1.336,1.336,0,0,1-.782-1.716.6.6,0,0,1,.717.109,3.777,3.777,0,0,1,.282.326c.152.2.282.413.435.608a7.562,7.562,0,0,0,.565.652,1.436,1.436,0,0,0,.435.3.451.451,0,0,0,.652-.478c0-.065-.022-.109-.022-.174-.022-.13-.043-.282-.065-.413a.312.312,0,0,1,.065-.3c.087-.043.13.022.174.087a1.01,1.01,0,0,0,.717.5c.239.043.391-.065.369-.282v-.326c-.022-.326-.043-.63-.065-.956a16.623,16.623,0,0,0-.369-2.281,3.486,3.486,0,0,0-.63-1.347,7.235,7.235,0,0,0-.543-.608c-.369-.369-.739-.717-1.108-1.065a.993.993,0,0,0-.413-.282.454.454,0,0,1-.087.13.25.25,0,0,1-.435-.087,1.092,1.092,0,0,1-.13-.521c0-.282.022-.565.022-.847a3.209,3.209,0,0,0-.022-.456.557.557,0,0,0-.739-.456,1.139,1.139,0,0,0-.391.217,4.138,4.138,0,0,0-.521.543c-.152.174-.282.369-.413.543a1.665,1.665,0,0,1-.891.543.848.848,0,0,1-.608-.087.421.421,0,0,1,.043-.326,2.729,2.729,0,0,1,.782-.934.358.358,0,0,0-.261-.239c-.239-.13-.456-.239-.7-.369-.456-.261-.891-.543-1.347-.8-.369-.2-.717-.391-1.108-.565a4.5,4.5,0,0,0-.913-.3,3.172,3.172,0,0,0-1.2-.065c-.3.043-.391,0-.521-.261a1.422,1.422,0,0,0-.413-.521,4.939,4.939,0,0,0-.7-.478,6.371,6.371,0,0,0-1.391-.543,14.7,14.7,0,0,0-2.368-.456,13.645,13.645,0,0,0-2.977-.065c-.521.065-1.065.152-1.586.239a9.218,9.218,0,0,0-1.869.543c-.435.2-.891.391-1.325.608a8.284,8.284,0,0,0-1.412.826,1.813,1.813,0,0,1-.261.174,10.555,10.555,0,0,0-1.282.913c-.152.13-.3.239-.456.348a.093.093,0,0,1-.152-.022,1.2,1.2,0,0,1,.3-.5c.152-.174.326-.326.478-.478a.715.715,0,0,0,.239-.435.67.67,0,0,0-.217.022c-.2.065-.413.13-.608.217a24,24,0,0,1-2.368.891,2.556,2.556,0,0,0-.435.152c-.717.3-1.434.543-2.173.8-1.347.478-2.673,1.065-3.976,1.63-1.347.587-2.694,1.152-4.085,1.63a16.8,16.8,0,0,1-3.237.8,24.261,24.261,0,0,1-3.085.217c-.891.022-1.8-.043-2.694,0-.8.043-1.586.043-2.368.152-1.347.174-2.694.391-4.041.674-1.325.261-2.651.543-4,.7-.934.109-1.869.2-2.8.239a7.927,7.927,0,0,1-1.021-.022,21.8,21.8,0,0,1-2.39-.326,10.531,10.531,0,0,1-3.107-1.065,4.8,4.8,0,0,1-.782-.5,3.572,3.572,0,0,0-.478-.3.275.275,0,0,0-.13-.022c0,.043-.022.065,0,.087a1.052,1.052,0,0,0,.065.152,4.751,4.751,0,0,0,1.173,1.456,6.537,6.537,0,0,0,1.912,1.13,10.232,10.232,0,0,0,3.5.7c.565.022,1.108.022,1.673.043h.348c.739-.065,1.5-.109,2.238-.174,1.152-.109,2.3-.261,3.476-.3.826-.043,1.63-.13,2.455-.13a11.86,11.86,0,0,0,1.238-.087,6.279,6.279,0,0,1,1.912.065c.369.087.739.2,1.086.3a1.272,1.272,0,0,0,.8,0,4.928,4.928,0,0,1,.543-.13.553.553,0,0,1,.152.043,1.481,1.481,0,0,1-.109.152c-.13.087-.239.2-.369.282a7.464,7.464,0,0,0-2.238,2.129,11.385,11.385,0,0,0-1,1.716c-.3.674-.63,1.325-.913,2a10.9,10.9,0,0,1-.978,1.782c-.369.543-.739,1.108-1.108,1.651a4.917,4.917,0,0,1-.869,1.021l-1.2,1.065c-.174.174-.348.348-.521.543a.735.735,0,0,0-.065.174,1.148,1.148,0,0,0,.282-.022,4.167,4.167,0,0,0,1.043-.326,2.082,2.082,0,0,0,1.086-.891c.13-.217.282-.435.435-.652a.631.631,0,0,1,.239-.239c0,.022.022.043.022.065a2.827,2.827,0,0,1-1.63,2.064c-.369.152-.717.326-1.086.456a12.589,12.589,0,0,0-1.717.847,5.877,5.877,0,0,0-2,1.8l-.2.261c-.543.826-1.108,1.651-1.651,2.5-.2.3-.369.608-.565.913a3.857,3.857,0,0,1-2.238,1.76c-.3.087-.608.2-.913.3a2.306,2.306,0,0,0-.739.348.9.9,0,0,0-.326.369.417.417,0,0,0,.326.608c.109.022.2.022.348.043-.087.087-.13.174-.2.2a2.063,2.063,0,0,1-.456.2c-.174.065-.348.087-.5.152a.611.611,0,0,0-.435.869.771.771,0,0,0,.087.2.4.4,0,0,0,.5.239A.614.614,0,0,1,138.628,42.95Z" transform="translate(-131.862 -6.433)"/><path class="c" d="M151.1,45.306a.7.7,0,0,0-.369.022.406.406,0,0,1-.5-.239.772.772,0,0,1-.087-.2.611.611,0,0,1,.435-.869c.174-.065.348-.087.5-.152l.456-.2a1.637,1.637,0,0,0,.2-.2c-.152-.022-.261-.022-.348-.043a.408.408,0,0,1-.326-.608.767.767,0,0,1,.326-.369,2.882,2.882,0,0,1,.739-.348c.3-.109.608-.2.913-.3a3.944,3.944,0,0,0,2.238-1.76c.2-.3.369-.608.565-.913.543-.826,1.086-1.673,1.651-2.5l.2-.261a5.9,5.9,0,0,1,2-1.8,17.961,17.961,0,0,1,1.716-.847c.369-.152.717-.3,1.086-.456a2.866,2.866,0,0,0,1.63-2.064.08.08,0,0,0-.022-.065c-.13.043-.174.152-.239.239-.152.217-.3.435-.435.652a2.308,2.308,0,0,1-1.086.891,6.407,6.407,0,0,1-1.043.326,1.148,1.148,0,0,1-.282.022c.022-.065.022-.13.065-.174.174-.174.326-.369.521-.543.391-.369.782-.717,1.2-1.065a4.337,4.337,0,0,0,.869-1.021c.348-.565.739-1.108,1.108-1.651a12.824,12.824,0,0,0,.978-1.782c.3-.674.608-1.347.913-2a10.407,10.407,0,0,1,1-1.716,7.755,7.755,0,0,1,2.238-2.129,2.372,2.372,0,0,0,.369-.282.919.919,0,0,0,.109-.152.553.553,0,0,0-.152-.043,3.974,3.974,0,0,0-.543.13,1.138,1.138,0,0,1-.8,0c-.369-.109-.717-.217-1.086-.3a7.056,7.056,0,0,0-1.912-.065c-.413.022-.826.087-1.238.087-.826,0-1.63.087-2.455.13-1.173.043-2.325.2-3.476.3-.739.065-1.5.13-2.238.174h-.348c-.565-.022-1.108-.022-1.673-.043a10.031,10.031,0,0,1-3.5-.7,7.05,7.05,0,0,1-1.912-1.13,4.751,4.751,0,0,1-1.173-1.456c-.022-.043-.043-.109-.065-.152V17.6a.276.276,0,0,1,.13.022c.152.109.326.2.478.3a4.8,4.8,0,0,0,.782.5,10.532,10.532,0,0,0,3.107,1.065,22.539,22.539,0,0,0,2.39.326,8.1,8.1,0,0,0,1.021.022c.934-.043,1.869-.13,2.8-.239,1.347-.174,2.672-.435,4-.7,1.347-.261,2.673-.5,4.041-.674a21.661,21.661,0,0,1,2.368-.152c.913-.043,1.8.022,2.694,0a29.038,29.038,0,0,0,3.085-.217,18.56,18.56,0,0,0,3.237-.8c1.391-.478,2.738-1.043,4.085-1.63,1.325-.565,2.629-1.152,3.976-1.63.717-.261,1.456-.5,2.173-.8a2.556,2.556,0,0,1,.435-.152,24,24,0,0,0,2.368-.891,5.015,5.015,0,0,1,.608-.217c.065-.022.13,0,.217-.022a.715.715,0,0,1-.239.435c-.152.174-.326.326-.478.478a1.01,1.01,0,0,0-.3.5.109.109,0,0,0,.152.022c.152-.109.3-.239.456-.348a10.553,10.553,0,0,1,1.282-.913,1.815,1.815,0,0,0,.261-.174,6.16,6.16,0,0,1,1.412-.826c.435-.217.891-.413,1.325-.608a9.642,9.642,0,0,1,1.869-.543,12.683,12.683,0,0,1,1.586-.239,13.615,13.615,0,0,1,2.977.065,14.7,14.7,0,0,1,2.368.456,6.372,6.372,0,0,1,1.391.543,4.941,4.941,0,0,1,.7.478,1.23,1.23,0,0,1,.413.521c.13.261.2.3.521.261a2.765,2.765,0,0,1,1.2.065,7.491,7.491,0,0,1,.913.3c.369.174.739.369,1.108.565.456.261.891.543,1.347.8.217.13.456.239.7.369.109.065.217.087.261.239a3.262,3.262,0,0,0-.782.934.407.407,0,0,0-.043.326.832.832,0,0,0,.608.087,1.42,1.42,0,0,0,.891-.543c.13-.174.261-.369.413-.543a4.081,4.081,0,0,1,.521-.543,1,1,0,0,1,.391-.217.55.55,0,0,1,.739.456,3.211,3.211,0,0,1,.022.456c0,.282-.022.565-.022.847a1.157,1.157,0,0,0,.13.521.257.257,0,0,0,.435.087.455.455,0,0,0,.087-.13.993.993,0,0,1,.413.282c.369.348.739.7,1.108,1.065.2.2.369.413.543.608a3.082,3.082,0,0,1,.63,1.347,16.626,16.626,0,0,1,.369,2.281c.022.326.043.63.065.956v.326a.264.264,0,0,1-.369.282,1.055,1.055,0,0,1-.717-.5c-.043-.065-.087-.13-.174-.087a.485.485,0,0,0-.065.3c.022.152.043.282.065.413,0,.065.022.109.022.174a.451.451,0,0,1-.652.478,1.212,1.212,0,0,1-.435-.3,5.534,5.534,0,0,1-.565-.652c-.152-.2-.282-.413-.435-.608a3.777,3.777,0,0,0-.282-.326.6.6,0,0,0-.717-.109,1.328,1.328,0,0,0,.782,1.716c.217.087.456.13.674.217a2.355,2.355,0,0,1,.413.174.523.523,0,0,1,.174.13.269.269,0,0,1,.087.326.263.263,0,0,1-.261.152,1.092,1.092,0,0,1-.8-.261,8.848,8.848,0,0,1-.934-.869,6.512,6.512,0,0,0-1.5-1.282c-.3-.2-.63-.391-.934-.587a2.829,2.829,0,0,1-.5-.391.768.768,0,0,1-.174-.978c.087-.174.174-.326.261-.5a1.771,1.771,0,0,0,.217-.652c-.065.109-.109.152-.13.2a1.506,1.506,0,0,1-.63.739,5.2,5.2,0,0,1-.456.282.853.853,0,0,0-.391.391,1.308,1.308,0,0,1-.2.282.537.537,0,0,1-.521.217,1.124,1.124,0,0,1-.934-.782,4.471,4.471,0,0,1-.065-.565c-.022-.13-.022-.282-.043-.413a.276.276,0,0,0-.087-.152.749.749,0,0,0-.3.456,1.646,1.646,0,0,0-.022.565c.043.174.087.369.13.565a.322.322,0,0,1-.152-.022,1.247,1.247,0,0,1-.478-.413,2.6,2.6,0,0,1-.5-1.521,5.753,5.753,0,0,1,.413-2.086,1.226,1.226,0,0,0,.087-.261v-.109c-.087-.043-.13.043-.174.087a3.458,3.458,0,0,0-.608,1.2c-.022.109-.065.217-.087.326-.152,0-.2-.065-.217-.2-.022-.282-.065-.565-.109-.847a2.262,2.262,0,0,0-.109-.261c-.043.087-.109.13-.109.2-.043.326-.087.652-.152.978-.043.239-.087.456-.152.7a2.039,2.039,0,0,1-.13.326c-.2.391-.282.435-.7.326a6.116,6.116,0,0,0-1.412-.152.611.611,0,0,0-.174.022c.043.065.065.109.109.109a1.88,1.88,0,0,0,.369.152c.109.043.239.109.348.152.043.022.043.065.109.13-.109.022-.174.022-.239.043l-1,.065a1.631,1.631,0,0,0-.674.174l.174.087c.217.022.456.022.674.043a5.941,5.941,0,0,1,1.086.13,1.281,1.281,0,0,1,.174.087c-.109.065-.2.109-.3.174a.828.828,0,0,0,.478.152c.391.065.8.109,1.2.152a10.893,10.893,0,0,1,1.434.217,4.064,4.064,0,0,1,.869.282,1.5,1.5,0,0,0,.174.065,14.43,14.43,0,0,1,2.412,1.152,2.387,2.387,0,0,1,.3.2,17.651,17.651,0,0,1,1.738,1.347,2.248,2.248,0,0,1,.521.674,6.023,6.023,0,0,1,.674,1.934,1.243,1.243,0,0,1-.022.565.68.68,0,0,1-.109.217.356.356,0,0,1-.608-.022,2.417,2.417,0,0,1-.152-.348.676.676,0,0,0-.261-.348,1.283,1.283,0,0,0,0,.5.916.916,0,0,1-.369.739.625.625,0,0,1-.435.109.255.255,0,0,1-.239-.217c-.022-.065,0-.109-.022-.174-.022-.174-.022-.174-.261-.348-.022.087-.065.174-.087.261l-.065.2c-.13.282-.369.3-.543.065a5.059,5.059,0,0,1-.435-.739c-.043-.087-.087-.2-.13-.3-.065-.13-.109-.261-.174-.391a.767.767,0,0,0-.5-.435,1.7,1.7,0,0,0-.3-.109.992.992,0,0,1-.565-.543c-.065-.13-.109-.261-.174-.391a.363.363,0,0,0-.369-.217c-.152.022-.282.022-.435.043a1.056,1.056,0,0,1-.63-.109,6.365,6.365,0,0,0-1.412-.478c-.674-.174-1.325-.369-1.977-.565-.217-.065-.435-.13-.652-.174a12.033,12.033,0,0,1-1.26-.369,1.835,1.835,0,0,0-.369-.109,6.9,6.9,0,0,1-.891-.261c-1.043-.369-2.108-.739-3.151-1.108a3.465,3.465,0,0,1-.587-.261.688.688,0,0,1-.369-.782,2.482,2.482,0,0,1,.2-.565,4.725,4.725,0,0,1,.934-1.325c.217-.217.456-.435.674-.652a1.589,1.589,0,0,0,.3-.348.612.612,0,0,1-.174.022,3.27,3.27,0,0,1-.7.239c0-.065-.022-.13,0-.174a4.063,4.063,0,0,1,.152-.478,4.715,4.715,0,0,1,.869-1.3c.348-.369.674-.739,1-1.108a2.866,2.866,0,0,0,.261-.348.864.864,0,0,0-.239,0,4.756,4.756,0,0,0-1.564.76,5.879,5.879,0,0,0-1.543,1.651c-.261.435-.478.891-.717,1.347a.613.613,0,0,0-.087.326c.109.109.239,0,.348.043.065.065.022.13-.022.2-.109.174-.217.326-.348.5-.2.282-.413.565-.587.847a1.5,1.5,0,0,0-.261.847v.065a.717.717,0,0,0,.543.782,3.783,3.783,0,0,0,.478.109,2.794,2.794,0,0,1,.413.087c.13.043.239.087.348.13a.181.181,0,0,1-.065.239,1.5,1.5,0,0,1-.326.152c-.7.217-1.391.413-2.064.63a9.59,9.59,0,0,1-2.086.413c-1.152.109-2.3.152-3.455.217-.565.022-1.108.087-1.673.109-.543.022-1.086.043-1.63.043-.826.022-1.63.087-2.455.174-.435.043-.847.087-1.26.152a15.411,15.411,0,0,0-1.977.478,5.784,5.784,0,0,0-1.325.652,21.063,21.063,0,0,0-2.173,1.564c-1.412,1.173-2.825,2.347-4.259,3.52-.326.261-.652.5-1,.739-1.347.869-2.781,1.63-4.215,2.368-.109.043-.217.109-.326.152-2.021.847-3.933,1.89-5.867,2.89a6.99,6.99,0,0,0-1.477,1.043,17.4,17.4,0,0,0-2.195,2.368c-1.043,1.3-2.086,2.607-3.151,3.911-.282.348-.565.7-.869,1.021a5.061,5.061,0,0,1-1.108.934,2.321,2.321,0,0,1-1,.369.993.993,0,0,1-.565-.043,1.092,1.092,0,0,1-.261-.174.307.307,0,0,1,.022-.478,1.311,1.311,0,0,0,.174-.174A.854.854,0,0,1,151.1,45.306Zm34.113-22.249a1.649,1.649,0,0,0,.652-.022c.587-.109,1.2-.239,1.782-.348a20.638,20.638,0,0,1,2.325-.326c.8-.087,1.608-.174,2.39-.282a4.464,4.464,0,0,0,1.391-.413,2.468,2.468,0,0,0,1.282-1.325c.217-.543.413-1.108.608-1.673a.67.67,0,0,0,.022-.217.881.881,0,0,0-.217.065c-.174.109-.369.217-.543.348-.239.174-.456.348-.674.521a7.636,7.636,0,0,1-2.3,1.152c-1.2.369-2.39.76-3.585,1.152-.782.261-1.543.521-2.3.847-.239.109-.478.261-.717.391C185.237,22.927,185.194,22.948,185.215,23.057ZM182.3,15.822a1.549,1.549,0,0,0-.565.152c-.456.2-.934.413-1.391.63a9.552,9.552,0,0,1-1.651.63c-.2.043-.413.13-.608.2a1.733,1.733,0,0,0-.348.174.672.672,0,0,0-.326.739,2.036,2.036,0,0,0,.087.348,1.446,1.446,0,0,1-.022.8c-.065.217-.174.413-.261.63-.065.152-.152.282-.217.435a1.311,1.311,0,0,0-.13.413c-.065.3.109.456.413.369.043-.022.087-.022.13-.043a1.086,1.086,0,0,0,.521-.413,10.078,10.078,0,0,0,.543-.913,7.794,7.794,0,0,1,1.934-2.434c.174-.152.348-.3.543-.456L182,16.235A1.2,1.2,0,0,0,182.3,15.822Zm-6.562,7.062a1.347,1.347,0,0,0-.956.369,3.528,3.528,0,0,0-.652.847,9.311,9.311,0,0,0-.565,1.26c-.152.391-.282.782-.435,1.173a7.5,7.5,0,0,1-.826,1.608l-1.043,1.434c-.087.13-.174.261-.261.369-.022.043-.065.087,0,.13a1.289,1.289,0,0,1,.174-.087c.174-.152.369-.3.543-.456a17.191,17.191,0,0,0,3.151-3.824c.109-.2.239-.369.348-.587.217-.435.435-.891.652-1.347A.843.843,0,0,0,175.742,22.883ZM165.378,29.01a1.96,1.96,0,0,1-.2.217.376.376,0,0,0,.543.109c.413-.217.826-.413,1.238-.608a10.242,10.242,0,0,0,2.977-2.216,2.007,2.007,0,0,0,.369-.478,1.5,1.5,0,0,0,.065-.174.641.641,0,0,0-.326.109c-.326.174-.674.369-1,.543a1.508,1.508,0,0,1-1.065.152l-.521-.13a1.1,1.1,0,0,0-1.13.326,3.028,3.028,0,0,0-.326.413,6.372,6.372,0,0,0-.456.847A1.281,1.281,0,0,0,165.378,29.01Zm34.96-14.97c-.043-.022-.065-.065-.109-.087a1.337,1.337,0,0,0-.63-.2,2.824,2.824,0,0,0-1.456.282,2.632,2.632,0,0,0-.76.521,3.6,3.6,0,0,0-.782,1.3,2.644,2.644,0,0,0-.152.826,1.419,1.419,0,0,0,.043.239,1.733,1.733,0,0,0,.13-.174c.13-.2.282-.413.413-.63a1.678,1.678,0,0,1,.369-.413c.326-.261.674-.521,1-.8a2.785,2.785,0,0,1,.978-.5,5.073,5.073,0,0,1,.543-.152A.945.945,0,0,0,200.338,14.04Zm16.926,7.474a.587.587,0,0,0,.63-.261,1.676,1.676,0,0,0,.174-.413,2.914,2.914,0,0,0,.022-1.065,1.617,1.617,0,0,0-1.282-1.391c-.043-.022-.109,0-.152,0a.666.666,0,0,0,.087.369,3.915,3.915,0,0,1,.174.456,2.176,2.176,0,0,0,.587,1.043.743.743,0,0,1,.2.63.417.417,0,0,1-.2.391A.255.255,0,0,0,217.264,21.514Zm-2.173-7.54a1.061,1.061,0,0,0-.717.391,6.848,6.848,0,0,1-.76.826v.043c.043.087.109.087.2.087h.782c.043,0,.087-.022.13-.022a.473.473,0,0,0,.087-.369,1.313,1.313,0,0,1,.217-.7A.759.759,0,0,0,215.091,13.975Z" transform="translate(-144.337 -8.789)"/><path class="a" d="M319.979,55.35c-.022-.109.022-.152.065-.174l.717-.391a20.807,20.807,0,0,1,2.3-.847c1.2-.391,2.39-.782,3.585-1.152a7.394,7.394,0,0,0,2.3-1.152c.217-.174.456-.348.674-.521a4.622,4.622,0,0,1,.543-.348.637.637,0,0,1,.217-.065.605.605,0,0,1-.022.217c-.2.565-.391,1.108-.608,1.673a2.4,2.4,0,0,1-1.282,1.325,4.464,4.464,0,0,1-1.391.413c-.8.109-1.608.2-2.39.282s-1.564.174-2.325.326c-.587.109-1.2.239-1.782.348A.954.954,0,0,1,319.979,55.35Z" transform="translate(-279.101 -41.082)"/><path class="a" d="M286.9,38.8a.69.69,0,0,1-.326.369l-1.043.847c-.174.152-.369.3-.543.456a7.794,7.794,0,0,0-1.934,2.434,7.768,7.768,0,0,1-.543.913,1.086,1.086,0,0,1-.521.413.309.309,0,0,1-.13.043c-.3.087-.478-.065-.413-.369a3.015,3.015,0,0,1,.13-.413c.065-.152.152-.3.217-.435a5.455,5.455,0,0,0,.261-.63,1.447,1.447,0,0,0,.022-.8c-.022-.109-.065-.239-.087-.348a.685.685,0,0,1,.326-.739,1.733,1.733,0,0,1,.348-.174,2.844,2.844,0,0,1,.608-.2,8.37,8.37,0,0,0,1.651-.63c.456-.217.913-.435,1.391-.63A4.689,4.689,0,0,1,286.9,38.8Z" transform="translate(-248.938 -31.767)"/><path class="a" d="M259.213,71.293a.8.8,0,0,1,.13.891c-.2.456-.413.891-.652,1.347-.109.2-.239.391-.348.587a16.713,16.713,0,0,1-3.151,3.824c-.174.152-.369.3-.543.456a.436.436,0,0,1-.174.087.079.079,0,0,1,0-.13c.087-.13.174-.261.261-.369l1.043-1.434a7.5,7.5,0,0,0,.826-1.608c.152-.391.282-.782.435-1.173a13.1,13.1,0,0,1,.565-1.26,3.049,3.049,0,0,1,.652-.847A1.261,1.261,0,0,1,259.213,71.293Z" transform="translate(-227.808 -57.198)"/><path class="a" d="M228.074,88.151a1.167,1.167,0,0,1,.2-.891l.456-.847a3.029,3.029,0,0,1,.326-.413,1.023,1.023,0,0,1,1.13-.326l.521.13a1.312,1.312,0,0,0,1.065-.152c.326-.174.674-.369,1-.543a.641.641,0,0,1,.326-.109c-.022.065-.022.13-.065.174-.13.152-.239.326-.369.478a11.084,11.084,0,0,1-2.977,2.216c-.413.2-.826.413-1.239.608a.387.387,0,0,1-.543-.109A1.252,1.252,0,0,1,228.074,88.151Z" transform="translate(-207.033 -67.929)"/><path class="a" d="M375.646,29.493a.744.744,0,0,1-.391.2,5.07,5.07,0,0,1-.543.152,2.983,2.983,0,0,0-.978.5c-.326.261-.674.521-1,.8a1.333,1.333,0,0,0-.369.413c-.13.217-.282.413-.413.63a1.726,1.726,0,0,1-.13.174c-.022-.109-.065-.174-.043-.239a2.644,2.644,0,0,1,.152-.826,4.012,4.012,0,0,1,.782-1.3,2.265,2.265,0,0,1,.76-.521,3.013,3.013,0,0,1,1.456-.282,1.531,1.531,0,0,1,.63.2A.381.381,0,0,0,375.646,29.493Z" transform="translate(-319.645 -24.241)"/><path class="a" d="M465.215,53.651a.341.341,0,0,1,.217-.261.4.4,0,0,0,.2-.391.818.818,0,0,0-.2-.63,2.175,2.175,0,0,1-.587-1.043c-.043-.152-.13-.3-.174-.456a.665.665,0,0,1-.087-.369h.152a1.641,1.641,0,0,1,1.282,1.391A2.207,2.207,0,0,1,466,52.955a1.184,1.184,0,0,1-.174.413A.555.555,0,0,1,465.215,53.651Z" transform="translate(-392.288 -40.925)"/><path class="a" d="M452.178,30.3c-.022.109-.022.217-.065.261a1.376,1.376,0,0,0-.217.7c-.022.13,0,.261-.087.369-.043,0-.087.022-.13.022H450.9c-.087,0-.174,0-.2-.087v-.043a6.856,6.856,0,0,0,.76-.826A.984.984,0,0,1,452.178,30.3Z" transform="translate(-381.424 -25.114)"/></g></g></g></svg>