<svg xmlns="http://www.w3.org/2000/svg" width="452.466" height="160.644" viewBox="0 0 452.466 160.644"><defs><style>.a{fill:#fff;}.b{fill:#f29b38;}</style></defs><g transform="translate(0 75.619)"><path class="a" d="M451.125,132.318c-1.533-.27-13.071-.361-20.373-.18-.36,0-.631.09-1.082.09-.18,1.893-.09,3.7-.09,5.5V159.9c-.361.09-.631.09-.9.18H398.931a4.4,4.4,0,0,1-.361-.992c-.9-3.335-1.8-6.761-2.614-10.1-.18-.541-.27-.992-.451-1.623-.27,0-.631-.09-.9-.09H373.96a1.761,1.761,0,0,0-.631.09c-.09.27-.27.631-.36.9-.992,3.516-1.893,7.122-2.885,10.727-.09.361-.27.721-.361,1.082-.451,0-.811.09-1.262.09h-18.39c-.451,0-.721-.18-.721-.721-1.442.27-2.794.451-4.147.721a77.083,77.083,0,0,1-18.21.721,33,33,0,0,1-10.186-2.434,26.82,26.82,0,0,1-14.423-13.7,14.3,14.3,0,0,1-.721-1.623c-.18.27-.361.451-.541.721a35.966,35.966,0,0,1-3.065,5.5,25.962,25.962,0,0,1-14.423,10.006,43.653,43.653,0,0,1-14.874,1.623,46.286,46.286,0,0,1-10.006-1.533A27.276,27.276,0,0,1,241,144.217c-.09-.18-.18-.451-.27-.631q0-.135-.27-.27c-.18.451-.451.811-.631,1.172a26.763,26.763,0,0,1-3.786,6.13,26.4,26.4,0,0,1-13.522,8.834,45.2,45.2,0,0,1-14.784,1.623,45.919,45.919,0,0,1-10.457-1.623,12.867,12.867,0,0,1-1.983-.721c-.18-.361,0-.541.18-.721.721-.631,1.352-1.262,2.073-1.893,3.155-2.794,6.22-5.589,9.375-8.384a15.66,15.66,0,0,0,1.352-1.172,3.173,3.173,0,0,1,2.614-1.082,9.548,9.548,0,0,0,3.516-.541,10.844,10.844,0,0,0,6.22-4.688,13.657,13.657,0,0,0,1.893-4.417,3,3,0,0,1,1.532-2.073,21.306,21.306,0,0,1,7.753-3.426c3.065-.631,6.04-1.713,9.1-2.614a117.013,117.013,0,0,0,15.054-5.679c.361-.18.721-.27,1.082-.451a1.13,1.13,0,0,1,.27.992c0,2.073-.09,4.237,0,6.31a26.04,26.04,0,0,0,1.172,6.941,16.255,16.255,0,0,0,1.442,3.426,11.168,11.168,0,0,0,9.195,6.13,18.157,18.157,0,0,0,5.409-.18,11.2,11.2,0,0,0,7.662-5.5,21.486,21.486,0,0,0,2.073-5.679,45.123,45.123,0,0,0,.721-9.826A35.827,35.827,0,0,0,284,116a22.918,22.918,0,0,0-1.532-4.147,11.862,11.862,0,0,0-5.048-5.048,3.652,3.652,0,0,1-.811-.451,3.918,3.918,0,0,1,.541-.631c2.073-1.983,4.147-4.057,6.31-6.04,1.352-1.262,2.7-2.524,4.056-3.7.631-.631,1.352-1.082,1.983-1.623a22.964,22.964,0,0,1,7.572,5.859,29.641,29.641,0,0,1,4.868,8.384,1.89,1.89,0,0,0,.541-.721,28.2,28.2,0,0,1,3.245-5.228,29.623,29.623,0,0,1,15.325-10.367,43.8,43.8,0,0,1,10.727-1.8,59.989,59.989,0,0,1,10.637.361,55.519,55.519,0,0,1,13.7,3.426l1.082.541c-1.983,4.778-3.876,9.555-5.769,14.333a6.842,6.842,0,0,0-.991-.361,35.917,35.917,0,0,0-15.956-3.245,16.231,16.231,0,0,0-6.22,1.172,14.457,14.457,0,0,0-7.3,6.4,20.475,20.475,0,0,0-2.524,7.933,34.339,34.339,0,0,0,.271,11.358,18.916,18.916,0,0,0,2.163,6.22,13.217,13.217,0,0,0,10.006,6.851,29.934,29.934,0,0,0,9.826-.451c.18,0,.361-.18.631-.27a12.691,12.691,0,0,0,.09-2.614v-7.662c-.451-.451-.9-.27-1.352-.27H329.338a2.793,2.793,0,0,1-.18-.721V120.509c0-.18.09-.27.09-.541.27,0,.631-.09.992-.09h26.683a8.25,8.25,0,0,1,1.532.09c.451.541.27.992.27,1.533v8.564a5.951,5.951,0,0,0,.09,1.262c.451,0,.361-.27.451-.451a1.282,1.282,0,0,0,.18-.541c1.713-5.228,3.335-10.367,5.048-15.6,2.344-7.3,4.778-14.694,7.122-22l.541-1.352c1.262-.18,15.866-.27,18.39-.09.09.09.18.09.271.18a6.235,6.235,0,0,1,2.164,3.606,4.141,4.141,0,0,0,.631,1.442,3,3,0,0,0,2.073,1.533c.631.09,1.352.18,2.073.27a8.246,8.246,0,0,0,1.532.09c.18.631.451,1.172.631,1.8,3.606,10.908,7.122,21.815,10.727,32.633a4.488,4.488,0,0,0,.811,1.8c0-.721.09-1.172.09-1.713V98.423c0-.361-.09-.721.361-.9.361-.09.451.27.721.451.451.541.992,1.172,1.442,1.623a18.07,18.07,0,0,0,1.442,1.262,4.757,4.757,0,0,0,4.237.811c.541-.18,1.172-.27,1.713-.451a9.608,9.608,0,0,1,2.7-.541,7.669,7.669,0,0,0,2.795-.811c.721-.27,1.442-.541,2.254-.811a3,3,0,0,1,.9,0,36.5,36.5,0,0,1,.09,4.417v13.161c.451.451.992.27,1.442.27H450.4a6.385,6.385,0,0,0,1.262-.09,18.466,18.466,0,0,0,.09-3.155V91.843c.541-.451,1.082-.27,1.623-.27H468.7a9.266,9.266,0,0,1,1.532.09,3.382,3.382,0,0,1,.09.9v67.429a2.7,2.7,0,0,1-1.623.27H453.018c-.361,0-.811-.09-1.172-.09a3.356,3.356,0,0,1-.18-1.623V134.211A2.916,2.916,0,0,1,451.125,132.318Zm-59.676-.451c-.811-3.245-1.623-6.4-2.524-9.646-.811-3.155-1.713-6.22-2.434-9.375-.811-3.155-1.533-6.31-2.344-9.826-.18.631-.271.9-.361,1.262-.721,3.335-1.442,6.761-2.254,10.1-1.352,5.319-2.7,10.637-4.147,15.956a4.577,4.577,0,0,0-.27,1.532C378.287,132.048,389.736,132.048,391.449,131.867Z" transform="translate(-17.86 -90.326)"/><path class="a" d="M129.2,141.17c.451-3.516.631-7.031.992-10.547a37.785,37.785,0,0,0-5.589.18c-1.8.09-3.606.09-5.409.18-.27-.9-.27-.9.09-2.163a24.076,24.076,0,0,1,3.606,0h3.516a26.532,26.532,0,0,0,3.786,0c.361-1.893.361-3.7.541-5.589.18-1.8.361-3.606.451-5.409a1.435,1.435,0,0,0-1.172-.27c-2.885.09-5.679.27-8.564.361h-1.262a14.834,14.834,0,0,1,.27-4.327c.361,0,.721-.09,1.082-.09,2.7.09,5.409.18,8.113.18h1.713a25.9,25.9,0,0,0,.631-5.228,33.224,33.224,0,0,0,.36-5.228c-1.893,0-3.7.18-5.5.18s-3.606.361-5.319.18c-.09-.09-.18-.09-.18-.18v-.18c.27-3.516.541-7.031.9-10.547a5.4,5.4,0,0,1,.18-1.082c.27,0,.541-.09.811-.09h16.677a3.381,3.381,0,0,1,.9.09,3.356,3.356,0,0,1,.18,1.623v26.142a9.829,9.829,0,0,0,.09,1.532c6.581-10.006,13.342-19.562,19.832-29.117a1.115,1.115,0,0,0,.27-.18h19.832l.09.09v.09c0,.09,0,.09-.09.18s-.09.18-.18.27l-.09.09c-.09.09-.09.18-.18.27l-20.553,29.207-.09.09a.088.088,0,0,1-.09.09c0,.09,0,.09-.09.18a2.963,2.963,0,0,0,.631,1.442c2.885,5.228,5.859,10.367,8.744,15.6.27.451.541.9.811,1.442a18.218,18.218,0,0,1-3.335,3.606,9.161,9.161,0,0,1-3.245,1.623c-.992.27-1.983.541-2.975.9a12.461,12.461,0,0,0-5.138,2.795,1.971,1.971,0,0,1-.451.27c-.451-.27-.541-.811-.811-1.172-2.254-4.417-4.6-8.834-6.851-13.251a9,9,0,0,0-.721-1.262c-.18.09-.361.09-.451.18-1.623.992-3.335,1.983-5.048,2.975v32.272a3.38,3.38,0,0,1-.9.09H116.582c-.361,0-.631-.09-.992-.09,0-.27-.09-.451-.09-.631.451-4.868.811-9.826,1.262-14.694,0-.18.09-.27.18-.451,3.606-.18,7.212.27,10.908.18a14.888,14.888,0,0,0,.451-3.426c.09-1.082.18-2.254.27-3.426a21.257,21.257,0,0,0,.18-3.426,4.037,4.037,0,0,0-2.073,0c-2.614.18-5.228.361-7.843.451h-1.172c0-.27-.09-.361-.09-.541.09-.811.18-1.532.27-2.254a1.856,1.856,0,0,1,1.352-.27c2.795,0,5.5.09,8.293.09Z" transform="translate(-10.944 -90.434)"/><path class="a" d="M176.188,140.062c-.27-.9-.451-1.532-.631-2.254a49.611,49.611,0,0,1-1.262-9.646,56.137,56.137,0,0,1,.361-9.555,39.9,39.9,0,0,1,2.7-10.727,26.919,26.919,0,0,1,17.759-15.866,44.451,44.451,0,0,1,15.054-1.623c1.713.09,3.335.27,4.958.451a15.913,15.913,0,0,1,1.8.361c0,.27,0,.451-.09.541a52.429,52.429,0,0,1-9.555,13.071,3.115,3.115,0,0,1-1.893.9,13.333,13.333,0,0,0-3.245.9,10.6,10.6,0,0,0-5.679,5.5,4.837,4.837,0,0,1-1.532,1.8,16.738,16.738,0,0,0-4.958,5.409c-1.352,2.164-2.7,4.327-3.966,6.581-.811,1.352-1.623,2.7-2.524,3.966s-1.713,2.524-2.524,3.786c-1.262,1.893-2.614,3.7-3.876,5.589A2.558,2.558,0,0,0,176.188,140.062Z" transform="translate(-16.586 -90.318)"/><path class="a" d="M-.01,127.459H.711c5.589-.27,11.178-.451,16.857-.721,5.5-.27,11-.541,16.5-.721,3.155-.18,6.4-.27,9.555-.361,3.516-.18,6.941-.27,10.457-.451,2.524-.09,5.048-.27,7.482-.361,5.679-.27,11.268-.451,16.947-.721,5.589-.27,11.088-.541,16.677-.721,3.155-.18,6.31-.27,9.465-.361,3.516-.18,7.122-.361,10.637-.451a12.637,12.637,0,0,1,2.614,0c-.09,2.614-.361,5.048-.631,7.482-.18.09-.18.09-.27.09-.18,0-.27.09-.451.09L1.523,127.82c-.541,0-1.082-.09-1.623-.09C-.01,127.549-.01,127.549-.01,127.459Z" transform="translate(0.1 -93.49)"/><path class="a" d="M118.346,136.8c-.18,2.434-.361,4.688-.631,6.941a1.522,1.522,0,0,1-.451.18c-33.985-.721-67.88-1.442-101.865-2.254,1.442-.09,2.975-.27,4.417-.361,5.319-.27,10.637-.451,15.956-.721s10.637-.541,15.956-.721c2.434-.09,4.778-.27,7.212-.361,5.319-.27,10.727-.451,16.046-.721,5.228-.27,10.457-.541,15.6-.721,3.065-.18,6.13-.27,9.1-.361,3.245-.18,6.49-.27,9.736-.451,2.614-.09,5.228-.27,7.843-.361A4.039,4.039,0,0,1,118.346,136.8Z" transform="translate(-1.427 -94.898)"/><path class="a" d="M31.59,111.1l2.434-.27c6.941-.361,13.973-.631,20.914-.992,6.04-.27,11.989-.631,18.029-.9,5.859-.27,11.809-.541,17.669-.9,6.761-.361,13.522-.721,20.373-1.082,3.426-.18,6.761-.27,10.186-.451a4.762,4.762,0,0,1,1.082.09c-.18,2.254-.27,4.417-.631,6.581-.18.09-.27.18-.361.18C91.357,112.63,61.428,112,31.5,111.278A.279.279,0,0,0,31.59,111.1Z" transform="translate(-3.014 -91.912)"/><path class="a" d="M120.95,151.4c-.18,2.163-.27,4.327-.631,6.4-.451.361-.9.18-1.352.18-3.7-.09-7.392-.18-11.088-.361-4.057-.09-8.2-.27-12.26-.451-4.6-.18-9.195-.271-13.7-.361-7.843-.27-15.776-.541-23.618-.721-1.8-.09-3.516-.09-5.5-.18C54.332,155.457,119.147,151.4,120.95,151.4Z" transform="translate(-5.113 -96.337)"/><g transform="translate(291.737 72.44)"><path class="a" d="M354.128,177.02a9.614,9.614,0,0,1-.541,2.795,4.9,4.9,0,0,1-3.516,3.245,8.112,8.112,0,0,1-3.606,0,4.953,4.953,0,0,1-3.426-2.975,8.984,8.984,0,0,1-.09-5.95,4.588,4.588,0,0,1,3.336-3.065,7.4,7.4,0,0,1,3.966,0,4.748,4.748,0,0,1,3.426,3.335C353.857,175.127,353.947,176.119,354.128,177.02Zm-2.795.27a11.56,11.56,0,0,1-.09-1.622,1.454,1.454,0,0,0-.27-.811,2.633,2.633,0,0,0-2.7-1.893,2.67,2.67,0,0,0-2.794,1.8,6.717,6.717,0,0,0,0,4.6,2.6,2.6,0,0,0,2.794,1.713,2.523,2.523,0,0,0,2.614-1.8A11.769,11.769,0,0,0,351.333,177.29Z" transform="translate(-324.109 -170.688)"/><path class="a" d="M375.491,178.458c-.721-.09-1.352-.09-2.073-.18a3.392,3.392,0,0,1-.09-1.893,14.749,14.749,0,0,1,4.507-.09,23.9,23.9,0,0,1,0,6.22,11.4,11.4,0,0,1-5.5.541A4.757,4.757,0,0,1,368.279,179a10.369,10.369,0,0,1-.09-3.335,5.274,5.274,0,0,1,4.057-4.6,8.277,8.277,0,0,1,5.679.451,4.638,4.638,0,0,1-.811,1.983c-.451-.09-.811-.27-1.262-.361-2.975-.721-5.138.811-5.138,3.966a6.865,6.865,0,0,0,.27,1.893,2.718,2.718,0,0,0,2.7,2.163,11.046,11.046,0,0,0,1.713-.18A5.969,5.969,0,0,0,375.491,178.458Z" transform="translate(-326.632 -170.684)"/><path class="a" d="M416.848,171.7a4.122,4.122,0,0,1-.811,1.8,8.442,8.442,0,0,0-1.442-.361,9.929,9.929,0,0,0-1.623-.18,1.1,1.1,0,0,0-1.172.9,1.154,1.154,0,0,0,.541,1.262c.451.27.9.541,1.442.811a14.357,14.357,0,0,1,1.983,1.172,2.819,2.819,0,0,1,1.172,2.254,3.429,3.429,0,0,1-2.434,3.606,6.977,6.977,0,0,1-5.319-.541,4.39,4.39,0,0,1,0-2.164c.361.09.721.27.992.361a15.7,15.7,0,0,0,1.983.451,2.674,2.674,0,0,0,1.442-.18,1.085,1.085,0,0,0,.451-1.8,2.812,2.812,0,0,0-.811-.631c-.451-.27-.992-.451-1.442-.721s-.9-.451-1.262-.721a3.293,3.293,0,0,1-1.262-3.786,3.393,3.393,0,0,1,2.885-2.344A6.822,6.822,0,0,1,416.848,171.7Z" transform="translate(-330.668 -170.686)"/><path class="a" d="M491.3,182.426v-2.163c.361.09.631.09.9.18a18.985,18.985,0,0,0,2.164.541,3.9,3.9,0,0,0,1.442-.09,1.128,1.128,0,0,0,.451-1.893,9.123,9.123,0,0,0-1.172-.811,15.429,15.429,0,0,1-2.073-1.172,3.308,3.308,0,0,1-1.532-2.524,3.136,3.136,0,0,1,2.885-3.606,6.788,6.788,0,0,1,4.6.721,3.853,3.853,0,0,1-.541,1.8c-.541.27-.9-.18-1.262-.18a13.441,13.441,0,0,0-1.893-.18,1.1,1.1,0,0,0-1.172.9,1.154,1.154,0,0,0,.541,1.262c.361.27.811.451,1.262.721.631.361,1.352.721,1.893,1.082a3.093,3.093,0,0,1,1.352,3.335,3.179,3.179,0,0,1-2.434,2.614,7.587,7.587,0,0,1-4.687-.18A2.7,2.7,0,0,1,491.3,182.426Z" transform="translate(-338.774 -170.686)"/><path class="a" d="M477.44,180.524v1.983a7.528,7.528,0,0,1-6.04,0,4.325,4.325,0,0,1-2.254-2.614,9.4,9.4,0,0,1-.09-5.679,4.95,4.95,0,0,1,4.778-3.516,6.584,6.584,0,0,1,3.876.811,4.437,4.437,0,0,1-.721,1.983,2.629,2.629,0,0,0-.811-.18l-.811-.27a2.881,2.881,0,0,0-3.876,2.164,8.113,8.113,0,0,0,0,3.606,2.663,2.663,0,0,0,2.885,2.163,13.681,13.681,0,0,0,1.893-.27A5.272,5.272,0,0,0,477.44,180.524Z" transform="translate(-336.543 -170.676)"/><path class="a" d="M435.455,182.981c-.451,0-.721.09-1.082.09h-1.352a5.4,5.4,0,0,1-.18-1.082v-7.212a9.257,9.257,0,0,0-.09-1.532c-1.082-.361-2.073,0-3.065-.27a3.38,3.38,0,0,1,0-1.893,58.943,58.943,0,0,1,8.925,0,3.378,3.378,0,0,1,0,1.893c-.992.361-2.073,0-3.155.361a43.865,43.865,0,0,0-.09,4.868C435.455,179.645,435.455,181.268,435.455,182.981Z" transform="translate(-332.689 -170.699)"/><path class="a" d="M322.1,171.084a6.529,6.529,0,0,1,2.254-.09,1.238,1.238,0,0,1,.361,1.172v7.212a9.27,9.27,0,0,0,.09,1.532,11.011,11.011,0,0,0,2.434.09h2.253a4.664,4.664,0,0,1,.18,1.893,39.078,39.078,0,0,1-7.3.09,18.585,18.585,0,0,1-.09-3.876V175.23A31.894,31.894,0,0,1,322.1,171.084Z" transform="translate(-322.1 -170.702)"/><path class="a" d="M395.514,182.977H393.08a2.122,2.122,0,0,1-.18-.721V171.619c0-.18.09-.361.09-.631a10.214,10.214,0,0,1,2.344-.09,1.758,1.758,0,0,1,.09.631C395.514,175.315,395.514,179.011,395.514,182.977Z" transform="translate(-329.077 -170.696)"/><path class="a" d="M452.59,170.993a10.159,10.159,0,0,1,2.344,0,2.29,2.29,0,0,1,.18.631v11.268a5.556,5.556,0,0,1-2.434.09,2.126,2.126,0,0,1-.18-.721V171.8C452.5,171.534,452.59,171.353,452.59,170.993Z" transform="translate(-334.95 -170.701)"/></g></g><g transform="translate(120.246 0)"><path class="a" d="M232.589,57.606a11.333,11.333,0,0,0-4.057-1.082,77.219,77.219,0,0,0-12.079-.18c-2.795.09-5.5.27-8.293.541-2.614.18-5.228.451-7.753.721-1.352.09-2.614.18-3.966.361-1.713.18-3.425.541-5.138.721-2.164.27-4.327.541-6.491.721-3.7.361-7.482.721-11.178.721a60.9,60.9,0,0,1-12.8-1.082,40.936,40.936,0,0,1-13.522-5.409,37.338,37.338,0,0,1-7.933-6.13,29.621,29.621,0,0,1-6.13-9.375,15.732,15.732,0,0,1-1.352-7.3,4.914,4.914,0,0,1,.451-1.983A2.063,2.063,0,0,1,134.42,27.5a6.253,6.253,0,0,1,2.524.721,14.933,14.933,0,0,1,4.417,3.426c1.442,1.623,2.795,3.335,4.147,4.958.721.9,1.442,1.893,2.163,2.795a22.433,22.433,0,0,0,6.49,5.5,38.466,38.466,0,0,0,11.989,4.417,74.565,74.565,0,0,0,20.012.811c1.893-.18,3.786-.541,5.679-.631,3.966-.361,7.843-1.352,11.719-2.073,5.859-1.082,11.809-2.254,17.668-3.335,4.507-.811,9.1-1.172,13.612-1.623,2.794-.27,5.5-.27,8.293-.361,4.057-.09,8.2-.361,12.26-.721l4.868-.541a37.26,37.26,0,0,0,8.293-2.073c5.769-1.893,11.449-4.147,17.038-6.581,13.973-6.13,28.306-11.268,42.729-16.316.721-.27,1.442-.541,2.254-.811a23.563,23.563,0,0,0,4.868-2.163,48.4,48.4,0,0,1,14.513-5.319,56.935,56.935,0,0,1,17.488-.811,88.2,88.2,0,0,1,24.52,6.13,130.232,130.232,0,0,1,12.35,6.04c3.966,2.163,7.933,4.417,11.9,6.581.09.09.271.09.361.18a2.988,2.988,0,0,0,3.335.18,35.35,35.35,0,0,1,3.245-1.442,6.97,6.97,0,0,1,5.048-.09,2.858,2.858,0,0,1,1.713,1.352,1.965,1.965,0,0,0,.451.721,2.511,2.511,0,0,1,.451,2.254,12.89,12.89,0,0,0-.09,2.614,2.819,2.819,0,0,0,1.172,2.254c.451.361.9.721,1.532,1.172a5.181,5.181,0,0,0,.361-.631,6,6,0,0,0-.09-3.335,3.542,3.542,0,0,0-1.172-1.893l-.811-.811a.823.823,0,0,1-.18-.992,3.3,3.3,0,0,1,2.434.27,5.021,5.021,0,0,1,2.434,3.155,10.273,10.273,0,0,1,.18,4.057,13.448,13.448,0,0,0-.18,1.893,2.546,2.546,0,0,0,.811,2.163c.721.721,1.442,1.352,2.163,1.983a12,12,0,0,1,2.524,2.7A9.024,9.024,0,0,1,443.8,48.5c.18,1.983.361,3.966.451,5.859.18,3.065.27,6.13.451,9.1a3.206,3.206,0,0,1-1.983,3.426,14.652,14.652,0,0,0-4.417,3.335,10.959,10.959,0,0,1-1.532,1.352,6.717,6.717,0,0,1-2.254,1.172,3.894,3.894,0,0,1-3.7-.451,33.82,33.82,0,0,1-6.4-4.958l-1.893-1.893a8.594,8.594,0,0,0-4.237-2.344c-1.082-.27-2.164-.541-3.335-.721a9.8,9.8,0,0,0-1.623-.09,1.776,1.776,0,0,0-.721.361c.361.27.631.541.9.721a19.409,19.409,0,0,1,4.327,2.7c.721.541,1.532,1.172,2.254,1.713a17.359,17.359,0,0,1,6.4,13.161,6.4,6.4,0,0,1-.631,3.155,2.334,2.334,0,0,1-1.983,1.532,9.936,9.936,0,0,1-1.623.18,9.34,9.34,0,0,0-3.426.992,8.6,8.6,0,0,1-2.7.811,9.216,9.216,0,0,0-2.614.631,3.254,3.254,0,0,1-3.876-1.082,5.922,5.922,0,0,1-1.082-1.532c-.541-.9-.992-1.8-1.532-2.7-.27-.451-.541-.9-.9-1.442a3.247,3.247,0,0,0-.811.451,13.19,13.19,0,0,0-1.442,1.713,5.354,5.354,0,0,1-5.319,2.163,12.217,12.217,0,0,0-1.8-.18c-1.262-.09-2.524-.18-3.786-.361-.631-.09-1.172-.09-1.8-.18a1.44,1.44,0,0,1-1.262-1.082c-.18-.541-.361-.992-.541-1.532A3.208,3.208,0,0,0,387.91,80.5a1.967,1.967,0,0,1-.451-.361,1.778,1.778,0,0,1-.361-2.073,2.774,2.774,0,0,0,.541-1.713,3.618,3.618,0,0,0-1.983-1.082,39.4,39.4,0,0,0-4.417-1.082c-2.524-.451-5.138-.811-7.752-1.082-.9-.09-1.893-.09-2.795-.09a52.64,52.64,0,0,1-8.384-.721c-3.245-.451-6.49-1.352-9.646-1.983a29.033,29.033,0,0,0-8.383-.631c-4.237.361-8.564.631-12.8.9-3.516.18-7.122.27-10.637.361l-13.432.27a52.9,52.9,0,0,0-5.319.451,37.517,37.517,0,0,0-10.817,3.245,44.014,44.014,0,0,0-9.916,6.31c-4.327,3.516-8.293,7.212-12.26,11.088-2.254,2.254-4.417,4.507-6.671,6.671-1.172,1.172-2.434,2.254-3.7,3.426a39.58,39.58,0,0,1-9.736,6.4,128.169,128.169,0,0,1-16.947,6.4c-2.885.9-5.859,1.8-8.834,2.524a17.577,17.577,0,0,0-5.859,2.434,55.7,55.7,0,0,0-4.778,3.245c-4.868,3.876-9.736,7.843-14.423,11.989-3.426,3.065-6.851,6.04-10.277,9.1-2.434,2.254-4.778,4.6-7.122,6.941a36,36,0,0,0-2.434,2.794c-1.623,2.073-3.155,4.147-4.778,6.22a21.88,21.88,0,0,1-4.868,4.688,10.194,10.194,0,0,1-3.516,1.532,3.127,3.127,0,0,1-3.335-1.262,4.253,4.253,0,0,0-2.885-1.893,6.7,6.7,0,0,1-4.057-2.7,6.223,6.223,0,0,1-1.262-5.138,15.345,15.345,0,0,1,1.352-4.057c1.082-1.983,2.164-3.876,3.245-5.769a7.829,7.829,0,0,1,4.6-3.516c.992-.361,1.983-.631,2.975-.9a14.534,14.534,0,0,0,6.851-4.147,78.233,78.233,0,0,0,7.122-9.195l3.786-5.679c.541-.811.992-1.623,1.442-2.434,1.082-1.8,2.073-3.606,3.155-5.319.541-.9,1.082-1.713,1.713-2.614a14.758,14.758,0,0,1,3.786-3.7c1.8-1.172,3.516-2.344,5.228-3.516,1.713-1.262,3.426-2.434,5.048-3.786,5.679-4.688,9.736-10.637,12.981-17.218,1.8-3.7,3.335-7.572,5.048-11.358.992-2.073,1.893-4.237,2.975-6.31a25.025,25.025,0,0,1,2.975-4.6,11.806,11.806,0,0,1,3.516-3.155A.936.936,0,0,0,232.589,57.606ZM159.932,157.938a4.4,4.4,0,0,1-.27.631,2.745,2.745,0,0,1-.721.721c-.631.631-.721,1.082-.09,1.983a2.3,2.3,0,0,0,1.082.721,4.121,4.121,0,0,0,2.344.18,11.539,11.539,0,0,0,4.147-1.532,21,21,0,0,0,4.6-3.876c1.262-1.352,2.434-2.795,3.606-4.237,4.327-5.409,8.654-10.817,13.071-16.226a78.4,78.4,0,0,1,9.1-9.826,32.678,32.678,0,0,1,6.13-4.327c8.023-4.147,16.046-8.474,24.339-11.989a9.1,9.1,0,0,0,1.352-.631A166.7,166.7,0,0,0,246.111,99.7a35.19,35.19,0,0,0,4.147-3.065c5.95-4.868,11.809-9.646,17.669-14.6a109.034,109.034,0,0,1,9.014-6.49,20.815,20.815,0,0,1,5.5-2.7,63.945,63.945,0,0,1,8.2-1.983c1.713-.27,3.516-.451,5.229-.631,3.335-.361,6.761-.631,10.186-.721,2.254-.09,4.507-.09,6.761-.18,2.344-.09,4.6-.361,6.941-.451,4.778-.18,9.555-.451,14.333-.9a39.788,39.788,0,0,0,8.654-1.713c2.885-.9,5.769-1.713,8.564-2.614a9.1,9.1,0,0,0,1.352-.631.751.751,0,0,0,.27-.992c-.451-.18-.9-.361-1.442-.541s-1.172-.18-1.713-.361c-.631-.18-1.352-.27-1.983-.451a2.919,2.919,0,0,1-2.254-3.245v-.27a7,7,0,0,1,1.082-3.516l2.434-3.516c.451-.721.992-1.352,1.442-2.073a.686.686,0,0,0,.09-.811c-.451-.18-.992.27-1.442-.18a2.544,2.544,0,0,1,.361-1.352c.992-1.893,1.893-3.786,2.975-5.589a23.158,23.158,0,0,1,6.4-6.851,19.731,19.731,0,0,1,6.491-3.155,3.586,3.586,0,0,1,.992,0c-.451.541-.721.992-1.082,1.442-1.352,1.532-2.7,3.155-4.147,4.6a19.562,19.562,0,0,0-3.606,5.409,12.775,12.775,0,0,0-.631,1.983c-.09.18,0,.451,0,.721a9.921,9.921,0,0,0,2.885-.992,1.757,1.757,0,0,1,.721-.09,4.04,4.04,0,0,1-1.262,1.442c-.9.9-1.893,1.8-2.795,2.7a19.6,19.6,0,0,0-3.876,5.5,10.3,10.3,0,0,0-.811,2.344,2.751,2.751,0,0,0,1.532,3.245c.811.451,1.623.721,2.434,1.082,4.327,1.532,8.744,3.065,13.071,4.6a24.961,24.961,0,0,0,3.7,1.082,7.617,7.617,0,0,1,1.533.451,26.711,26.711,0,0,0,5.228,1.532c.9.18,1.8.451,2.7.721,2.7.811,5.5,1.623,8.2,2.344a28.065,28.065,0,0,1,5.859,1.983,4.381,4.381,0,0,0,2.614.451c.631-.09,1.172-.09,1.8-.18a1.31,1.31,0,0,1,1.532.9A12.777,12.777,0,0,1,402.694,75a3.861,3.861,0,0,0,2.344,2.254,7.069,7.069,0,0,0,1.262.451,4.076,4.076,0,0,1,2.073,1.8,12.761,12.761,0,0,1,.721,1.623,13.211,13.211,0,0,0,.541,1.262,27.132,27.132,0,0,0,1.8,3.065c.721.992,1.713.9,2.254-.27l.271-.811a5.082,5.082,0,0,1,.361-1.082c.9.721.9.721,1.082,1.442a1.987,1.987,0,0,0,.09.721,1.06,1.06,0,0,0,.992.9,2.593,2.593,0,0,0,1.8-.451,3.366,3.366,0,0,0,1.533-3.065,7.97,7.97,0,0,1,0-2.073,2.394,2.394,0,0,1,1.082,1.442,6.977,6.977,0,0,0,.631,1.442,1.516,1.516,0,0,0,2.524.09,4.219,4.219,0,0,0,.451-.9,5.105,5.105,0,0,0,.09-2.344A27.356,27.356,0,0,0,421.8,72.48a9.324,9.324,0,0,0-2.164-2.795,85.64,85.64,0,0,0-7.212-5.589c-.361-.27-.811-.541-1.262-.811-3.335-1.623-6.4-3.7-10.006-4.778-.271-.09-.451-.18-.721-.27a16.862,16.862,0,0,0-3.606-1.172,45.19,45.19,0,0,0-5.95-.9c-1.623-.18-3.335-.361-4.958-.631a4.26,4.26,0,0,1-1.983-.631c.451-.27.811-.451,1.262-.721l-.721-.361a18.7,18.7,0,0,0-4.507-.541c-.9-.09-1.893-.09-2.795-.18-.18,0-.361-.18-.721-.361a5.616,5.616,0,0,1,2.795-.721c1.352-.09,2.794-.18,4.147-.27a5.887,5.887,0,0,0,.992-.18c-.18-.27-.27-.451-.451-.541a10.015,10.015,0,0,0-1.442-.631c-.451-.18-.992-.361-1.533-.631-.18-.09-.18-.27-.451-.451.361,0,.541-.09.721-.09a25.917,25.917,0,0,1,5.859.631c1.713.451,2.073.18,2.885-1.352a8.459,8.459,0,0,0,.541-1.352c.271-.992.451-1.893.631-2.885.18-1.352.361-2.7.631-4.057,0-.27.27-.451.451-.811.18.451.361.811.451,1.082.18,1.172.361,2.344.451,3.516.09.541.27.811.9.811.09-.451.271-.9.361-1.352a12.948,12.948,0,0,1,2.524-4.958c.18-.18.27-.541.721-.361,0,.18.09.27,0,.451-.09.361-.271.721-.361,1.082a23.871,23.871,0,0,0-1.713,8.654,10.584,10.584,0,0,0,2.073,6.31,5.173,5.173,0,0,0,1.983,1.713,1.337,1.337,0,0,0,.631.09c-.18-.9-.361-1.623-.541-2.344a5.155,5.155,0,0,1,.09-2.344,2.515,2.515,0,0,1,1.262-1.893c.09.18.27.451.36.631a11.045,11.045,0,0,1,.18,1.713,18.572,18.572,0,0,0,.27,2.344,4.663,4.663,0,0,0,3.876,3.245,2.229,2.229,0,0,0,2.164-.9,9.125,9.125,0,0,0,.811-1.172,4.016,4.016,0,0,1,1.623-1.623,21.587,21.587,0,0,0,1.893-1.172,6.181,6.181,0,0,0,2.614-3.065c.09-.18.27-.361.541-.811a5.644,5.644,0,0,1-.9,2.7,22.818,22.818,0,0,0-1.082,2.073,3.2,3.2,0,0,0,.721,4.057,11.734,11.734,0,0,0,2.073,1.623c1.262.811,2.614,1.623,3.876,2.434a27.02,27.02,0,0,1,6.22,5.319,29.194,29.194,0,0,0,3.876,3.606,4.412,4.412,0,0,0,3.336,1.082,1.093,1.093,0,0,0,1.082-.631,1.254,1.254,0,0,0-.361-1.352,5.009,5.009,0,0,0-.721-.541,13.879,13.879,0,0,0-1.713-.721c-.9-.361-1.893-.541-2.795-.9a5.542,5.542,0,0,1-3.245-7.122,2.468,2.468,0,0,1,2.975.451,15.67,15.67,0,0,1,1.172,1.352c.631.811,1.172,1.713,1.8,2.524a31.36,31.36,0,0,0,2.344,2.7,5.955,5.955,0,0,0,1.8,1.262,1.871,1.871,0,0,0,2.7-1.983c0-.27-.09-.451-.09-.721-.09-.541-.18-1.172-.271-1.713a1.294,1.294,0,0,1,.271-1.262c.361-.18.541.09.721.361a4.19,4.19,0,0,0,2.975,2.073c.992.18,1.623-.27,1.532-1.172V63.195c-.09-1.352-.18-2.614-.27-3.966a68.967,68.967,0,0,0-1.532-9.465,14.464,14.464,0,0,0-2.614-5.589,30.008,30.008,0,0,0-2.254-2.524c-1.533-1.532-3.065-2.975-4.6-4.417a4.12,4.12,0,0,0-1.713-1.172,1.884,1.884,0,0,1-.361.541,1.037,1.037,0,0,1-1.8-.361,4.53,4.53,0,0,1-.541-2.163c0-1.172.09-2.344.09-3.516a13.313,13.313,0,0,0-.09-1.893,2.31,2.31,0,0,0-3.065-1.893,4.728,4.728,0,0,0-1.623.9,17.163,17.163,0,0,0-2.163,2.254c-.631.721-1.172,1.532-1.713,2.254a6.909,6.909,0,0,1-3.7,2.254,3.519,3.519,0,0,1-2.524-.361,1.748,1.748,0,0,1,.18-1.352,11.323,11.323,0,0,1,3.245-3.876,1.487,1.487,0,0,0-1.082-.992c-.992-.541-1.893-.992-2.885-1.532-1.893-1.082-3.7-2.254-5.589-3.335-1.532-.811-2.975-1.623-4.6-2.344a18.677,18.677,0,0,0-3.786-1.262,13.161,13.161,0,0,0-4.958-.27c-1.262.18-1.622,0-2.163-1.082a5.9,5.9,0,0,0-1.713-2.163,20.491,20.491,0,0,0-2.885-1.983,26.433,26.433,0,0,0-5.769-2.254,60.991,60.991,0,0,0-9.826-1.893,56.609,56.609,0,0,0-12.35-.27c-2.164.27-4.417.631-6.581.992a38.242,38.242,0,0,0-7.752,2.254c-1.8.811-3.7,1.623-5.5,2.524a34.372,34.372,0,0,0-5.859,3.426,7.52,7.52,0,0,1-1.082.721,43.8,43.8,0,0,0-5.319,3.786c-.631.541-1.262.992-1.893,1.442a.386.386,0,0,1-.631-.09,4.962,4.962,0,0,1,1.262-2.073c.631-.721,1.352-1.352,1.983-1.983a2.966,2.966,0,0,0,.992-1.8,2.779,2.779,0,0,0-.9.09c-.811.27-1.713.541-2.524.9a99.563,99.563,0,0,1-9.826,3.7,10.6,10.6,0,0,0-1.8.631c-2.975,1.262-5.95,2.254-9.014,3.335-5.589,1.983-11.088,4.417-16.5,6.761-5.589,2.434-11.178,4.778-16.947,6.761a69.7,69.7,0,0,1-13.432,3.335,100.658,100.658,0,0,1-12.8.9c-3.7.09-7.482-.18-11.178,0-3.335.18-6.581.18-9.826.631-5.589.721-11.178,1.623-16.767,2.795-5.5,1.082-11,2.254-16.587,2.885-3.876.451-7.752.811-11.629.992a32.89,32.89,0,0,1-4.237-.09,90.428,90.428,0,0,1-9.916-1.352,43.693,43.693,0,0,1-12.891-4.417,19.9,19.9,0,0,1-3.245-2.073,14.82,14.82,0,0,0-1.983-1.262,1.143,1.143,0,0,0-.541-.09c0,.18-.09.27,0,.361a4.364,4.364,0,0,0,.27.631,19.71,19.71,0,0,0,4.868,6.04,27.12,27.12,0,0,0,7.933,4.688A42.45,42.45,0,0,0,173.724,57.7c2.344.09,4.6.09,6.941.18h1.442c3.065-.27,6.22-.451,9.285-.721,4.778-.451,9.556-1.082,14.423-1.262,3.426-.18,6.761-.541,10.186-.541a49.206,49.206,0,0,0,5.138-.361,26.052,26.052,0,0,1,7.933.27c1.533.361,3.065.811,4.507,1.262a5.277,5.277,0,0,0,3.335,0,20.442,20.442,0,0,1,2.254-.541,2.294,2.294,0,0,1,.631.18,6.151,6.151,0,0,1-.451.631c-.541.361-.992.811-1.532,1.172a30.967,30.967,0,0,0-9.285,8.834,47.232,47.232,0,0,0-4.147,7.121c-1.262,2.795-2.614,5.5-3.786,8.293a45.221,45.221,0,0,1-4.056,7.392c-1.533,2.254-3.065,4.6-4.6,6.851a20.4,20.4,0,0,1-3.606,4.237c-1.623,1.442-3.335,2.975-4.958,4.417-.721.721-1.442,1.442-2.163,2.254a3.05,3.05,0,0,0-.27.721,4.761,4.761,0,0,0,1.172-.09,17.287,17.287,0,0,0,4.327-1.352,8.636,8.636,0,0,0,4.507-3.7c.541-.9,1.172-1.8,1.8-2.7a2.619,2.619,0,0,1,.992-.992c0,.09.09.18.09.27-.992,3.876-2.975,6.941-6.761,8.564-1.533.631-2.975,1.352-4.507,1.893a52.235,52.235,0,0,0-7.121,3.516,24.381,24.381,0,0,0-8.293,7.482l-.811,1.082c-2.254,3.426-4.6,6.851-6.851,10.367-.811,1.262-1.532,2.524-2.344,3.786a16,16,0,0,1-9.285,7.3c-1.262.361-2.524.811-3.786,1.262a9.565,9.565,0,0,0-3.065,1.442,3.719,3.719,0,0,0-1.352,1.532,1.73,1.73,0,0,0,1.352,2.524c.451.09.811.09,1.442.18-.361.361-.541.721-.811.811a8.559,8.559,0,0,1-1.893.811c-.721.27-1.442.361-2.073.631-1.8.631-2.344,1.713-1.8,3.606a3.2,3.2,0,0,0,.361.811,1.644,1.644,0,0,0,2.073.992A2.546,2.546,0,0,1,159.932,157.938Z" transform="translate(-131.862 -6.433)"/><path class="b" d="M161.5,158.235a2.9,2.9,0,0,0-1.532.09,1.683,1.683,0,0,1-2.073-.992,3.2,3.2,0,0,1-.361-.811c-.541-1.8-.09-2.885,1.8-3.606.721-.27,1.442-.361,2.073-.631l1.893-.811a6.794,6.794,0,0,0,.811-.811c-.631-.09-1.082-.09-1.442-.18a1.7,1.7,0,0,1-1.352-2.524,3.183,3.183,0,0,1,1.352-1.532,11.956,11.956,0,0,1,3.065-1.442c1.262-.451,2.524-.811,3.786-1.262a16.361,16.361,0,0,0,9.285-7.3c.811-1.262,1.532-2.524,2.344-3.786,2.254-3.426,4.507-6.941,6.851-10.367l.811-1.082a24.471,24.471,0,0,1,8.293-7.482,74.51,74.51,0,0,1,7.121-3.516c1.533-.631,2.975-1.262,4.507-1.893,3.786-1.623,5.769-4.778,6.761-8.564a.331.331,0,0,0-.09-.27c-.541.18-.721.631-.992.992-.631.9-1.262,1.8-1.8,2.7a9.575,9.575,0,0,1-4.507,3.7,26.582,26.582,0,0,1-4.327,1.352,4.763,4.763,0,0,1-1.172.09c.09-.27.09-.541.27-.721.721-.721,1.352-1.532,2.163-2.254,1.623-1.532,3.245-2.975,4.958-4.417a18,18,0,0,0,3.606-4.237c1.442-2.344,3.065-4.6,4.6-6.851a53.207,53.207,0,0,0,4.057-7.392c1.262-2.795,2.524-5.589,3.786-8.293a43.178,43.178,0,0,1,4.147-7.122,32.174,32.174,0,0,1,9.285-8.834A9.838,9.838,0,0,0,241.011,57a3.816,3.816,0,0,0,.451-.631,2.293,2.293,0,0,0-.631-.18,16.487,16.487,0,0,0-2.254.541,4.721,4.721,0,0,1-3.335,0c-1.533-.451-2.975-.9-4.507-1.262a29.273,29.273,0,0,0-7.933-.27c-1.713.09-3.426.361-5.138.361-3.425,0-6.761.361-10.186.541-4.868.18-9.646.811-14.423,1.262-3.065.27-6.22.541-9.285.721h-1.442c-2.344-.09-4.6-.09-6.941-.18a41.618,41.618,0,0,1-14.513-2.885,29.251,29.251,0,0,1-7.933-4.688,19.71,19.71,0,0,1-4.868-6.04c-.09-.18-.18-.451-.27-.631V43.3a1.143,1.143,0,0,1,.541.09c.631.451,1.352.811,1.983,1.262a19.9,19.9,0,0,0,3.245,2.073,43.694,43.694,0,0,0,12.891,4.417,93.511,93.511,0,0,0,9.916,1.352,33.591,33.591,0,0,0,4.237.09c3.876-.18,7.753-.541,11.629-.992,5.589-.721,11.088-1.8,16.587-2.885,5.589-1.082,11.088-2.073,16.767-2.795a89.867,89.867,0,0,1,9.826-.631c3.786-.18,7.482.09,11.178,0a120.475,120.475,0,0,0,12.8-.9,77,77,0,0,0,13.432-3.335c5.769-1.983,11.358-4.327,16.947-6.761,5.5-2.344,10.908-4.778,16.5-6.761,2.975-1.082,6.04-2.073,9.015-3.335a10.605,10.605,0,0,1,1.8-.631,99.559,99.559,0,0,0,9.826-3.7,20.8,20.8,0,0,1,2.524-.9c.27-.09.541,0,.9-.09a2.966,2.966,0,0,1-.992,1.8c-.631.721-1.352,1.352-1.983,1.983a4.189,4.189,0,0,0-1.262,2.073.45.45,0,0,0,.631.09c.631-.451,1.262-.992,1.893-1.442a43.788,43.788,0,0,1,5.319-3.786,7.53,7.53,0,0,0,1.082-.721,25.56,25.56,0,0,1,5.859-3.426c1.8-.9,3.7-1.713,5.5-2.524a40,40,0,0,1,7.753-2.254,52.617,52.617,0,0,1,6.581-.992,56.484,56.484,0,0,1,12.35.27,60.992,60.992,0,0,1,9.826,1.893,26.438,26.438,0,0,1,5.769,2.254,20.5,20.5,0,0,1,2.885,1.983,5.1,5.1,0,0,1,1.713,2.163c.541,1.082.811,1.262,2.164,1.082a11.471,11.471,0,0,1,4.958.27,31.077,31.077,0,0,1,3.786,1.262c1.532.721,3.065,1.532,4.6,2.344,1.893,1.082,3.7,2.254,5.589,3.335.9.541,1.893.992,2.885,1.532.451.27.9.361,1.082.992a13.534,13.534,0,0,0-3.245,3.876,1.69,1.69,0,0,0-.18,1.352,3.453,3.453,0,0,0,2.524.361,5.893,5.893,0,0,0,3.7-2.254c.541-.721,1.082-1.532,1.713-2.254A16.937,16.937,0,0,1,425,27.884a4.15,4.15,0,0,1,1.623-.9,2.281,2.281,0,0,1,3.065,1.893,13.313,13.313,0,0,1,.09,1.893c0,1.172-.09,2.344-.09,3.516a4.8,4.8,0,0,0,.541,2.163,1.068,1.068,0,0,0,1.8.361,1.884,1.884,0,0,0,.361-.541A4.121,4.121,0,0,1,434.1,37.44c1.532,1.442,3.065,2.885,4.6,4.417.811.811,1.533,1.713,2.254,2.524a12.786,12.786,0,0,1,2.614,5.589,68.986,68.986,0,0,1,1.532,9.465c.09,1.352.18,2.614.27,3.966v1.352a1.1,1.1,0,0,1-1.533,1.172,4.375,4.375,0,0,1-2.975-2.073c-.18-.27-.361-.541-.721-.361a2.012,2.012,0,0,0-.27,1.262c.09.631.18,1.172.27,1.713,0,.27.09.451.09.721a1.871,1.871,0,0,1-2.7,1.983,5.029,5.029,0,0,1-1.8-1.262,22.956,22.956,0,0,1-2.344-2.7c-.631-.811-1.172-1.713-1.8-2.524a15.669,15.669,0,0,0-1.172-1.352,2.468,2.468,0,0,0-2.975-.451A5.508,5.508,0,0,0,430.677,68c.9.361,1.893.541,2.795.9a9.771,9.771,0,0,1,1.713.721,2.169,2.169,0,0,1,.721.541,1.118,1.118,0,0,1,.361,1.352,1.093,1.093,0,0,1-1.082.631,4.532,4.532,0,0,1-3.335-1.082,36.707,36.707,0,0,1-3.876-3.606,27.02,27.02,0,0,0-6.22-5.319c-1.262-.811-2.614-1.623-3.876-2.434a11.739,11.739,0,0,1-2.073-1.623,3.185,3.185,0,0,1-.721-4.057c.361-.721.721-1.352,1.082-2.073a7.347,7.347,0,0,0,.9-2.7c-.27.451-.451.631-.541.811a6.246,6.246,0,0,1-2.614,3.065,21.586,21.586,0,0,1-1.893,1.172,3.538,3.538,0,0,0-1.623,1.623,5.426,5.426,0,0,1-.811,1.172,2.23,2.23,0,0,1-2.164.9,4.663,4.663,0,0,1-3.876-3.245,18.527,18.527,0,0,1-.27-2.344c-.09-.541-.09-1.172-.18-1.713a1.145,1.145,0,0,0-.361-.631,3.108,3.108,0,0,0-1.262,1.893,6.83,6.83,0,0,0-.09,2.344c.18.721.361,1.532.541,2.344a1.337,1.337,0,0,1-.631-.09,5.173,5.173,0,0,1-1.983-1.713,10.786,10.786,0,0,1-2.073-6.31,23.872,23.872,0,0,1,1.713-8.654,5.089,5.089,0,0,0,.361-1.082v-.451c-.361-.18-.541.18-.721.361a14.346,14.346,0,0,0-2.524,4.958c-.09.451-.271.9-.361,1.352-.631,0-.811-.27-.9-.811-.09-1.172-.27-2.344-.451-3.516A9.4,9.4,0,0,0,393.9,39.6c-.18.361-.451.541-.451.811-.18,1.352-.361,2.7-.631,4.057-.18.992-.361,1.893-.631,2.885a8.459,8.459,0,0,1-.541,1.352c-.811,1.623-1.172,1.8-2.885,1.352a25.374,25.374,0,0,0-5.859-.631,2.537,2.537,0,0,0-.721.09c.18.27.27.451.451.451a7.8,7.8,0,0,0,1.533.631c.451.18.992.451,1.442.631.18.09.18.27.451.541-.451.09-.721.09-.992.18-1.352.09-2.795.18-4.147.27a6.768,6.768,0,0,0-2.795.721l.721.361c.9.09,1.893.09,2.794.18a24.648,24.648,0,0,1,4.507.541,5.316,5.316,0,0,1,.721.361c-.451.27-.811.451-1.262.721a3.435,3.435,0,0,0,1.983.631c1.623.27,3.335.451,4.958.631a45.194,45.194,0,0,1,5.95.9,16.859,16.859,0,0,1,3.606,1.172,6.223,6.223,0,0,0,.721.27c3.606,1.082,6.671,3.065,10.006,4.778a9.9,9.9,0,0,1,1.262.811,73.24,73.24,0,0,1,7.212,5.589,9.326,9.326,0,0,1,2.163,2.795,24.986,24.986,0,0,1,2.794,8.023,5.155,5.155,0,0,1-.09,2.344,2.82,2.82,0,0,1-.451.9,1.479,1.479,0,0,1-2.524-.09,10.028,10.028,0,0,1-.631-1.442,2.8,2.8,0,0,0-1.082-1.442,5.322,5.322,0,0,0,0,2.073,3.8,3.8,0,0,1-1.533,3.065,2.593,2.593,0,0,1-1.8.451,1.059,1.059,0,0,1-.992-.9c-.09-.27,0-.451-.09-.721-.09-.721-.09-.721-1.082-1.442-.09.361-.27.721-.361,1.082l-.27.811c-.541,1.172-1.532,1.262-2.254.27a20.989,20.989,0,0,1-1.8-3.065c-.18-.361-.361-.811-.541-1.262-.27-.541-.451-1.082-.721-1.623a3.184,3.184,0,0,0-2.073-1.8,7.063,7.063,0,0,0-1.262-.451,4.117,4.117,0,0,1-2.344-2.254c-.27-.541-.451-1.082-.721-1.623a1.508,1.508,0,0,0-1.532-.9c-.631.09-1.172.09-1.8.18a4.381,4.381,0,0,1-2.614-.451,26.408,26.408,0,0,0-5.859-1.983c-2.795-.721-5.5-1.532-8.2-2.344-.9-.27-1.8-.541-2.7-.721a49.921,49.921,0,0,1-5.229-1.532,7.615,7.615,0,0,0-1.532-.451,28.609,28.609,0,0,1-3.7-1.082c-4.327-1.532-8.744-3.065-13.071-4.6a14.378,14.378,0,0,1-2.434-1.082,2.852,2.852,0,0,1-1.532-3.245,10.3,10.3,0,0,1,.811-2.344,19.6,19.6,0,0,1,3.876-5.5c.9-.9,1.893-1.8,2.794-2.7a6.59,6.59,0,0,0,1.262-1.442,2.537,2.537,0,0,1-.721.09,13.569,13.569,0,0,1-2.885.992c0-.27-.09-.541,0-.721a16.844,16.844,0,0,1,.631-1.983,19.561,19.561,0,0,1,3.606-5.409c1.442-1.532,2.794-3.065,4.147-4.6a11.886,11.886,0,0,0,1.082-1.442,3.586,3.586,0,0,0-.992,0,19.733,19.733,0,0,0-6.49,3.155,24.391,24.391,0,0,0-6.4,6.851c-1.082,1.8-1.983,3.7-2.975,5.589a2.544,2.544,0,0,0-.361,1.352c.451.451.992,0,1.442.18.27.27.09.541-.09.811-.451.721-.9,1.352-1.442,2.073-.811,1.172-1.713,2.344-2.434,3.516a6.214,6.214,0,0,0-1.082,3.516v.27a2.975,2.975,0,0,0,2.254,3.245,15.694,15.694,0,0,0,1.983.451,11.6,11.6,0,0,1,1.713.361c.541.18.992.361,1.442.541a.75.75,0,0,1-.27.992,6.214,6.214,0,0,1-1.352.631c-2.885.9-5.769,1.713-8.564,2.614a39.786,39.786,0,0,1-8.654,1.713c-4.778.451-9.555.631-14.333.9-2.344.09-4.6.361-6.941.451-2.254.09-4.507.18-6.761.18-3.425.09-6.761.361-10.186.721-1.8.18-3.516.361-5.228.631a63.944,63.944,0,0,0-8.2,1.983,24,24,0,0,0-5.5,2.7,87.389,87.389,0,0,0-9.015,6.49c-5.859,4.868-11.719,9.736-17.668,14.6-1.352,1.082-2.7,2.073-4.147,3.065-5.589,3.606-11.539,6.761-17.488,9.826-.451.18-.9.451-1.352.631-8.384,3.516-16.316,7.843-24.339,11.989a29,29,0,0,0-6.13,4.327,72.181,72.181,0,0,0-9.1,9.826c-4.327,5.409-8.654,10.817-13.071,16.226-1.172,1.442-2.344,2.885-3.606,4.237a21,21,0,0,1-4.6,3.876,9.629,9.629,0,0,1-4.147,1.532,4.121,4.121,0,0,1-2.344-.18,4.528,4.528,0,0,1-1.082-.721,1.272,1.272,0,0,1,.09-1.983,5.44,5.44,0,0,0,.721-.721A3.556,3.556,0,0,1,161.5,158.235ZM303.031,65.926a6.84,6.84,0,0,0,2.7-.09c2.434-.451,4.958-.992,7.392-1.442a85.619,85.619,0,0,1,9.646-1.352c3.335-.361,6.671-.721,9.916-1.172a18.519,18.519,0,0,0,5.769-1.713,10.239,10.239,0,0,0,5.319-5.5c.9-2.254,1.713-4.6,2.524-6.941a2.779,2.779,0,0,0,.09-.9,3.656,3.656,0,0,0-.9.27c-.721.451-1.532.9-2.254,1.442-.992.721-1.893,1.442-2.795,2.164a31.682,31.682,0,0,1-9.555,4.778c-4.958,1.532-9.916,3.155-14.874,4.778-3.245,1.082-6.4,2.163-9.555,3.516-.992.451-1.983,1.082-2.975,1.623C303.121,65.385,302.941,65.475,303.031,65.926ZM290.951,35.907a6.428,6.428,0,0,0-2.344.631c-1.893.811-3.876,1.713-5.769,2.614a39.628,39.628,0,0,1-6.851,2.614c-.811.18-1.713.541-2.524.811a7.188,7.188,0,0,0-1.442.721,2.787,2.787,0,0,0-1.352,3.065,8.439,8.439,0,0,0,.36,1.442,6,6,0,0,1-.09,3.335c-.27.9-.721,1.713-1.082,2.614-.27.631-.631,1.172-.9,1.8a5.438,5.438,0,0,0-.541,1.713c-.27,1.262.451,1.893,1.713,1.532.18-.09.36-.09.541-.18a4.506,4.506,0,0,0,2.164-1.713,41.812,41.812,0,0,0,2.254-3.786,32.337,32.337,0,0,1,8.023-10.1c.721-.631,1.442-1.262,2.254-1.893l4.327-3.516A4.988,4.988,0,0,0,290.951,35.907ZM263.727,65.2a5.588,5.588,0,0,0-3.966,1.532,14.633,14.633,0,0,0-2.7,3.516,38.628,38.628,0,0,0-2.344,5.228c-.631,1.623-1.172,3.245-1.8,4.868a31.108,31.108,0,0,1-3.426,6.671l-4.327,5.95c-.36.541-.721,1.082-1.082,1.532-.09.18-.27.361,0,.541a5.351,5.351,0,0,1,.721-.361c.721-.631,1.532-1.262,2.254-1.893a71.323,71.323,0,0,0,13.071-15.866c.451-.811.992-1.532,1.442-2.434.9-1.8,1.8-3.7,2.7-5.589A3.5,3.5,0,0,0,263.727,65.2Zm-43,25.421a8.124,8.124,0,0,1-.811.9,1.559,1.559,0,0,0,2.254.451c1.713-.9,3.425-1.713,5.138-2.524,4.778-2.163,8.654-5.5,12.35-9.195a8.325,8.325,0,0,0,1.532-1.983,6.194,6.194,0,0,0,.27-.721,2.66,2.66,0,0,0-1.352.451c-1.352.721-2.794,1.532-4.147,2.254a6.259,6.259,0,0,1-4.417.631l-2.163-.541a4.568,4.568,0,0,0-4.688,1.352,12.563,12.563,0,0,0-1.352,1.713,26.436,26.436,0,0,0-1.893,3.516A5.315,5.315,0,0,0,220.728,90.625Zm145.044-62.11c-.18-.09-.27-.27-.451-.361a5.547,5.547,0,0,0-2.614-.811,11.715,11.715,0,0,0-6.04,1.172,10.919,10.919,0,0,0-3.155,2.163,14.956,14.956,0,0,0-3.245,5.409,10.971,10.971,0,0,0-.631,3.426,5.879,5.879,0,0,0,.18.992,7.189,7.189,0,0,0,.541-.721c.541-.811,1.172-1.713,1.713-2.614a6.964,6.964,0,0,1,1.533-1.713c1.352-1.082,2.794-2.164,4.147-3.335a11.554,11.554,0,0,1,4.057-2.073,21.052,21.052,0,0,1,2.254-.631A3.922,3.922,0,0,0,365.772,28.515ZM436,59.525a2.437,2.437,0,0,0,2.614-1.082,6.952,6.952,0,0,0,.721-1.713,12.089,12.089,0,0,0,.09-4.417,6.709,6.709,0,0,0-5.319-5.769c-.18-.09-.451,0-.631,0a2.762,2.762,0,0,0,.361,1.532,16.23,16.23,0,0,1,.721,1.893,9.027,9.027,0,0,0,2.434,4.327,3.082,3.082,0,0,1,.811,2.614,1.729,1.729,0,0,1-.811,1.623A1.059,1.059,0,0,0,436,59.525Zm-9.015-31.281a4.4,4.4,0,0,0-2.975,1.623,28.4,28.4,0,0,1-3.155,3.426v.18c.18.361.451.361.811.361h3.245c.18,0,.36-.09.541-.09a1.961,1.961,0,0,0,.361-1.532,5.448,5.448,0,0,1,.9-2.885A3.151,3.151,0,0,0,426.981,28.245Z" transform="translate(-133.433 -6.729)"/><path class="a" d="M320,69.991c-.09-.451.09-.631.271-.721l2.975-1.623a86.319,86.319,0,0,1,9.555-3.516c4.958-1.623,9.916-3.245,14.874-4.778a30.677,30.677,0,0,0,9.555-4.778c.9-.721,1.893-1.442,2.795-2.163a19.181,19.181,0,0,1,2.254-1.442,2.645,2.645,0,0,1,.9-.27,2.512,2.512,0,0,1-.09.9c-.811,2.344-1.623,4.6-2.524,6.941a9.937,9.937,0,0,1-5.319,5.5,18.52,18.52,0,0,1-5.769,1.713c-3.335.451-6.671.811-9.916,1.172s-6.49.721-9.646,1.352c-2.434.451-4.958.992-7.392,1.442A3.957,3.957,0,0,1,320,69.991Z" transform="translate(-150.399 -10.795)"/><path class="a" d="M304.12,38.8a2.864,2.864,0,0,1-1.352,1.532l-4.327,3.516c-.721.631-1.533,1.262-2.254,1.893a32.336,32.336,0,0,0-8.023,10.1,32.237,32.237,0,0,1-2.254,3.786,4.5,4.5,0,0,1-2.163,1.713,1.282,1.282,0,0,1-.541.18c-1.262.361-1.983-.27-1.713-1.532a12.509,12.509,0,0,1,.541-1.713c.27-.631.631-1.262.9-1.8a22.654,22.654,0,0,0,1.082-2.614,6,6,0,0,0,.09-3.335c-.09-.451-.27-.992-.361-1.442a2.843,2.843,0,0,1,1.352-3.065,7.191,7.191,0,0,1,1.442-.721,11.8,11.8,0,0,1,2.524-.811,34.726,34.726,0,0,0,6.851-2.614c1.893-.9,3.786-1.8,5.769-2.614A19.454,19.454,0,0,1,304.12,38.8Z" transform="translate(-146.602 -9.622)"/><path class="a" d="M274.236,71.3a3.326,3.326,0,0,1,.541,3.7c-.811,1.893-1.713,3.7-2.7,5.589-.451.811-.992,1.623-1.442,2.434a69.339,69.339,0,0,1-13.071,15.866c-.721.631-1.533,1.262-2.254,1.893a1.812,1.812,0,0,1-.721.361.328.328,0,0,1,0-.541c.361-.541.721-1.082,1.082-1.532l4.327-5.95a31.117,31.117,0,0,0,3.426-6.671c.631-1.623,1.172-3.245,1.8-4.868a54.335,54.335,0,0,1,2.344-5.228,12.653,12.653,0,0,1,2.7-3.516A5.23,5.23,0,0,1,274.236,71.3Z" transform="translate(-143.941 -12.824)"/><path class="a" d="M228.621,98.071a4.841,4.841,0,0,1,.811-3.7l1.893-3.516a12.564,12.564,0,0,1,1.352-1.713,4.245,4.245,0,0,1,4.687-1.352l2.164.541a5.445,5.445,0,0,0,4.417-.631c1.352-.721,2.794-1.533,4.147-2.254A2.659,2.659,0,0,1,249.445,85c-.09.27-.09.541-.271.721-.541.631-.991,1.352-1.532,1.983-3.7,3.606-7.572,6.941-12.35,9.195-1.713.811-3.426,1.713-5.138,2.524a1.606,1.606,0,0,1-2.254-.451A5.2,5.2,0,0,1,228.621,98.071Z" transform="translate(-141.326 -14.175)"/><path class="a" d="M387.843,30.461a3.089,3.089,0,0,1-1.623.811,21.039,21.039,0,0,1-2.254.631,12.376,12.376,0,0,0-4.057,2.073c-1.352,1.082-2.794,2.164-4.147,3.335a5.53,5.53,0,0,0-1.532,1.713c-.541.9-1.172,1.713-1.713,2.614a7.154,7.154,0,0,1-.541.721c-.09-.451-.27-.721-.18-.992a10.97,10.97,0,0,1,.631-3.426,16.647,16.647,0,0,1,3.245-5.409,9.4,9.4,0,0,1,3.155-2.163,12.5,12.5,0,0,1,6.04-1.172,6.352,6.352,0,0,1,2.614.811A1.582,1.582,0,0,0,387.843,30.461Z" transform="translate(-155.504 -8.675)"/><path class="a" d="M467.212,63.571a1.415,1.415,0,0,1,.9-1.082,1.647,1.647,0,0,0,.811-1.623,3.392,3.392,0,0,0-.811-2.614,9.026,9.026,0,0,1-2.434-4.327c-.18-.631-.541-1.262-.721-1.893A2.759,2.759,0,0,1,464.6,50.5h.631a6.809,6.809,0,0,1,5.318,5.769,9.157,9.157,0,0,1-.09,4.417,4.914,4.914,0,0,1-.721,1.713A2.3,2.3,0,0,1,467.212,63.571Z" transform="translate(-164.649 -10.775)"/><path class="a" d="M456.83,30.3c-.09.451-.09.9-.27,1.082a5.706,5.706,0,0,0-.9,2.885c-.09.541,0,1.082-.361,1.532-.18,0-.361.09-.541.09h-3.245c-.361,0-.721,0-.811-.361v-.18a28.447,28.447,0,0,0,3.155-3.426A4.081,4.081,0,0,1,456.83,30.3Z" transform="translate(-163.282 -8.785)"/></g></svg>