<svg xmlns="http://www.w3.org/2000/svg" xmlns:xlink="http://www.w3.org/1999/xlink" width="1920" height="993" viewBox="0 0 1920 993"><defs><style>.a,.c{opacity:0.5;}.a{fill:url(#a);}.b{fill:none;}.c{clip-path:url(#b);}.d{opacity:0.04;}.e{clip-path:url(#c);}</style><linearGradient id="a" x1="0.5" x2="0.5" y2="1" gradientUnits="objectBoundingBox"><stop offset="0" stop-color="#f29b38"/><stop offset="1" stop-color="#e27b06"/></linearGradient><clipPath id="b"><rect class="a" width="1920" height="993"/></clipPath><clipPath id="c"><rect class="b" width="1958" height="1802" transform="translate(0 0.091)"/></clipPath></defs><g class="c"><g class="d" transform="translate(-19 -125.091)"><g class="e" transform="translate(0 0)"><g transform="translate(-276.688 -416.614)"><g transform="translate(2874.205 1319.715)"><path d="M2827.3,1571.977a41.286,41.286,0,0,1-4.718-.264c-79.8-8.936-75.258-64.375-70.452-123.069,4.148-50.66,8.848-108.086-35.062-151.028-77.116-75.414-70.618-139.578-51.587-180.125,33.414-71.2,126.244-115.263,193.088-115.263,47.179,0,117.691,7.093,185.693,40.879,67.951,33.762,118.978,86.73,151.658,157.426h0c53.474,115.674-67.925,170.051-148.257,206.032-14.076,6.306-27.372,12.261-38,17.793-26.933,14-54.365,43.808-80.894,72.632C2893.319,1535.5,2859.748,1571.977,2827.3,1571.977Zm31.269-561.575c-64.037,0-152.952,42.184-184.937,110.329-17.975,38.3-23.906,99.1,49.9,171.28,46.593,45.568,41.735,104.9,37.451,157.246-4.865,59.418-8.707,106.347,62.669,114.341,29.221,3.277,64.328-34.935,98.338-71.894,27.034-29.371,54.989-59.74,83.3-74.469,10.865-5.651,24.281-11.658,38.485-18.02,81.93-36.7,194.141-86.957,143.973-195.483C3109.989,1035.519,2948.131,1010.4,2858.569,1010.4Z" transform="translate(-2653.105 -1002.228)"/><path d="M2845.327,1499.675a30.613,30.613,0,0,1-4.633-.351c-57.876-8.869-55.08-48.166-51.841-93.67,2.724-38.284,5.813-81.681-27.671-114.908-57.158-56.724-52.238-104.818-38.044-135.175,24.888-53.23,94.212-86.682,144.171-87.149,54.632-.742,189,12.637,254.542,146.419h0c22.025,44.961,13.689,82.659-25.49,115.243-25.176,20.906-59.741,36.052-87.515,48.226-9.579,4.2-18.629,8.162-26.053,11.834-21.034,10.405-42.141,32.955-62.552,54.764C2893.927,1473.022,2868.978,1499.675,2845.327,1499.675Zm25.1-427.948c-1.055,0-2.076,0-3.078.016-48.83.455-116.581,33.135-140.894,85.141-13.77,29.452-18.463,76.188,37.375,131.6,34.539,34.277,31.4,78.428,28.625,117.383-3.252,45.708-5.82,81.8,48.836,90.182,23.01,3.484,48.863-24.083,76.221-53.311,20.624-22.04,41.952-44.825,63.575-55.518,7.5-3.712,16.59-7.695,26.211-11.91,27.562-12.082,61.864-27.116,86.648-47.695,37.865-31.491,45.919-67.935,24.621-111.411h0C3055.094,1086.655,2926.225,1071.727,2870.424,1071.727Z" transform="translate(-2654.376 -1008.761)"/><path d="M2858.127,1428.773c-11.325,0-19.581-2.6-25.221-7.946-11.1-10.517-10.282-29.863-9.335-52.257,1.2-28.378,2.562-60.543-19.94-83.529-38.023-38.83-34.542-71.686-24.927-92.417,16.94-36.519,62.77-59.329,97.29-60.284,35.969-1.089,124.979,6.159,173.778,95.779h0c17.711,32.524,14.817,60.7-8.605,83.747-18.28,17.925-47.962,30.329-69.637,39.39-5.294,2.211-10.3,4.3-14.567,6.23-15.31,6.916-30.346,21.6-44.887,35.8-18.6,18.164-36.171,35.319-53.241,35.482C2858.595,1428.773,2858.361,1428.773,2858.127,1428.773ZM2882,1134.807q-3.165,0-5.926.088c-32.921.909-78.535,23.624-94.823,58.734-9.3,20.04-12.606,51.874,24.435,89.7,23.26,23.755,21.874,56.472,20.654,85.333-.923,21.813-1.721,40.647,8.552,50.382,5.2,4.925,13.058,7.256,23.908,7.168,15.891-.151,33.068-16.923,51.252-34.68,14.712-14.365,29.924-29.22,45.684-36.34,4.31-1.947,9.329-4.047,14.642-6.266,21.462-8.972,50.857-21.257,68.76-38.81,22.861-22.495,25.527-48.945,8.15-80.859C3001.706,1145.544,2920.527,1134.807,2882,1134.807Z" transform="translate(-2655.599 -1015.066)"/><path d="M2872.414,1358.429c-4.78,0-8.443-1.118-11.128-3.376-6.569-5.532-6.106-16.911-5.573-30.082.637-15.69,1.359-33.471-9.646-45.66-18.856-20.879-16.844-38.468-11.834-49.543,8.969-19.836,32.673-32.078,50.421-33.526,21.677-1.765,62.6,1.736,93.014,45.1h0c10.432,14.87,20.8,34.248,8.308,52.252-10.673,15.263-36.343,24.526-51.681,30.063l-3.174,1.149c-9.064,3.308-17.718,10.257-26.088,16.979-9.8,7.866-19.062,15.3-28.266,16.372A37.653,37.653,0,0,1,2872.414,1358.429Zm20.832-160.746c-3.046,0-5.866.131-8.418.339-17.423,1.421-40.44,13.941-48.8,32.433-4.8,10.62-6.7,27.519,11.536,47.715,11.479,12.713,10.745,30.86,10.094,46.87-.516,12.728-.964,23.719,4.942,28.693,3,2.531,7.547,3.405,13.926,2.654,8.616-1.006,17.657-8.266,27.231-15.949,8.494-6.817,17.277-13.87,26.65-17.29l3.18-1.154c15.119-5.456,40.425-14.588,50.754-29.363,9.285-13.379,6.724-28.9-8.3-50.314h0C2949.761,1204.851,2915.555,1197.683,2893.245,1197.683Z" transform="translate(-2656.823 -1021.35)"/><path d="M2905.144,1292.027c-9.548,0-17.315-8.676-17.315-19.345s7.767-19.346,17.315-19.346c9.583,0,26.093,10.517,26.093,21.285C2931.237,1285.885,2914,1292.027,2905.144,1292.027Zm0-36.647c-8.323,0-15.1,7.763-15.1,17.3s6.772,17.3,15.1,17.3c8.415,0,23.873-5.831,23.873-15.363S2913.7,1255.38,2905.144,1255.38Z" transform="translate(-2658.016 -1027.021)"/></g><g transform="translate(2500.68 972.747)"><path d="M2860.385,1838.92c-61.367,0-125.207-10.765-184.358-40.583-126.981-64.011-150.483-114.433-177.7-172.817-17.962-38.539-38.322-82.219-92.713-136-136.576-135.035-167.906-206.366-97.924-389.424,37.99-99.374,50.01-116.145,68.2-141.529,15.363-21.437,36.4-50.8,82.818-144.794,107.349-217.391,222.355-212.764,320.7-179.578,32.495,10.968,76.746,43.444,127.987,81.046,159.782,117.258,401.246,294.453,615.091,60.523,50.36-55.086,126.76-61,209.615-16.224,120.142,64.933,219.4,221.337,169.742,341.956-31.852,77.363-32.552,161.23-33.171,235.224-.642,76.871-1.149,137.59-36.328,164.526-17.6,13.475-42.794,17.314-77.043,11.726-155.263-25.332-219.217-9.674-325.178,16.269-17.291,4.231-35.169,8.609-54.874,13.158-82.263,18.987-141.651,93.276-176.984,152.253-33.587,56.065-88.8,97.486-155.456,116.64C2991.14,1826.14,2927.228,1838.92,2860.385,1838.92ZM2688.871,621.5a172.9,172.9,0,0,0-72.189,15.2c-56.8,25.556-107.147,84.031-153.927,178.768-46.56,94.288-67.709,123.8-83.155,145.348-18.011,25.133-29.91,41.737-67.72,140.64-69.75,182.451-40.355,249.492,96.985,385.281,54.916,54.3,75.438,98.324,93.544,137.171,26.889,57.689,50.112,107.512,175.75,170.845,122.216,61.609,265.041,40.874,363.332,12.64,65.562-18.835,119.86-59.573,152.89-114.708l1.944.986-1.944-.986c35.76-59.689,95.98-134.9,179.793-154.25,19.672-4.538,37.537-8.912,54.813-13.143,106.553-26.086,170.865-41.832,327.1-16.34,32.872,5.364,56.891,1.816,73.427-10.844,33.594-25.723,34.121-88.605,34.728-161.418.622-74.336,1.327-158.591,33.459-236.636,48.875-118.719-49.224-272.88-167.838-336.984-80.8-43.672-155.142-38.087-203.97,15.331-216.626,236.971-460.125,58.28-621.257-59.96-50.936-37.382-94.928-69.662-126.746-80.4C2745.222,627.011,2715.879,621.5,2688.871,621.5Z" transform="translate(-2271.597 -617.249)"/><path d="M2855.076,1790.412c-49.4,0-101.124-8.661-149.779-32.584-101.717-50.405-123.293-91.452-148.277-138.979-15.959-30.357-34.047-64.766-76.212-106.47-54.294-53.754-88.827-102.8-108.679-154.345-25.716-66.685-23.966-137.968,5.676-231.124,33.293-104.623,43.9-125.009,74.827-166.762,8-10.8,18.308-21.409,30.25-33.7,19.192-19.753,43.076-44.331,67.42-80.575,100.108-149.053,181.956-158.927,274.049-127.888,29.937,10.083,65.212,38.228,106.061,70.817,22.121,17.649,45,35.9,69.9,53.7,123.584,88.362,312.7,134.173,456.61,37.31,67.61-45.516,138-48.321,198.188-7.914,84.516,56.735,124.675,182.159,89.518,279.593-15.388,42.647-11.8,69.7-7.991,98.341,2.548,19.185,5.182,39.022,2.464,64.75-10.893,103.141-55.069,159.645-131.3,167.939-152.181,16.555-202.3,25.48-297.923,53.047-7.965,2.327-16.212,4.7-24.8,7.116-52.628,14.743-103.021,57.984-149.783,128.521-30.482,45.991-77.569,80.251-132.587,96.468C2961.17,1779.884,2909.543,1790.412,2855.076,1790.412ZM2551.924,846.8l1.623.922c-24.52,36.511-48.529,61.217-67.822,81.073-11.851,12.193-22.087,22.73-29.941,33.335-30.645,41.377-41.177,61.632-74.317,165.772-29.4,92.4-31.173,163.013-5.74,228.961,19.671,51.08,53.948,99.737,107.875,153.124,42.557,42.091,60.777,76.756,76.853,107.336,24.7,46.976,46.023,87.547,146.646,137.414,101.129,49.718,215.943,32.664,294.448,9.6,54.141-15.961,100.485-49.679,130.494-94.951,47.262-71.3,98.378-115.051,151.926-130.054,8.57-2.406,16.8-4.781,24.762-7.1,95.915-27.651,146.148-36.6,298.624-53.187,74.2-8.073,117.249-63.516,127.946-164.794,2.678-25.34.07-44.985-2.454-63.98-3.858-29.044-7.5-56.479,8.158-99.877,34.671-96.088-4.869-219.744-88.145-275.646-58.743-39.433-127.532-36.619-193.69,7.911-145.514,97.949-336.487,51.8-461.2-37.375-24.979-17.857-47.894-36.141-70.054-53.817-40.561-32.361-75.593-60.312-104.873-70.174-92.925-31.3-170.412-21.082-269.492,126.435Z" transform="translate(-2273.324 -625.784)"/><path d="M2849.44,1741.6c-36.924,0-76.881-6.2-114.907-24.307-47.918-22.818-80.852-48.478-103.647-80.742-18.04-25.537-38.169-50.633-57.636-74.9-44.884-55.953-91.295-113.81-115.735-181.529-26.236-72.545-29.292-144.494-9.617-226.43,22.419-93.376,35.846-132.1,71.157-177.407,14.251-18.279,35.654-32.744,58.312-48.058,21.552-14.565,43.837-29.627,64.543-50.273,84.533-84.276,144.017-104.223,227.345-76.209,26.268,8.825,55.667,30.078,89.71,54.692,17.406,12.58,35.4,25.591,54.686,38.184,80.252,52.4,236.725,130.018,382.986,61.154,56.774-26.725,178.027-64.805,230.588-17.613,44.106,39.61,30.661,128.279-39.965,263.553-18.605,35.641-22.867,75.593-26.988,114.229-1.192,11.184-2.426,22.746-3.989,33.985-7.684,55.283-22.406,89.831-78.1,114.03-41.678,18.108-87.029,27.252-130.888,36.1-30.918,6.239-62.889,12.684-93.275,22.215-72.984,22.894-137.525,67.452-181.731,125.469a219.8,219.8,0,0,1-109.716,76.3C2935.673,1732.206,2894.855,1741.6,2849.44,1741.6ZM2643.082,878.948l1.173,1c-20.915,20.85-44.336,36.68-65,50.645-22.448,15.175-43.651,29.5-57.608,47.407-34.986,44.882-48.322,83.393-70.635,176.321-19.544,81.4-16.516,152.853,9.53,224.874,24.28,67.277,70.539,124.942,115.274,180.712,19.494,24.3,39.653,49.431,57.744,75.039,22.481,31.826,55.032,57.162,102.438,79.737,83.765,39.88,177.283,21.233,225.571,6.569a216.623,216.623,0,0,0,108.1-75.2c44.592-58.524,109.7-103.473,183.319-126.562,30.554-9.587,62.613-16.052,93.619-22.307,43.685-8.809,88.856-17.916,130.208-35.885,54.363-23.62,68.755-57.5,76.3-111.747,1.557-11.2,2.788-22.734,3.978-33.9,4.149-38.89,8.439-79.106,27.289-115.21,69.965-134.013,83.629-221.554,40.611-260.181-51.258-46.035-170.835-8.274-226.906,18.128-147.763,69.568-305.446-8.589-386.285-61.377-19.346-12.632-37.375-25.664-54.809-38.272-33.828-24.454-63.043-45.575-88.834-54.236-70.208-23.612-129.354-18.839-223.906,75.442Z" transform="translate(-2275.02 -634.291)"/><path d="M2849.087,1694.492c-30.462,0-60.583-7.032-90.172-21.109-135.086-64.263-225.95-263.114-239.606-381.953-7.279-63.349-13.833-220.691,82.3-313.228a347.094,347.094,0,0,1,95.769-64.794c65.338-29.774,137.026-37.916,201.852-22.921,50.135,11.594,95.543,36.376,139.459,60.343,39.352,21.476,80.043,43.683,124.036,56.36,21.341,6.147,44.071,10.262,66.053,14.245,44.635,8.078,90.788,16.436,127,42.258,38.216,27.253,63.775,74.441,71.972,132.881a321.363,321.363,0,0,1-21.293,166.821c-15.271,37.078-44.548,86.374-97.321,110.633-23.056,10.6-48.743,15.446-73.585,20.135-19.139,3.612-38.927,7.348-57.385,13.686-49.206,16.9-87.99,51.6-125.494,85.157-30.245,27.061-61.519,55.04-98.438,74.117C2918.921,1685.369,2883.781,1694.492,2849.087,1694.492ZM2698.513,915.523h0a344.43,344.43,0,0,0-95.052,64.315c-95.387,91.818-88.842,248.318-81.6,311.344,13.6,118.308,103.949,316.221,238.233,380.1,62.475,29.714,127.372,27.623,192.879-6.219,36.629-18.927,67.78-46.8,97.907-73.754,37.7-33.725,76.676-68.6,126.385-85.672,18.644-6.406,38.533-10.157,57.767-13.789,24.68-4.658,50.2-9.475,72.954-19.937,52.032-23.915,80.961-72.668,96.067-109.355a319.164,319.164,0,0,0,21.15-165.681c-8.111-57.817-33.325-104.45-71-131.315-35.732-25.484-81.581-33.782-125.921-41.812-22.05-3.991-44.852-8.118-66.327-14.309-44.276-12.755-85.1-35.035-124.577-56.58-43.755-23.88-89-48.574-138.775-60.084-64.235-14.86-135.293-6.778-200.088,22.745Z" transform="translate(-2276.702 -643.502)"/><path d="M2835.171,1641.187c-32.562,0-66.806-11.83-96.92-33.57-66.531-48.027-95.483-127.181-116.861-205.561-14.364-52.676-29.407-115.047-32.063-178.3-1.723-41.034,1.327-101.784,25.636-158.188,24.092-55.9,63.191-93.7,116.212-112.357,58.423-20.559,128.228-19.693,207.469,2.582,58.211,16.36,120.872,43.748,191.571,83.728,40.8,23.077,92.431,55.426,129.764,101.122,37.558,45.966,54.231,99.8,45.75,147.683-11.607,65.568-68.067,115.562-113.388,145.955-23.755,15.933-49.268,30.3-73.941,44.191-31.107,17.513-63.273,35.626-92.1,57l-1.249.93c-12.462,9.307-24.575,19.4-36.291,29.164-15.041,12.532-30.6,25.492-47.071,36.947-35.329,24.558-69.711,37.546-102.194,38.608C2838.056,1641.167,2836.612,1641.187,2835.171,1641.187Zm-11.6-701.264q-49.315,0-91.7,14.959c-138.882,48.873-142.73,218.105-140.6,268.805,2.648,63.086,17.666,125.349,32.007,177.93,21.292,78.077,50.1,156.9,116.174,204.594,31.089,22.443,66.639,34.229,99.972,33.12,32.074-1.046,66.087-13.914,101.092-38.248,16.406-11.4,31.928-24.339,46.94-36.844,11.734-9.778,23.868-19.892,36.371-29.227l1.251-.93c28.931-21.445,61.152-39.589,92.31-57.131,24.64-13.877,50.12-28.221,73.811-44.111,45.026-30.2,101.114-79.829,112.617-144.8,8.4-47.407-8.145-100.742-45.385-146.318-37.138-45.456-88.57-77.681-129.231-100.675C3009.631,973.429,2908.682,939.923,2823.568,939.923Z" transform="translate(-2278.237 -648.959)"/></g><g transform="translate(214.44 1800.25)"><path d="M-15.857,2443.8h1511.5c-302.628-105.348-321.673-265.6-337.025-394.693-12.918-108.621-23.122-194.417-208.03-198.959C728.537,1844.7,702.856,1794.7,670.344,1731.4c-27.283-53.115-58.205-113.319-212.877-165.3-175.116-58.851-306.235-9.008-385.388,43.173-82.067,54.1-126.84,121.8-131.071,128.37Zm1536.43,4.087H-20.054L-63.5,1736.65l.326-.523c.449-.722,45.885-72.931,132.532-130.089,80.047-52.8,212.617-103.258,389.631-43.776,156.384,52.556,187.722,113.567,215.369,167.4,31.859,62.028,57.025,111.019,276.349,116.4,188.781,4.638,199.171,92,212.325,202.6,15.412,129.591,34.592,290.869,345.729,395.265Z" transform="translate(63.499 -1535.406)"/><path d="M96.827,1700.4c-69.2,44.812-108.773,101.984-116.515,113.49-8.54,12.293-2.651,180.1-2.815,180.706L6.346,2437.536H1349.221c-86.941-28.005-147.465-59.582-188.2-94.206-28.8-24.477-44.9-50.576-58.381-77.217-32.483-64.171-43.62-129.453-62.552-195.344-25.724-89.534-36.536-161.8-183.635-170.367-176.576-10.244-205.843-51.433-241.255-102.614-29.156-42.138-61.323-89.744-188.561-131.367q-16.593-5.376-32.718-9.455-21.552-5.483-42.211-8.786C241.407,1630.523,155.228,1662.894,96.827,1700.4Zm-2.183-2.646c52.572-33.879,126.993-62.782,220.361-56.474q18.189,1.229,37.116,4.053a526.263,526.263,0,0,1,83.46,19.787c130.875,42.674,165.08,91.284,195.656,135.576,35.2,51.026,64.32,92.91,240.842,107.276,48.233,3.926,83.426,14.825,110.113,30.486,56.335,33.059,66.572,88.329,75.52,152.23,4.8,34.271,8.16,69.857,16.331,105.314,8.621,37.406,22.3,74.4,53.164,109.771,42.422,48.771,114.019,94.053,232.391,131.714.2.047,3.548,1.151,3.746,1.2l6.779,2.166s-1367.181,0-1367.192-.117l-29.041-446.03v-.1c.021-.077-4.008-107.367.77-116.5,1.435-2.742-.21-61.9,1.944-65,.015-.021.274-.435.29-.457C-18.3,1805.705,21.68,1744.781,94.644,1697.759Z" transform="translate(62.75 -1545.774)"/><path d="M121.371,1791.5c-56.476,35.337-90.7,82.17-101.958,98.609C2.331,1914.693,1.494,2043.789,1.168,2045l27.177,386.236H1202.6c-85.349-25.192-142.067-52.9-176.612-84.009-26.285-23.671-35.128-49.05-43.8-75.7C963.8,2215,953.368,2158.563,921.348,2092.391c-34.073-70.416-49.952-129.179-159.24-141.773-131.1-15.038-163.688-47.425-202.268-86.483-30.8-31.178-64.332-66.463-164.245-97.435-9.131-2.83-18.213-5.319-27.218-7.571q-17.7-4.436-34.964-7.458C244.468,1736.278,172.717,1759.372,121.371,1791.5Zm-1.646-2.056c47.576-29.716,111.579-50.7,189.313-42.7q15.628,1.609,31.567,4.3a553.866,553.866,0,0,1,71.365,16.9c105.449,32.566,142.438,69,175.941,103.755,38.548,40.023,71.728,75.052,205.337,98.149,37.362,6.458,66.105,18.577,89.762,34.089,47.632,31.232,60.486,76.888,69.181,128.744,5.2,30.985,6.924,62,11.3,92.136,4.915,33.852,12.761,66.252,40.233,97.142,35.771,40.454,99.9,77.4,206.51,109.058.394.093,2.891.892,3.288.984l5.949,1.779s-1193.735,0-1193.756-.236l-27.325-388.51.008-.093c.04-.154.093-81.958,9.65-100.218,2.869-5.483,4.15-49,8.457-55.194.029-.042.222-.347.253-.39C25.911,1875.967,60.523,1826.421,119.725,1789.443Z" transform="translate(62.204 -1556.103)"/><path d="M145.882,1882.527c-43.591,26.072-72.637,62.358-87.4,83.729-25.622,36.879-33.186,127.259-33.675,129.071L50.31,2424.866H1055.937c-83.757-22.379-136.581-46.313-165.02-73.815-23.707-22.927-26-47.271-29.219-74.187-5.781-48.295-10.894-97.572-59.121-162.914-38.782-52.544-63.367-96.56-134.845-113.181-85.625-19.83-121.173-43.631-163.281-70.35-32.14-20.395-67.461-42.877-139.929-63.5-7.21-2.051-14.458-3.914-21.719-5.686q-13.84-3.389-27.718-6.13C247.53,1841.823,190.3,1855.958,145.882,1882.527Zm-1.109-1.465c42.652-25.463,96.156-38.5,158.264-28.92q13.065,2.014,26.018,4.551c20.086,3.918,39.813,8.492,59.27,14.016,79.928,22.7,119.8,46.721,156.228,71.936,41.893,29.022,79.189,57.767,169.831,89.021,26.51,9.141,48.831,22.261,69.41,37.691,39.03,29.265,54.629,65.42,62.842,105.258,5.708,27.688,5.467,54.2,6.267,78.958.98,30.346,3.221,58.1,27.3,84.511,29.121,32.138,85.789,60.75,180.628,86.4.59.14,2.235.632,2.83.772l5.119,1.393s-1020.29,0-1020.32-.353L22.855,2095.31l.014-.087c.061-.231,4.194-56.549,18.53-83.939,4.3-8.225,8.51-36.094,14.971-45.388.044-.065.171-.259.216-.324C70.093,1946.164,99.434,1908.131,144.773,1881.062Z" transform="translate(61.692 -1566.368)"/><path d="M72.277,2418.386h837c-82.166-19.565-130.973-39.816-153.427-63.62-21.015-22.275-18.06-45.627-14.638-72.673,5.107-40.363,10.9-86.11-57.4-146.7C551.6,2018.121,487.782,2003.171,317.231,1963.218q-9.984-2.342-20.471-4.8c-46.237-10.868-88.755-5.811-126.368,15.027-87.819,48.65-120.95,168.394-121.952,172.1Zm845.819,1.022H71.252l-.04-.471L47.32,2145.466l.021-.08c.081-.307,8.3-31.139,27.41-67.659C92.4,2044,123.221,1998.381,169.82,1972.57c37.879-20.982,80.679-26.075,127.215-15.143q10.49,2.466,20.47,4.8c170.757,40,234.65,54.967,367.072,172.434,30.6,27.141,49.078,53.885,56.5,81.773,6.481,24.334,3.694,46.354,1.236,65.778-3.391,26.8-6.319,49.946,14.374,71.883,22.684,24.047,72.609,44.482,157.119,64.307Z" transform="translate(61.18 -1576.521)"/></g><g transform="translate(359.015 2236.29)"><path d="M300.724,2337.012c-6.143,0-12.657-1.241-17.9-2.244-.868-.163-1.7-.322-2.478-.462-14.911-2.738-29.277-3.892-44.488-5.118l-4.8-.386c-2.544-.207-5.3-.243-8.22-.279-8.182-.1-17.457-.216-23.937-4.495-5.045-3.332-7.608-7.961-7.22-13.043.475-6.194,5.3-12.373,12.3-15.738,7.6-3.664,16.375-5.236,24.857-6.753l1.075-.2c17.245-3.1,65.864-3.185,83.822,14.979,6.5,6.566,8.215,14.827,5.1,24.554h0a9.159,9.159,0,0,1-1.263,2.542C313.916,2335.48,307.549,2337.012,300.724,2337.012Zm-48.847-49.268a132.1,132.1,0,0,0-21.76,1.561l-1.076.192c-8.4,1.5-17.094,3.061-24.555,6.654-6.661,3.205-11.255,9.056-11.7,14.907-.256,3.333.71,8.146,6.759,12.141,6.2,4.092,15.286,4.2,23.306,4.3,2.941.036,5.718.072,8.3.28l4.8.391c15.241,1.226,29.638,2.386,44.608,5.129.783.143,1.615.3,2.486.47,10.782,2.052,27.071,5.157,33.594-3.955a8.076,8.076,0,0,0,1.126-2.271h0c2.992-9.359,1.357-17.294-4.86-23.58C300.483,2291.4,273.015,2287.744,251.877,2287.744Z" transform="translate(-86.415 -2045.628)"/><path d="M365.472,2347.105a2.352,2.352,0,0,1-.348-.023c-7.755-1.118-150.294-2.191-161.7-2.191-8.014,0-15.207-3.277-21.381-9.747-16.184-16.95-21.076-51.235-19.159-64.857,1.682-11.954,8.734-21.7,20.96-28.948,23.879-14.173,62.991-15.642,87.012-8.877,2.488.7,5.042,1.493,7.595,2.355h0c31.963,10.756,85.458,28.765,98.533,64.614,9.285,25.456-1.055,39.5-4.444,43.2C370.039,2345.366,367.264,2347.105,365.472,2347.105ZM239.2,2230.331c-19.1,0-39.637,3.811-54.3,12.509-11.723,6.957-18.48,16.268-20.086,27.678-1.826,12.975,3.115,47.133,18.691,63.449,5.789,6.063,12.492,9.135,19.922,9.135,10.665,0,153.882,1.042,162,2.216.667.119,2.972-.938,5.633-3.841,3.224-3.516,13.048-16.906,4.088-41.481-12.778-35.031-65.725-52.855-97.361-63.5-2.52-.846-5.042-1.628-7.5-2.323A117.887,117.887,0,0,0,239.2,2230.331Z" transform="translate(-85.805 -2039.885)"/><path d="M458.047,2361.481a1.191,1.191,0,0,1-.2-.015c-5.682-.743-275.585-1.449-287.847-1.449-29.051,0-31.846-51.85-33.04-73.989l-.213-3.816c-1.606-26.158,3.378-51.3,14.03-70.8,24.547-44.917,76.066-53.231,114.95-52.373,37.4.866,79.316,10.957,112.133,26.989,35.2,17.207,63.611,40.667,82.149,67.847a121.877,121.877,0,0,1,6.49,10.593c26.154,48.374,9.014,78.691.431,89.48C464.812,2356.608,460.324,2361.481,458.047,2361.481Zm-197.71-199.948c-37.344,0-84.288,9.312-107.087,51.031-10.437,19.1-15.316,43.784-13.737,69.5l.214,3.831c1.055,19.573,3.858,71.558,30.268,71.563,2.749,0,276.412.654,287.986,1.453,1.509-.683,8.889-6.921,14.19-19.014,6.538-14.912,10.428-39.909-8.163-74.29a118.834,118.834,0,0,0-6.355-10.377c-18.279-26.8-46.324-49.95-81.1-66.945-32.456-15.86-73.914-25.839-110.9-26.693h0C263.906,2161.556,262.13,2161.533,260.337,2161.533Z" transform="translate(-85.26 -2033.015)"/><path d="M550.781,2383.611a.969.969,0,0,1-.157-.012c-5.572-.363-409.962-.714-413.993-.714-2.939,0-10.745,0-23.325-150.7a129.509,129.509,0,0,1,21.359-83.214,113.664,113.664,0,0,1,29.786-30.281c22.637-15.686,44.867-19.529,76.2-23.6h0c97.013-12.584,259.344,48.038,315.433,142.227,43.162,72.481,17.577,119.873,4.574,136.884C559.909,2375.182,553.39,2383.611,550.781,2383.611ZM153.1,2379.64c74.024,0,379,.288,397.25.651,3.946-3.552,54.628-53.966,2.574-141.377-55.428-93.075-215.866-152.988-311.768-140.535-30.773,4-52.587,7.759-74.532,22.965a110.422,110.422,0,0,0-28.895,29.388,126.367,126.367,0,0,0-20.824,81.2c8.759,104.918,16.314,145.149,20.126,147.723C137.453,2379.647,143.222,2379.64,153.1,2379.64Z" transform="translate(-84.766 -2026.544)"/><path d="M644.561,2407.622H101.071l-16.9-245.337c0-41.416,17.08-114.42,131.466-138.02,137.447-28.329,354.428,66.406,429.934,187.775,76.087,122.3.418,194.27-.355,194.985Zm-539.323-4.088H642.677c6.979-7.08,69.716-75.857-.962-189.467-74.7-120.072-289.242-213.862-425.112-185.812-105.745,21.816-127.977,84.877-128,133.966Z" transform="translate(-84.166 -2019.215)"/></g><g transform="translate(75.623)"><path d="M682.546-460c-119.9,0-225.351,34.2-303.311,101.744C269.85-263.481,214.518-146.3,187.364-64.67,157.93,23.8,154.331,90.7,154.3,91.371l0,.028c-.108,1.293-10.015,129.687,56.878,182.591,27.682,21.892,64.874,28.05,110.542,18.3,114.416-24.434,183.069-27.388,233.2-29.547,86.042-3.7,106.485-4.582,191.556-118.859,22.457-30.17,40.789-43.975,57.576-43.381,22.3.754,39.057,27.24,58.458,57.909,29.532,46.686,66.29,104.85,139.511,100.986,85.479-4.43,124.836-18.771,156.461-30.29,26.646-9.707,47.714-17.417,85.933-16.383,84.047,2.2,136.72-8.909,165.788-34.911,21.688-19.4,30.948-46.957,30.966-92.146C1441.2-2.279,1393.832-97,1304.186-188.251,1219.752-274.2,1104.905-348.73,980.8-398.114,876.8-439.5,775.34-460,682.546-460ZM282.054,298.568c-28.431,0-52.6-7.759-72.15-23.225C142.467,222,152.193,93.319,152.358,91.275c.067-1.264,3.771-68.15,33.13-156.416,27.224-81.844,82.7-199.362,192.415-294.413,73.652-63.812,168.238-98.177,281.128-102.132,100.327-3.544,211.88,17.9,322.54,61.932,124.353,49.483,239.438,124.172,324.054,210.3C1395.6-97.866,1443.141-2.73,1443.105,85.667c-.017,45.72-9.455,73.659-31.555,93.431-29.47,26.362-82.6,37.6-167.2,35.414-37.858-.963-58.727,6.625-85.163,16.256-31.754,11.57-71.273,25.966-157.069,30.417-74.411,3.892-111.5-54.767-141.3-101.876-19.112-30.21-35.617-56.3-56.849-57.019-15.9-.646-34.16,13.4-55.9,42.606C662.456,259.905,641.827,260.791,555,264.53c-50.054,2.151-118.606,5.1-232.851,29.5A192.321,192.321,0,0,1,282.054,298.568Z" transform="translate(197.811 462.064)"/><path d="M343.64-339.488C208.157-224.668,148.212-99.369,123.586-13.757c-16.964,58.978-15.776,104.615-19.271,128.2-.025.167.048.467.023.632s-.1.488-.125.653c-2.875,19-4.59,33.718-5.822,39.212l0,.029C95.175,169.486,83.1,301.3,150.595,353.891c29.966,23.235,72.192,26.751,125.891,11.445,6.533-1.862,13.022-3.685,19.458-5.511,112.126-31.8,185.523-41.464,240.366-47.032,38.241-3.883,66.034-5.645,90.408-12.109,15.242-3.605,28.363-9.169,42.238-15.455,16.093-7.29,31.092-14.738,46.771-23.459,11.345-6.311,24.69-12.425,38.149-22.893,22.322-17.363,39.8-23.2,56.683-17.278,16.3,5.717,29.949,21.1,45.492,36.97,7.245,7.4,15.248,15.046,23.641,22.826,43.207,40.055,100.892,84.119,167.912,75.243,28.267-3.744,49.322-12.86,68.725-20.214,37.574-14.241,63.4-27.5,90.941-37.646,7.789-2.859,15.452-5.457,23.39-7.655a283.5,283.5,0,0,1,35.725-7.753,305.047,305.047,0,0,1,37.818-2.991c97.2-2.122,148.609-16.883,174.792-53.334,16.15-22.483,24.325-49.5,22.626-92.128-.091-2.274-.235-4.551-.393-6.83-6.174-85.776-54.779-173.373-103.38-265.6-10.447-19.825-17.271-46.907-34.3-71.391a125.915,125.915,0,0,0-25.622-27.2c-77.949-61.122-186.636-114.968-303.29-153.683-35.381-11.742-70.8-22.078-106.037-30.476-93.165-22.247-183.051-31.751-264.47-28.58C535.206-445.2,424.751-408.229,343.64-339.488Zm-1.593-1.6c77.608-65.741,179.186-102.5,302.383-109.838,83.359-4.968,175.847,3.24,270.9,24.687a1261.754,1261.754,0,0,1,125.7,35.642c113,38.159,217.934,90.44,294.371,149.734A136.08,136.08,0,0,1,1363-211.981c17.978,25.427,25.551,53.218,36.541,73.968,48.7,91.957,97.516,179.217,103.985,264.851.2,2.695.37,5.384.475,8.071,1.689,43.053-6.724,70.32-23.143,93.176-26.627,37.065-79.008,52.207-175.945,54.349a298.619,298.619,0,0,0-40.315,3.427,294.57,294.57,0,0,0-35.69,8.138c-6.758,1.923-13.352,4.13-20.037,6.538-27.983,10.021-54.091,23.321-92.085,37.741-19.423,7.371-40.406,16.613-68.692,20.424-61.428,8.275-116.158-27.2-158.563-63.667-4.493-4.105-8.831-8.244-13.073-12.312C869.7,276.235,863.03,270,857.076,263.734c-16.593-17.457-30.729-34.634-47.488-40.784-16.081-5.9-33.475.206-55.068,17.017-13.523,10.528-26.893,16.748-38.282,23.119-15.133,8.466-29.756,15.753-45.334,23.063-39.6,18.584-74.53,22.731-135.323,29.165-56.132,5.941-129.409,16.111-237.178,46.2-7.18,2-14.405,4.079-21.716,6.116a235.731,235.731,0,0,1-44.709,8.307c-33.61,3.093-61.375-3.714-82.9-20.386C80.744,302.32,92.6,170.327,95.937,155c1.149-5.265,2.836-20.075,5.982-39.957,2.663-24.86,2.507-70.775,19.361-129.225C146.05-100.082,206.054-225.889,342.047-341.089Z" transform="translate(199.041 461.103)"/><path d="M308.035-320.782C146.293-186.063,82.387-52.348,59.8,37.1c-17.6,69.685-7.092,118.96-9.8,137.954-.021.133.157.534.137.666s-.14.576-.16.708c-2.347,15.347-5.056,31.333-7.506,42.025l0,.031c-6.318,27.738-20.555,162.98,47.536,215.251,32.248,24.577,79.545,25.644,141.24,4.59q10.645-3.632,21.362-7.366c120.319-42.2,202.914-59.019,265.086-68.173,42.476-6.254,74.3-8.8,101.5-13.974,18.463-2.884,33.985-7.134,49.078-10.4,20.75-4.492,39.472-10.626,53.715-6.158,12.164,3.817,25.679,4.188,39.285,1.562,21.381-4.128,38.838-2.214,55.79,8.824,17.042,11.1,31.77,28.475,49.574,42.034a297.5,297.5,0,0,0,30.235,19.649c57.222,33.344,135.593,62.41,196.313,49.5,29.716-6.319,49.236-21.435,69.2-33.689,33.847-20.775,60.258-39.348,93.668-51.741a235.641,235.641,0,0,1,26.148-8.075c13.245-3.235,26.219-6,39.864-8.039,13.488-2.039,27.269-3.4,41.92-4.3,110.385-6.767,161.121-23.427,183.8-71.757,11.49-24.49,17.609-52.057,14.286-92.112-.186-2.244-.433-4.487-.689-6.732-9.774-85.589-58.806-172.3-69.879-264.217-2.647-21.981,3.427-57.543-10.017-88.97a87.973,87.973,0,0,0-26.563-34.59c-85.275-67.621-220.024-128.624-366.461-171.12-42.261-12.264-84.887-23.077-127.415-31.67C848.916-435.9,741.125-444.092,645.7-437.752,507.755-430.47,392.161-390.853,308.035-320.782Zm-1.854-1.9c81.442-67.79,190.13-107.069,323.638-117.546,97.083-7.618,207.019-.636,320.738,21.447,50.24,9.749,100.524,22.5,149.936,37.279,140.939,42.142,269.81,101.237,353,166.682a94.23,94.23,0,0,1,28.436,36.546c14.217,32.565,8.647,68.63,11.518,91.642,11.4,91.382,60.692,177.565,70.624,262.792.308,2.645.6,5.289.817,7.932,3.3,40.374-3.068,68.108-14.729,92.92-23.149,49.256-75.388,66.574-184.694,73.284-15.7.964-30.35,2.5-44.676,4.779-13.574,2.151-26.522,5.02-39.834,8.347-7.74,1.924-15.133,4.229-22.413,6.824-34.108,12.079-60.826,30.718-95,51.739-20.069,12.344-39.541,27.691-69.485,34.173-55.879,12.1-128.7-10.86-185.127-40.034-5.79-3.284-11.393-6.673-16.844-10.048-8.778-5.435-17.377-10.657-24.847-16.477-19.1-14.885-34.431-34.122-52.05-46.047-16.233-10.988-33.531-12.588-54.233-8.573-13.644,2.646-26.516-1.1-39.371-1.337-14.531-.269-31.953,1.665-52.027,6.283-42.78,9.842-86.083,15.769-153.412,26.115C451,376.049,368.039,394,255.019,433.018c-7.969,2.752-15.882,5.526-23.811,8.16a283.864,283.864,0,0,1-49.317,12.075c-38.788,6.184-70.194.376-93.648-17.547C18.894,382.71,33,247.275,39.505,218.666c2.269-9.963,4.887-25.91,7.729-42.841,1.059-21.466-7.429-70.948,9.828-139.107C79.805-53.1,143.75-187.481,306.181-322.682Z" transform="translate(200.28 460.202)"/><path d="M272.425-302.121C84.283-147.646,16.87-5.3-4,87.908-22,168.352-2.406,221.213-4.318,235.617c-.015.1.266.6.251.7s-.179.664-.195.764c-1.819,11.693-5.522,28.949-9.188,44.837l0,.032C-22.879,322.911-39.28,461.578,29.41,513.531,63.941,539.45,116.361,538.2,186,511.266q11.5-4.448,23.263-9.222c128.588-52.412,220.312-76.528,289.809-89.313,46.715-8.594,82.571-11.962,112.589-15.84,21.685-2.163,39.871-7.126,55.917-5.347,25.458,2.822,46.634,3.318,60.66,11.142,14.615,8.154,25.964,20.114,40.42,26.016a176.153,176.153,0,0,1,54.9,34.927c17.7,16.592,33.8,35.68,53.655,47.1C888.123,517,900.726,522.272,914.04,527.2c71.407,26.428,170.219,39.847,224.715,23.757,31.164-9.2,49.387-29.571,69.677-47.165,30.56-26.5,57.111-51.192,96.4-65.836a211.052,211.052,0,0,1,28.906-8.494c14.875-3.242,29.306-6.074,44-8.326,15.3-2.367,30.5-4.146,46.023-5.609,123.559-11.644,175.028-29.271,192.8-90.181,7.614-26.1,10.794-54.614,5.947-92.095-.287-2.214-.636-4.424-.987-6.635-13.543-85.395-58.55-172.988-36.376-262.83,6.059-24.549,24.295-68.235,14.265-106.548-4.3-16.421-13.3-30.564-27.5-41.984-92.6-74.118-253.349-142.472-429.632-188.557-49.123-12.842-98.974-24.076-148.793-32.863C862.4-429.339,736.7-436.215,627.26-426.7,480.3-415.78,359.485-373.6,272.425-302.121Zm-2.116-2.2c85.2-69.908,201.06-111.787,344.893-125.252,110.8-10.374,238.191-4.512,370.569,18.206,58.524,10.036,117.027,23.375,174.171,38.918,168.934,45.948,321.685,112.034,411.632,183.627,15.05,12.05,24.657,26.939,29.281,44.212,10.615,39.647-7.284,83.584-13.506,109.314-21.512,88.957,23.7,175.922,37.263,260.733.415,2.6.825,5.192,1.158,7.793,4.823,37.694,1.4,66.31-6.317,92.664-18.216,62.18-71.775,80.723-193.442,92.217-16.6,1.569-32.768,3.528-49.037,6.129-14.643,2.334-29.052,5.245-43.976,8.556a209.565,209.565,0,0,0-24.789,7.111c-40.233,14.136-67.094,38.965-97.917,65.736-20.466,17.776-38.683,38.452-70.278,47.925-50.412,15.114-141.251,5.479-211.692-16.4-7.088-2.463-13.961-5.093-20.615-7.784-10.808-4.369-21.237-8.658-30.31-13.967-21.374-12.506-38.23-33.493-56.61-51.309-16.472-15.967-34.6-26.491-53.4-34.163-14.441-5.892-25.865-17.709-40.46-25.791-13.551-7.5-33.92-11.838-58.72-10.5-45.413,2.454-97.618,8.923-171.5,23.065-74.141,14.19-166.688,40.128-285.075,87.755-8.75,3.52-17.357,6.979-25.906,10.2-19.24,7.259-37.2,12.587-53.927,15.843-43.966,9.274-78.976,4.428-104.4-14.707-70.25-52.882-54.01-191.635-44.335-233.526,3.391-14.664,6.939-31.745,9.477-45.726C-8,218.489-24.624,165.488-7.161,87.574,13.835-6.106,81.309-149.25,270.31-304.321Z" transform="translate(201.525 459.345)"/><path d="M236.811-283.494C22.143-109.4-48.443,41.746-67.793,138.684-86,229.921-57.52,286.334-58.64,296.147c-.01.066.375.668.365.734s-.22.753-.23.819c-1.292,8.041-5.988,26.565-10.872,47.65l-.006.032c-12.529,54.185-31.1,196.276,38.194,247.912,36.813,27.261,94.411,23.8,171.94-9.119q12.36-5.248,25.166-11.078c136.934-62.489,237.751-93.877,314.53-110.454a920.111,920.111,0,0,1,123.68-17.7c24.906-1.442,45.476-1.885,62.757-.293,30.363,2.8,53.593,13.4,67.6,28.443,15.354,16.482,27.026,35.347,41.557,50.47,18.346,19.092,36.648,40.006,54,61.029,18.262,22.12,35.923,42.706,57.737,52.163,12.849,5.57,27.667,9.739,43.421,13.294,85.615,19.32,204.621,16.613,253.116-1.986,32.485-12.459,49.935-37.446,70.154-60.641,27.809-31.9,53.966-63.035,99.125-79.93a200.379,200.379,0,0,1,31.663-8.914c16.505-3.25,32.393-6.15,48.142-8.614,17.109-2.694,33.723-4.911,50.126-6.916,136.7-16.715,190.459-34.99,201.8-108.6,4.268-27.7,3.879-57.164-2.393-92.079-.393-2.185-.841-4.361-1.285-6.538-17.36-85.194-55.343-172.106-2.875-261.443,15.666-26.674,45.27-78.915,38.547-124.126-2.928-19.7-12.306-36.315-28.442-49.377-99.925-80.616-286.645-156.45-492.8-205.994-55.978-13.453-113.061-25.074-170.171-34.056-150.041-23.638-293.642-29.2-417.093-16.518C452.841-401.124,326.754-356.438,236.811-283.494Zm-2.377-2.5c88.923-72.074,211.977-116.6,366.148-132.96,124.5-13.21,269.364-8.388,420.4,14.965,66.806,10.323,133.539,24.208,198.405,40.555C1416.347-313.8,1592.951-240.6,1689.651-162.858c17.03,13.751,26.978,31.2,30.126,51.876,7.117,46.738-22.225,99.012-38.531,126.986-51.36,88.116-13.349,174.285,3.9,258.674.521,2.548,1.045,5.1,1.5,7.654,6.241,35.021,6.424,64.526,2.1,92.409-11.678,75.241-68.192,94.694-202.191,111.152-17.5,2.15-35.184,4.556-53.4,7.481-15.711,2.516-31.581,5.469-48.118,8.765a198.3,198.3,0,0,0-27.167,7.4c-46.357,16.194-72.8,47.546-100.831,79.733-20.447,23.48-37.962,48.829-71.071,61.674-45.158,17.521-153.8,21.818-238.257,7.231-8.386-1.642-16.533-3.506-24.389-5.519-12.841-3.292-25.048-6.75-35.773-11.457-23.537-10.329-42.117-32.83-61.171-56.572-16.789-20.919-34.712-41.173-52.565-59.752-14.5-15.089-26.227-33.851-41.549-50.247-13.526-14.474-35.994-24.779-65.413-27.278-48.281-4.1-109.127,2.153-189.589,20.015-83.11,18.45-185.144,52.512-309.022,108.532-9.523,4.305-18.83,8.436-28,12.248q-31.377,13.04-58.535,19.612c-49.146,12.363-87.711,8.423-115.144-11.869-71.026-52.91-52.776-194.839-39.931-250.012,4.511-19.363,8.989-37.579,11.224-48.61-2.15-14.681-26.727-71.171-9.24-158.87C-51.945,40.89,18.75-111.173,234.434-285.992Z" transform="translate(202.774 458.522)"/><path d="M201.194-264.9C-40.421-71.625-113.614,88.771-131.593,189.427c-18.228,102.05,18.955,162,18.627,167.217-.006.033.483.735.478.768s-.259.842-.264.874c-.765,4.389-6.454,24.18-12.555,50.464l-.007.033c-15.635,67.407-36.366,212.922,33.523,264.242,39.1,28.6,101.919,23,187.29-15.974q13.228-6.039,27.069-12.933c145.35-72.48,255.156-111.386,339.251-131.594,55.226-13.168,99.108-18.277,134.77-19.57,28.127-.721,51.026,1,69.6,4.76,34.878,7.061,60.131,23.169,74.549,45.745,15.686,24.562,28.555,50.808,42.693,74.924,17.978,30.667,35.458,61.128,53.113,87.133,18.769,27.646,38.053,49.581,61.819,57.227,14.8,4.762,31.81,7.911,50.014,10.117,99.776,12.086,238.68-7.093,281.517-27.73,33.53-16.153,50.863-45.22,70.631-74.116,25.5-37.274,50.819-74.88,101.851-94.026a196.482,196.482,0,0,1,34.421-9.333c18.136-3.257,35.479-6.226,52.282-8.9,18.92-3.021,36.943-5.693,54.229-8.225,149.8-21.944,207.189-40.935,210.8-127.027,1.237-29.444-3.136-59.69-10.734-92.061-.505-2.154-1.05-4.3-1.582-6.441-21.348-84.955-51.789-169.094,30.628-260.055,25.53-28.178,66.305-89.57,62.83-141.7-1.531-22.971-11.312-42.067-29.383-56.77-107.249-87.115-319.848-170.81-555.975-223.433-62.809-14.162-127.148-26.072-191.549-35.248-169-24.1-330.505-28.349-467.967-12.5C425.377-386.5,293.87-339.468,201.194-264.9Zm-2.639-2.8c92.508-74.382,222.85-121.709,387.4-140.668,138.167-16.3,300.535-12.264,470.233,11.723,75.09,10.612,150.08,24.932,222.64,42.195,225.073,52.973,425.438,133.627,528.892,217.521,19.01,15.45,29.327,35.477,30.97,59.54,3.677,53.853-36.872,115.124-63.554,144.658-80.838,89.478-50.571,172.689-29.46,256.615.621,2.5,1.255,5,1.842,7.516,7.561,32.371,11.77,62.584,10.509,92.153-3.758,88.067-64.646,108.515-210.941,130.087-18.411,2.715-37.6,5.583-57.759,8.83-16.78,2.7-34.112,5.694-52.261,8.975a194.253,194.253,0,0,0-29.542,7.683c-52.484,18.252-78.054,56.152-103.748,93.731-20.026,29.29-37.521,58.772-71.864,75.426-40.221,19.5-166.343,38.157-264.821,30.863-9.683-.821-19.1-1.9-28.16-3.255-14.875-2.181-28.846-4.933-41.236-8.946-25.693-8.322-46.062-32.168-65.731-61.835-17.155-25.874-34.238-55.5-51.73-85.342-14.109-24.068-27-50.238-42.639-74.7-13.907-21.748-38.314-37.339-72.106-44.057-51.622-10.264-120.615-4.569-207.677,16.965-92.058,22.769-203.487,65.039-332.972,129.308-10.283,5.1-20.294,9.906-30.1,14.292A448.01,448.01,0,0,1,31.6,684.957c-54.324,15.453-96.489,12.469-125.894-9.029-71.922-52.8-51.542-198.043-35.526-266.5,5.631-24.062,11.039-43.415,12.971-51.495-3.754-11.287-36.122-71.25-18.773-168.75C-117.59,87.863-44.183-73.525,198.555-267.7Z" transform="translate(204.027 457.732)"/><path d="M589.047,540.967c31.349,0,56.431,3.931,76.437,9.815,39.159,11.514,66.577,32.727,81.493,63.045,15.963,32.445,30.129,66.474,43.829,99.378,36.641,88.014,68.286,164.023,118.121,175.526C1017.942,913.9,1231,868.671,1275.452,842.2c34.129-20.323,52.09-53,71.107-87.592,28.075-51.072,57.107-103.883,141.759-117.873q29.65-4.9,56.42-9.188c206.514-33.358,283.786-45.844,278.14-154.983-1.739-33.619-11.507-66.546-20.953-98.388-25.141-84.75-48.888-164.794,64.13-258.668,35.286-29.312,87.375-100.2,87.112-159.282-.115-26.23-10.318-47.818-30.323-64.163-144.592-118.141-486.754-232.174-832.073-277.31-187.957-24.567-367.369-27.5-518.841-8.478-174.02,21.849-310.739,71.448-406.357,147.421C-102.488-33.331-178.68,135.793-195.4,240.168c-18.077,112.876,27.637,176.341,28.1,176.972l.591.8-.3.93c-.846,2.622-83.419,262.954,14.606,333.882,45.555,32.968,123.483,20.312,231.61-37.617C333.121,579.111,491.411,540.967,589.047,540.967Zm397.43,359.159c-29.054,0-56.053-2.215-78.631-7.428-52.074-12.026-84.1-88.952-121.187-178.029-13.677-32.852-27.818-66.822-43.728-99.158-14.375-29.22-40.887-49.687-78.8-60.838-115.143-33.854-322.075,24.382-582.684,164-109.855,58.851-189.459,71.4-236.588,37.293-98.443-71.235-22.663-317.658-16.4-337.362-5.359-7.9-45.371-71.32-28.308-178.632C-183.135,134.835-106.67-35.406,162.673-249.4c96.281-76.5,233.772-126.414,408.658-148.373C723.2-416.849,903.038-413.919,1091.4-389.3c346.1,45.241,689.215,159.682,834.4,278.3,20.99,17.15,31.694,39.76,31.815,67.2.271,60.994-51.636,131.646-88.578,162.331-110.99,92.189-87.593,171.056-62.823,254.556,9.51,32.058,19.344,65.2,21.106,99.274,5.832,112.736-78.373,126.338-281.808,159.2q-26.774,4.322-56.4,9.184c-82.474,13.63-111,65.516-138.582,115.7-19.295,35.1-37.519,68.25-72.657,89.176C1242.175,866.883,1098.973,900.127,986.477,900.127Z" transform="translate(205.282 456.944)"/></g><g transform="translate(480.897 178.915)"><path d="M449.628,205.6c-101.13,0-200.7-16.164-229.47-107.831-16.735-53.323-15.288-90.186,4.838-123.262C246.656-61.082,290.484-92.3,367.106-126.7c86.891-39.018,255.3-77.254,347.952-96.571,97.04-20.235,236.455-45.2,245.853-39.429,4.188,2.57,404.045,279.371,350.467,360.36-21.114,31.914-46.895,35.7-82.577,40.943-19.772,2.906-42.184,6.2-69.368,14.835l-5.395,1.74c-34.1,11.052-105.065,34.057-178.018-2-35.532-17.566-59.652-42.575-80.934-64.638C862.8,55.05,837.287,28.612,786.3,38.7c-35.064,6.945-50.92,31.823-69.278,60.631-27.9,43.772-62.616,98.252-181.7,103.684C507.722,204.274,478.6,205.6,449.628,205.6Zm504.6-461.347c-19,0-121,16.069-242.247,41.5C621.124-195.2,456.017-157.535,371-119.358,215.595-49.576,201.147,7.75,228.688,95.505c35.061,111.719,185.4,104.866,306.195,99.346C649.17,189.639,681.146,139.465,709.358,95.2c18.61-29.2,36.189-56.787,75.071-64.486,56.056-11.083,84.438,18.325,117.3,52.393,20.791,21.556,44.355,45.987,78.5,62.866,69.5,34.353,137.962,12.157,170.867,1.492l5.447-1.756,1.449,3.864-1.449-3.864c27.917-8.873,50.735-12.221,70.867-15.179,34.572-5.077,57.412-8.433,76.394-37.126,19-28.725-34.516-99.011-150.7-197.918-90.457-77-188.14-145.516-196.681-151.112A15.5,15.5,0,0,0,954.225-255.743Z" transform="translate(-208.652 263.548)"/></g><g transform="translate(1426.959 1516.89)"><path d="M1556.724,1619.683a7.7,7.7,0,0,1-3.32-.727c-3.119-1.481-4.567-4.786-5.385-7.141a41.779,41.779,0,0,1-1.945-19.206c.475-3.524,2.818-10.045,7.083-12.54a7.07,7.07,0,0,1,5.818-.671c2.466.743,3.914,2.934,4.9,4.761a43.385,43.385,0,0,1,4.677,15.8h0c.4,4.366.168,10.549-3.195,15.187A11.243,11.243,0,0,1,1556.724,1619.683Zm.051-39.594a5.88,5.88,0,0,0-3.023.846c-3.733,2.183-6.094,8.214-6.576,11.8a40.808,40.808,0,0,0,1.9,18.767c.756,2.183,2.081,5.236,4.834,6.541,3.688,1.736,8.331-.439,10.52-3.464,3.185-4.395,3.4-10.33,3.012-14.532h0a42.353,42.353,0,0,0-4.567-15.434c-.887-1.648-2.172-3.62-4.247-4.242A6.326,6.326,0,0,0,1556.774,1580.089Z" transform="translate(-1182.689 -1256.356)"/><path d="M1580.782,1654.9c-8.062,0-13.985-4.566-19.725-9-1.307-1.01-2.612-2.016-3.942-2.966-8.262-5.923-18.074-8.365-27.561-10.724-10.8-2.686-21.976-5.465-31.006-13.363-8.453-7.391-12.492-16.1-12.01-25.9.881-17.909,16.811-35.661,31.426-46.3l.213-.152c13.968-10.178,35.067-25.556,52.455-21.916,7.558,1.581,13.675,6.677,18.179,15.151,3.023,5.687,6.651,15.354,9.7,25.854,4.006,13.8,15.893,60.384.624,80.463a22.168,22.168,0,0,1-16.585,8.777Q1581.65,1654.9,1580.782,1654.9Zm-15.6-129.331c-15.589,0-33.623,13.135-45.974,22.131l-.214.156c-14.325,10.428-29.937,27.771-30.794,45.164-.459,9.332,3.408,17.649,11.493,24.722,8.725,7.631,19.2,10.237,30.295,13,9.646,2.4,19.622,4.877,28.15,10.992,1.343.963,2.665,1.98,3.987,3,6.164,4.757,11.989,9.227,20.277,8.573a20.56,20.56,0,0,0,15.367-8.13c11.806-15.526,7.292-51.083-.868-79.186-3.023-10.413-6.608-19.976-9.587-25.583-4.272-8.035-10.008-12.856-17.052-14.329A25.038,25.038,0,0,0,1565.182,1525.564Z" transform="translate(-1181.45 -1250.923)"/><path d="M1599.01,1694.333c-.317,0-.634,0-.954-.008-15.547-.24-25.148-9.707-34.432-18.866-2.357-2.323-4.793-4.726-7.286-6.937-16.108-14.277-36.271-18.5-55.769-22.574-18.438-3.86-37.5-7.847-53.568-20.188-21.932-16.846-28.273-47.647-15.076-73.235,10.621-20.595,32.443-36.1,55.773-51.483l4.867-3.225c27.9-18.543,70.058-46.582,103.94-29.128,24.738,12.728,39.021,40.4,42.453,82.255h0a274.383,274.383,0,0,1-.295,44.865c-.535,6.43-.258,14.52.032,23.085.8,23.281,1.782,52.254-13.454,66.486C1618.88,1691.324,1610.058,1694.333,1599.01,1694.333Zm-25.975-229.081c-27.687,0-57.715,19.96-79.17,34.221l-4.875,3.229c-23.085,15.214-44.667,30.545-55.06,50.7-12.769,24.758-6.675,54.528,14.492,70.785,15.656,12.029,34.457,15.961,52.639,19.769,19.795,4.139,40.264,8.421,56.816,23.1,2.536,2.248,4.993,4.67,7.37,7.013,9.382,9.251,18.243,17.993,32.847,18.216,11,.155,19.38-2.559,25.565-8.334,14.571-13.61,13.6-42.1,12.818-64.99-.294-8.62-.571-16.767-.027-23.308a272.477,272.477,0,0,0,.3-44.554h0c-3.373-41.126-17.277-68.25-41.324-80.627A48.274,48.274,0,0,0,1573.035,1465.252Z" transform="translate(-1180.165 -1244.916)"/><path d="M1623.139,1734.07q-4.64,0-9.812-.263c-23.3-1.205-36.665-15.77-50.818-31.188-15.589-16.987-33.259-36.236-67.7-40.363-2.49-.3-4.982-.524-7.41-.667-36.729-2.067-69.483-12.349-92.224-28.952-28.88-21.086-39.679-59.574-26.26-93.595,14.5-36.767,52.829-61.114,86.646-82.6l1.61-1.022c35.129-22.327,100.508-63.864,148.476-49.192,21.885,6.709,38.211,24.45,48.527,52.732,1.392,3.82,2.992,7.675,4.686,11.758,5.974,14.405,13.411,32.334,18.883,65.5h0c2.707,16.42,3.331,28.868,1.964,39.178-1.177,8.852-3.441,16.121-5.63,23.146-4.141,13.283-8.421,27.021-6.416,53.2.381,4.849.8,9.507,1.2,13.96.294,3.277.578,6.446.83,9.508,1.778,21.556,2.293,38.843-8.343,48.832C1654.127,1730.821,1641.865,1734.07,1623.139,1734.07Zm-39.3-328.366c-43.559,0-95.315,32.9-125.089,51.817l-1.61,1.026c-33.476,21.265-71.418,45.368-85.615,81.365-13.016,33.007-2.581,70.31,25.377,90.72,22.3,16.284,54.5,26.374,90.674,28.41,2.492.143,5.045.375,7.595.682,35.509,4.255,53.549,23.908,69.464,41.246,14.353,15.638,26.75,29.14,48.854,30.285,23.5,1.174,38.07-1.664,45.88-9,9.82-9.228,9.283-25.951,7.559-46.857-.253-3.053-.536-6.215-.83-9.488-.4-4.466-.817-9.132-1.2-13.993-2.037-26.626,2.311-40.583,6.517-54.078,2.259-7.252,4.393-14.1,5.542-22.753,1.337-10.074.716-22.3-1.953-38.484-5.427-32.9-12.8-50.68-18.731-64.973-1.7-4.107-3.313-7.986-4.723-11.854-10.024-27.484-25.76-44.682-46.773-51.12A71.253,71.253,0,0,0,1583.834,1405.7Z" transform="translate(-1178.87 -1238.989)"/><path d="M1646.249,1773.843c-5.424,0-11.314-.227-17.709-.671-30.409-2.12-47.539-21.685-65.676-42.391-21.131-24.13-42.982-49.084-88.549-54.213-3.154-.359-6.417-.623-9.7-.786-48.595-2.323-91.692-15.247-121.349-36.38-27.521-19.617-43.043-53.8-40.511-89.216,2.365-33.079,19.993-61.788,57.158-93.083,18.548-15.622,39.725-30.685,66.646-47.4,46.346-29.036,132.627-83.113,196.253-62.85,29.138,9.264,50.611,33.355,63.824,71.595,1.812,5.245,3.919,10.53,6.149,16.125,7.668,19.234,17.21,43.17,23.512,87.053h0c2.968,20.679,3.312,36.787,1.083,50.693-1.807,11.255-4.966,20.383-8.022,29.207-5.857,16.919-11.912,34.409-9.4,68.61.5,6.745,1.069,13.187,1.608,19.31q.488,5.544.924,10.744c2.324,28.294,2.933,49.276-10.486,61.633C1683.136,1769.979,1668.709,1773.843,1646.249,1773.843Zm-53.755-428.367c-57.5,0-125.063,42.327-164.066,66.758-26.788,16.639-47.843,31.615-66.266,47.128-36.482,30.724-53.779,58.8-56.083,91.024-2.461,34.412,12.569,67.591,39.225,86.59,29.126,20.758,71.561,33.454,119.488,35.75,3.363.163,6.7.435,9.929.8,46.907,5.281,70.192,31.87,90.736,55.331,17.67,20.176,34.363,39.237,63.333,41.257,31.4,2.175,50.736-1.146,60.858-10.465,12.415-11.434,11.778-31.762,9.52-59.234-.284-3.46-.6-7.036-.922-10.728-.54-6.135-1.107-12.589-1.609-19.35-2.556-34.783,3.6-52.556,9.551-69.746,3.154-9.113,6.133-17.717,7.9-28.725,2.185-13.615,1.839-29.455-1.09-49.846-6.251-43.548-15.723-67.3-23.334-86.394-2.244-5.628-4.364-10.948-6.2-16.256-12.878-37.266-33.648-60.691-61.737-69.624A96.05,96.05,0,0,0,1592.494,1345.477Z" transform="translate(-1177.6 -1232.991)"/><path d="M1668.778,1813.614c-7.576,0-15.923-.375-25.107-1.118-37.543-3.034-58.455-27.588-80.593-53.586-25.9-30.421-52.691-61.88-109.343-68.07-3.864-.427-7.894-.731-11.984-.906-60.323-2.574-113.763-18.136-150.477-43.812-28.213-19.737-45.939-49.008-49.909-82.435-4.539-38.192,9.281-78.943,36.966-109.008,34.472-37.431,78.755-66.877,117.528-90.745,57.794-35.706,165.375-102.176,244.219-76.436,36.292,11.842,62.851,42.247,78.935,90.373,2.23,6.673,4.843,13.39,7.61,20.5,9.363,24.058,21.015,54,28.145,108.6,3.255,24.933,3.32,44.706.2,62.212-2.434,13.666-6.488,24.666-10.41,35.3-7.573,20.539-15.407,41.78-12.388,84,.622,8.657,1.337,16.887,2.015,24.682q.535,6.161,1.019,11.95c2.811,34.309,3.552,59.732-12.625,74.445C1712.112,1809.08,1695.1,1813.614,1668.778,1813.614ZM1601.4,1285.287c-71.259,0-154.957,51.705-203.377,81.616-38.552,23.732-82.566,53-116.727,90.09-27.009,29.327-40.493,69.072-36.068,106.307,3.854,32.437,21.043,60.838,48.4,79.972,36.094,25.244,88.763,40.547,148.306,43.085,4.185.184,8.311.495,12.264.93,58.254,6.366,86.777,39.865,111.942,69.415,21.6,25.372,42.008,49.336,77.873,52.234,39.847,3.208,63.242-.467,75.841-11.922,14.99-13.634,14.214-38.288,11.482-71.631q-.476-5.783-1.018-11.934c-.679-7.811-1.4-16.061-2.018-24.733-3.069-42.93,4.89-64.514,12.585-85.385,4.051-10.984,7.876-21.357,10.257-34.728,3.057-17.17,2.984-36.619-.226-61.214h0c-7.078-54.192-18.647-83.923-27.945-107.811-2.782-7.151-5.411-13.9-7.667-20.654-15.7-46.988-41.448-76.612-76.519-88.058A120.084,120.084,0,0,0,1601.4,1285.287Z" transform="translate(-1176.303 -1226.998)"/><path d="M1691.148,1853.4c-9.694,0-20.471-.535-32.449-1.593-44.68-3.948-69.374-33.5-95.52-64.789-32.832-39.294-66.783-79.929-144.4-82.958-99.386-3.884-222.2-42.271-241.221-137.678a135.224,135.224,0,0,1,6.152-74.344l2.1.659-2.1-.659c14.572-39.421,46.938-78,98.948-117.933,23.895-18.344,50.847-36.647,82.4-55.952,69.237-42.376,198.118-121.226,292.182-90.026,43.451,14.42,75.094,51.143,94.049,109.161,2.646,8.094,5.764,16.236,9.065,24.857,11.062,28.889,24.827,64.838,32.784,130.151,7.41,60.818-3.208,88.438-13.478,115.143-9.289,24.163-18.9,49.148-15.374,99.369.739,10.553,1.6,20.555,2.415,30,4.091,47.46,7.047,81.752-13.579,100.432C1741.05,1848.17,1721.41,1853.4,1691.148,1853.4Zm-80.954-628.328c-85.022,0-184.848,61.089-242.679,96.48-31.417,19.225-58.243,37.441-82.013,55.689-51.365,39.441-83.286,77.423-97.589,116.113a131.509,131.509,0,0,0-5.989,72.293c18.555,93.036,139.291,130.509,237.045,134.325,79.684,3.117,115.836,46.378,147.73,84.55,25.54,30.568,49.664,59.438,92.425,63.213,47.94,4.23,75.969.1,90.884-13.411,19.149-17.341,16.262-50.836,12.267-97.194-.817-9.467-1.68-19.489-2.421-30.062-3.58-51.061,6.182-76.444,15.62-100.994,10.567-27.484,20.548-53.443,13.252-113.328-7.9-64.85-21.574-100.555-32.56-129.244-3.319-8.668-6.453-16.855-9.129-25.044-18.528-56.7-49.248-92.533-91.3-106.486A144.069,144.069,0,0,0,1610.194,1225.075Z" transform="translate(-1174.931 -1221.004)"/></g><g transform="translate(994.05 335.706)"><path d="M1761.987,1921.648c-8.8,0-17.693-.268-26.611-.814-78.181-4.791-139.983-30.166-169.558-69.616-95.2-126.993-248.665-202.2-469.172-229.906-48.353-3.7-95.6-18.088-136.6-41.6-43.247-24.8-77.054-58.608-97.769-97.761-25.166-47.572-30.331-99.449-14.936-150.015,14.18-46.582,44.837-90.405,88.653-126.733,44.236-36.68,94.291-61.9,153.024-77.107,13.526-3.5,27.511-7.044,41.035-10.469,115.822-29.324,235.587-59.645,328.744-127.512,30.442-22.183,41.125-48.577,52.435-76.516,6.617-16.352,13.461-33.259,24.6-50.022,28.492-42.858,80.58-63.209,127.165-78.915,64.852-21.864,117.7-20.407,177.115-11.471,50.1,7.528,102.085-16.391,129.385-59.521,52.748-83.341,22.2-177.555-7.343-268.663-12.808-39.5-24.906-76.811-30.362-112.9-8.942-59.158,5.715-98.671,43.565-117.446,24.34-12.073,54.631-27.1,71.908-52.62,7.62-11.26,12.684-23.864,17.582-36.053,2.286-5.691,4.65-11.574,7.246-17.254,8.764-19.17,21.756-36.444,34.313-52.492,67.808-86.678,182.15-87.257,314.545-87.927l10.744-.048c129.625,0,866.26,56.029,1012.611,67.261l.384.032.1.34c6.456,21.113,18.741,22.917,29.579,24.506,9.227,1.356,17.94,2.633,21.038,15.525l.134.563-.62.056c-57.517,5.408-92.819,94.077-111.786,141.712-3.926,9.863-7.028,17.653-9.512,22.659-28.151,56.691-68.573,97.829-120.142,122.271-44.5,21.09-98.874,30.39-161.569,27.719-115.307-4.961-238.208-48.094-336.961-82.754l-14.262-5c-133.109-46.6-379.026,53.059-459.836,85.808-4.361,1.768-8.216,3.328-11.516,4.65-34.35,13.75-57.021,42.335-67.388,84.958-6.734,27.7-8.262,60.986-4.673,101.76,6.509,73.905-39.463,103.617-92.693,138.012-24.468,15.814-49.768,32.162-72.816,54.285-56.373,54.113-58.3,124.379-60.336,198.768-.345,12.564-.7,25.552-1.346,38.284-4.227,83.536-9.827,166.661-16.645,247.065-1.164,13.734-2.53,28.138-3.976,43.389-6.344,66.9-13.536,142.723-7.67,203.952,2.138,22.327,6.413,47.7,10.937,74.556,17.03,101.1,38.225,226.918-36.721,302.943C1892.02,1905.914,1829.749,1921.648,1761.987,1921.648Zm-195.256-71.011c29.382,39.193,90.878,64.409,168.719,69.179,77.25,4.754,152.839-11.635,179.741-38.922,74.59-75.662,53.44-201.214,36.445-302.1-4.527-26.873-8.8-52.262-10.945-74.624-5.875-61.318,1.321-137.187,7.67-204.128,1.446-15.251,2.812-29.651,3.976-43.381,6.815-80.392,12.416-163.5,16.643-247.034.644-12.719,1-25.7,1.343-38.26,1.954-71.312,3.975-145.053,60.645-199.454,23.124-22.192,48.469-38.571,72.98-54.408,52.951-34.221,98.682-63.772,92.226-137.1-3.6-40.879-2.064-74.262,4.7-102.06,10.447-42.961,33.334-71.787,68.028-85.672,3.3-1.321,7.152-2.882,11.512-4.65,80.915-32.788,327.15-132.569,460.677-85.832l14.262,5c98.681,34.632,221.489,77.733,336.619,82.687,136.025,5.811,227.827-43.021,280.649-149.392,2.467-4.969,5.563-12.744,9.482-22.586,18.981-47.676,54.255-136.265,112.09-142.316-3.041-11.69-10.9-12.848-19.988-14.181-11.111-1.632-23.693-3.476-30.368-24.9-147.225-11.3-882.666-67.228-1012.134-67.228l-10.721.048c-132.112.671-246.191,1.249-313.671,87.5-12.518,16-25.47,33.219-34.189,52.293-2.586,5.659-4.946,11.531-7.228,17.21-4.918,12.237-10,24.889-17.682,36.241-17.432,25.752-47.868,40.85-72.322,52.98-37.4,18.547-51.865,57.709-42.992,116.4,5.444,36.016,17.531,73.291,30.327,112.752,29.609,91.315,60.228,185.744,7.236,269.464-27.529,43.493-79.991,67.624-130.52,60.016-59.237-8.9-111.929-10.369-176.556,11.424-46.409,15.65-98.293,35.909-126.6,78.491-11.086,16.68-17.91,33.539-24.509,49.843-11.366,28.078-22.1,54.6-52.786,76.959-93.336,68-213.21,98.348-329.138,127.7-13.524,3.425-27.508,6.965-41.029,10.465-58.566,15.167-108.476,40.312-152.582,76.883-73.669,61.078-131.653,165.541-73.462,275.543,40.5,76.556,132.152,131.036,233.494,138.8,99.148,12.461,182.881,34.081,256.009,66.1C1442.5,1725.679,1514.484,1780.941,1566.731,1850.636Z" transform="translate(-734.987 83.87)"/><path d="M1733.146,1989.694c-124.02,0-220.673-87.775-306.73-165.924q-7.923-7.2-15.774-14.3c-87.021-78.619-162.177-146.518-325.4-173.41l-.567-.092c-58.2-9.591-113.179-18.647-165.311-48.454-55.025-31.455-90.965-86.746-101.2-155.686-9.3-62.626,3.1-131.961,34.005-190.225,8.671-16.344,18.025-33.662,28.658-49.91,40.147-61.362,125-89.037,185.334-104.514,26.567-6.814,53.715-14.732,79.969-22.391,30.212-8.813,61.455-17.929,92.38-25.54,10.766-2.65,21.81-5.152,32.493-7.572,43.916-9.95,89.326-20.24,128.195-43.648,21.958-13.227,37.213-30.193,45.34-50.425,6.343-15.789,13.577-28.641,20.573-41.07,6.557-11.651,13.338-23.7,19.487-38.292,19.645-46.621,73.464-74.173,112.238-90.84,40.928-17.589,102.555-40.471,164.984-36.512,7.084.451,14.2,1.042,21.731,1.665,47.356,3.915,101.031,8.365,136.919-25.772,27.248-25.915,38.146-74.152,39.259-110.653,1.739-57.015-12.663-106.27-29.339-163.3-7.308-25-14.865-50.845-21.767-79.613-8.853-36.907-7.336-73.659,4.27-103.485,11.139-28.625,38.776-45.6,65.5-62.015l5.907-3.637c25.829-16,46.226-36.588,58.984-59.557,3.86-6.949,7.574-14,11.165-20.83,10.716-20.359,20.839-39.593,35.4-58.049,72.235-91.575,184.378-92.217,314.23-92.959.819-.008,4.724-.028,7.686-.044l3.316-.016c5.738,0,12.14.044,19.152.144,150.137,2.342,819.261,52.573,1020.763,67.91l.767.056.208.683c4.422,14.336,19.645,64.2,29.943,103.919l.148.567-.458.4c-26.594,23.616-44.132,52.129-50.722,82.463-31.966,147.124-100.672,252.717-193.46,297.331-57.065,27.427-118.689,29.315-178.216,5.46-50.386-20.2-94.135-41.226-136.442-61.561C2803.983,390.986,2707,344.361,2563.774,380.985c-43.386,11.1-113.723,46.957-142.914,78.343-13.806,14.847-28.2,29.734-42.116,44.131-33.973,35.147-69.1,71.491-98.915,110.469-22.237,29.08-58.519,66.434-93.607,102.559-35.589,36.64-72.389,74.528-94.754,103.972-41.593,54.76-43.5,103.636-45.516,155.383-1.271,32.581-2.584,66.266-13.068,104.746l-.343,1.262c-22,80.758-46.935,172.3-49.186,259.218-1.4,54.1,5.646,103.456,20.948,146.693,8.889,25.116,23.1,47.851,36.839,69.839,12.237,19.577,24.888,39.82,33.794,61.732,43.023,105.847-25.712,228.869-115.844,295.686-51.446,38.141-120.455,63.987-194.316,72.785A267.6,267.6,0,0,1,1733.146,1989.694Zm14.1-1257.226c-56.9,0-111.937,20.646-149.479,36.783-38.426,16.519-91.75,43.792-111.107,89.731-6.191,14.7-13,26.789-19.586,38.488-6.966,12.376-14.167,25.169-20.463,40.842-8.295,20.651-23.841,37.953-46.2,51.423-39.186,23.6-84.785,33.933-128.882,43.923-10.671,2.414-21.705,4.917-32.45,7.56-30.875,7.6-62.093,16.707-92.282,25.516-26.272,7.664-53.438,15.59-80.044,22.415-59.967,15.383-144.289,42.862-184.028,103.6-10.587,16.176-19.915,33.446-28.565,49.751-59.771,112.676-51.391,275.957,66.372,343.286,51.771,29.595,106.543,38.619,164.53,48.174l.567.092c163.9,27,239.282,95.107,326.565,173.962q7.859,7.1,15.78,14.3c92.877,84.347,198.141,179.968,336.518,163.461,73.458-8.745,142.075-34.44,193.207-72.345,89.512-66.358,157.812-188.443,115.158-293.38-8.842-21.757-21.449-41.928-33.64-61.433-13.8-22.076-28.064-44.905-37.026-70.226-15.38-43.453-22.465-93.036-21.057-147.372l1.11.024-1.11-.024c2.258-87.149,27.226-178.8,49.254-259.67l.344-1.257c10.425-38.276,11.734-71.85,13-104.323,2.031-52.057,3.948-101.229,45.916-156.484,22.44-29.543,59.287-67.476,94.918-104.163,35.046-36.081,71.283-73.391,93.447-102.368,29.884-39.078,65.057-75.462,99.071-110.653,13.912-14.392,28.3-29.271,42.088-44.1,29.444-31.659,100.312-67.815,144.006-78.99,144.073-36.823,241.4,9.95,364.61,69.172,42.274,20.315,85.986,41.325,136.3,61.492,58.9,23.612,119.858,21.74,176.3-5.4,92.182-44.322,160.479-149.415,192.311-295.918,6.64-30.569,24.239-59.3,50.9-83.129-10.126-38.974-24.914-87.492-29.561-102.583C3251.621,7.242,2584.069-42.86,2434.194-45.2c-7-.1-13.378-.128-19.105-.143l-3.314.015c-2.957.016-6.855.036-7.68.044-129.253.743-240.877,1.381-312.451,92.114-14.443,18.312-24.525,37.466-35.195,57.741-3.6,6.837-7.316,13.9-11.188,20.874-12.929,23.272-33.581,44.13-59.723,60.315l-5.913,3.644c-26.428,16.233-53.755,33.015-64.647,61-11.467,29.471-12.955,65.823-4.191,102.359,6.891,28.721,14.44,54.548,21.743,79.521,16.721,57.19,31.161,106.582,29.415,163.891-1.124,36.887-12.193,85.684-39.884,112.018-36.624,34.836-90.86,30.346-138.713,26.385-7.521-.622-14.625-1.209-21.686-1.664Q1754.446,732.462,1747.249,732.468Z" transform="translate(-734.495 85.415)"/><path d="M1663.514,2082.613c-55.3,0-110.467-21.968-160.133-63.892-48.876-41.257-87.543-91.794-124.937-140.671-44.609-58.3-90.736-118.595-154.36-163.161-41.04-28.753-87.776-50.784-138.912-65.488-18.012-5.1-36.421-9.292-54.222-13.347-40.691-9.276-82.767-18.866-121.234-39.665-59.315-32.073-98.31-84.4-112.769-151.324-20.846-96.491,11.349-217.61,80.113-301.386,48.926-59.612,125.635-101.413,227.994-124.238,30.937-6.9,62.911-9.739,93.832-12.485,20.607-1.828,41.915-3.72,62.7-6.8,77.237-11.435,143.687-59.49,177.756-128.554,35.07-71.084,98.061-125.62,177.371-153.563,38.44-13.542,79.93-20.79,123.322-21.545,13.888-.235,28.9,1.481,43.405,3.146,32.488,3.736,66.086,7.587,93.336-8.969,74.417-45.248,60.531-145.033,40.119-226.913-2.154-8.641-4.661-17.921-7.315-27.747-19.591-72.537-46.422-171.879,11.326-228.131,10.434-10.162,23.032-18.076,35.214-25.728,11.228-7.052,22.839-14.345,32.62-23.34a163.654,163.654,0,0,0,40.216-56.872c8.728-20.917,21.5-41.7,40.2-65.408,77.213-97.881,209.8-98.739,326.781-99.5l11.2-.064q9.279-.037,19.558.02c140.835.815,886.831,57.2,1034.947,68.5l5.424.411.813,2.638c4.52,14.652,18.275,59.246,28.833,98.236l.086.315-.063.319a104.74,104.74,0,0,1-6.768,22.3c-.284,18.8-5.331,35.586-8.678,46.713-.769,2.567-1.453,4.837-1.969,6.769-4.082,15.331-8.225,31.638-12.612,48.9-35.242,138.715-83.5,328.694-200.471,390.486-43.441,22.95-93.849,26.534-149.822,10.653-52.527-14.907-95.08-43.665-136.232-71.475-19.309-13.048-39.279-26.542-60.043-38.452-66.011-37.865-154.142-82.487-250.545-91.531-122.96-11.527-208.775,80.587-284.492,161.864-10.022,10.757-19.489,20.918-29.122,30.96-83.444,87.013-139.374,165.8-181.349,255.467q-6.623,14.146-13.341,28.31c-45.752,96.764-93.063,196.824-94.873,305.309-1.492,89.32,22.205,170.4,70.432,240.979,10.5,15.374,26.356,26.422,43.138,38.116,26.624,18.56,54.156,37.745,58.5,75.514,6.363,55.263-22.125,98.934-58.193,154.221-25.02,38.348-53.375,81.812-76.665,138.78-26.957,65.939-96.573,122.331-206.917,167.611-78.791,32.333-154.078,50.333-223.769,53.49Q1668.23,2082.61,1663.514,2082.613Zm79.279-1383.073q-1.353,0-2.7.023c-43.005.747-84.117,7.927-122.195,21.346-78.487,27.651-140.824,81.62-175.528,151.966-34.533,70-101.919,118.716-180.26,130.309-20.89,3.094-42.251,4.989-62.91,6.825-30.8,2.734-62.659,5.563-93.367,12.409-101.592,22.659-177.67,64.075-226.12,123.11-68.226,83.121-100.176,203.257-79.5,298.939,14.267,66.039,52.716,117.662,111.189,149.28,38.049,20.575,78.025,29.683,120.347,39.33,17.847,4.067,36.3,8.274,54.408,13.394,51.514,14.811,98.594,37.011,139.943,65.975,64.034,44.858,110.313,105.344,155.067,163.84,37.292,48.741,75.853,99.142,124.464,140.176,51.818,43.739,109.625,65.46,167.151,62.873,69.279-3.136,144.164-21.045,222.578-53.227,109.5-44.933,178.526-100.746,205.157-165.887,23.4-57.226,51.834-100.818,76.925-139.281,35.748-54.8,63.984-98.077,57.738-152.322-4.2-36.443-31.144-55.226-57.2-73.386-16.281-11.351-33.117-23.085-43.946-38.935-48.575-71.087-72.444-152.732-70.943-242.655l1.664.024-1.664-.024c1.82-109.1,49.265-209.444,95.149-306.483q6.7-14.165,13.336-28.3c42.121-89.978,98.224-169.016,181.912-256.28,9.616-10.027,19.074-20.18,29.09-30.929C2458.823,509.8,2545.26,417,2669.93,428.73c97.081,9.108,185.652,53.942,251.967,91.978,20.873,11.974,40.892,25.5,60.253,38.584,40.927,27.662,83.252,56.264,135.241,71.015,55.06,15.623,104.575,12.13,147.186-10.381,115.71-61.13,163.783-250.358,198.884-388.526,4.39-17.275,8.536-33.59,12.621-48.932.523-1.96,1.214-4.263,2-6.861,3.316-11.028,8.329-27.7,8.561-46.219l.122-.559a101.565,101.565,0,0,0,6.631-21.624c-10.534-38.871-24.215-83.226-28.72-97.825l-.182-.595-3.126-.24C3313.27-2.75,2567.386-59.126,2426.672-59.941q-10.241-.054-19.521-.02l-11.189.064c-145.145.938-253.354,8.537-324.109,98.236-18.527,23.481-31.171,44.043-39.79,64.706a166.793,166.793,0,0,1-40.97,57.941c-10,9.2-21.744,16.572-33.1,23.7-12.036,7.56-24.484,15.375-34.671,25.3-56.5,55.03-29.92,153.434-10.513,225.285,2.657,9.838,5.168,19.13,7.328,27.8,20.653,82.846,34.6,183.873-41.53,230.154-28.276,17.186-62.493,13.259-95.583,9.455C1768.961,701.071,1755.627,699.539,1742.793,699.539Z" transform="translate(-733.983 86.961)"/><path d="M1637.27,2182.34a146.668,146.668,0,0,1-24.842-1.824c-318.08-55.726-344.281-190.789-367.4-309.952-15.883-81.872-30.885-159.2-140.54-200.045h0a209.347,209.347,0,0,0-54.208-11.893c-53.18-4.794-185.1-26.059-261.357-119.709-52.8-64.842-68.466-151.795-46.572-258.441,47.164-229.735,155.155-282.383,337.938-299.174q18.7-1.718,35.816-3.185c151.215-13.227,213.8-18.7,283.306-156.014,54.7-108.062,99.385-120.859,220.557-141.948,23.041-4.011,44.318-7.455,64.9-10.785,98.315-15.916,163.267-26.43,189.869-63.269,17.217-23.847,18.948-58.571,5.61-112.592l-.589-2.387c-37.731-152.8-64.991-263.21,42.911-337.91,68.609-47.5,71.235-62.463,79.94-112.066,1.907-10.868,4.069-23.185,7.252-37.833,22.8-104.937,176.581-96.364,312.26-88.8,34.621,1.928,67.33,3.788,96.31,3.6.744,0,1.529-.008,2.317-.008,147.618,0,1046.465,69.049,1055.577,69.751l3.03.232.859,2.687c.136.431,13.981,43.772,26.415,87.583,25.8,90.912,20.817,95.083,17.52,97.845a5.928,5.928,0,0,1-2.8,1.29c-2.614,7.1-5.556,35.741-8.923,68.545-14.765,143.792-45.484,443-177.417,496.362-121.47,49.144-200.827,20.388-404.314-146.494-121.689-99.8-225.522-112.066-291.208-104.774-67.82,7.524-128.251,40.623-165.8,90.809-65.88,88.055-141.825,214.181-225.725,374.877l-8.428,16.108c-79.408,151.65-147.988,282.623-40.156,416.218,13.449,16.663,34.041,28.7,55.841,41.436,37.822,22.1,76.931,44.958,81.723,94.6,5.615,58.151-16.276,94.9-46.575,145.744-25.231,42.343-56.63,95.039-85.027,179.737-44.4,132.409-197.931,218.1-285.5,257.4C1810.158,2157.262,1698.713,2182.34,1637.27,2182.34ZM2213.144-81.391c-95.376,0-179.071,14.927-194.58,86.31-3.149,14.5-5.3,26.733-7.191,37.534-8.9,50.729-11.9,67.819-83.368,117.291-103.307,71.518-76.581,179.761-39.59,329.567L1889,491.7c13.921,56.384,11.8,93.064-6.873,118.927-28.711,39.76-95.154,50.517-195.728,66.8-20.548,3.325-41.8,6.765-64.782,10.764-120.486,20.974-161.131,32.605-214.157,137.366-71.65,141.561-135.721,147.165-290.517,160.7q-17.114,1.5-35.774,3.185c-178.5,16.4-283.967,67.875-330.094,292.557-21.411,104.3-6.288,189.093,44.952,252.023,74.136,91.048,203.107,111.787,255.116,116.476a218.78,218.78,0,0,1,56.672,12.453h0c114.2,42.534,129.624,122.024,145.95,206.183,22.614,116.568,48.245,248.685,360.318,303.358,50.158,8.8,176.783-15.662,301.861-71.787,86.277-38.714,237.5-122.989,280.906-252.457,28.664-85.492,60.3-138.592,85.725-181.254,30.648-51.435,50.894-85.417,45.517-141.089-4.4-45.624-41.634-67.38-77.637-88.422-21.524-12.576-43.781-25.584-58.21-43.461-111.034-137.566-38.019-277.011,39.286-424.643l8.422-16.1c84.1-161.074,160.277-287.568,226.416-375.97,38.991-52.114,101.7-86.482,172.049-94.285,67.5-7.5,174.017,4.961,298.176,106.781,200.068,164.076,277.561,192.557,394.835,145.122,127.157-51.439,157.544-347.412,172.149-489.648,6.2-60.4,7.858-72.489,12.942-75.342a5.681,5.681,0,0,1,1.461-.571c1.819-14.575-21.395-98.16-45.439-173.59-57.914-4.442-908.758-69.488-1051.766-69.488-.795,0-1.553,0-2.3.008-29.276.211-62.129-1.676-96.9-3.612C2285.76-79.324,2248.641-81.391,2213.144-81.391Z" transform="translate(-732.772 89.581)"/></g><g transform="translate(0 1043.31)"><path d="M-226.7,1004.752h-.013c-.758.012-3.019.978-7.646,9.718-104.323,197.191,2.138,594.793,73.159,640.206,9.392,6.007,17.448,5.552,24.625-1.381,20.3-19.621,38.333-46.977,57.427-75.945,45.123-68.449,101.28-153.642,222.86-189.979,82.124-24.538,190.852,2.028,286.778,25.476,92.7,22.662,172.763,42.231,203.932,10.081,11.849-12.221,16.194-43.241,20.793-76.085,5.574-39.8,11.892-84.917,32.784-112.093,98.576-128.227,90.687-150.594,67.27-216.992-13.186-37.385-31.245-88.585-38.69-179.389-5.429-66.222-32.9-109.312-81.665-128.066-58.213-22.4-146.787-9.5-256.147,37.3C275.54,791.776,159.231,863.37,42.416,954.646l-1.436-1.557,1.436,1.557c-95.555,74.668-166.946,108.426-212.175,100.34-29.412-5.256-41.784-26.961-49.177-39.929C-221.69,1010.228-224.811,1004.752-226.7,1004.752Zm77.8,658.194c-4.732,0-9.713-1.636-14.837-4.913-37.668-24.083-82.613-138.592-104.546-266.355-26.557-154.7-15.649-292.844,29.929-379,4.487-8.484,7.84-11.965,11.569-12.017h.088c4.562,0,7.4,4.981,11.685,12.5,7.476,13.111,18.774,32.928,46.092,37.813,43.839,7.851,113.976-25.616,208.455-99.441C156.657,860.022,273.312,788.224,376.9,743.9c110.521-47.284,200.332-60.212,259.73-37.366,50.426,19.4,78.816,63.648,84.381,131.527,7.4,90.318,25.369,141.25,38.486,178.44,23.932,67.855,31.994,90.717-67.868,220.615-20.254,26.347-26.5,70.924-32.006,110.254-4.892,34.944-9.119,65.121-21.882,78.285-32.985,34.013-114.27,14.153-208.384-8.853-95.335-23.3-203.387-49.718-284.268-25.54C25.075,1427.124-30.608,1511.6-75.349,1579.473c-19.222,29.16-37.378,56.7-58.008,76.64C-138.065,1660.663-143.3,1662.946-148.893,1662.946Z" transform="translate(282.521 -695.542)"/><path d="M330.575,870.458c-80.805,37.314-169.82,90.015-256.629,154.821-.061.026-1.078-.985-1.138-.958s.837,1.091.777,1.117c-75.486,54.977-130.867,79.944-162.1,74.887-19.608-3.5-27.856-15.5-32.784-24.143-1.836-3.219-3.917-6.375-5.174-6.375h-.008c-.505,0-2.014,1.125-5.1,6.953-69.549,131.461,1.425,422.983,48.772,453.258,6.81,3.766,13.655,2.978,20.356-2.532,17.217-14.157,34.414-34.451,53.2-55.621,5.618-6.33,11.337-12.9,17.351-19.5,40.9-44.63,95.774-93.77,179.174-107.611,64.312-10.674,147.658,6.932,222.638,18.057,3.075.453,6.138.871,9.173,1.331,72.243,10.935,132.665,17.417,158.358-11.228,7.762-8.654,11.084-29.4,14.3-51.588,3.933-26.964,8.433-57.426,22.514-76.022,69.123-91.29,66.594-112.771,51.272-163.964-8.841-29.542-22.413-68.538-30.987-134.208-6.166-47.237-28.148-78.093-64.52-94.98C511.249,804.862,428.187,825.382,330.575,870.458Zm-1.448-2.757c98.489-45.486,182.247-65.57,242.269-38.331,35.3,16.023,57,45.957,62.519,93,7.306,62.547,21.181,98.868,31.365,126.07,18.124,48.87,20.163,65.2-41.86,158.316-14.452,21.7-18.949,56.506-24.458,86.963-3.246,18.23-6.457,34.887-11.277,47.409a46.738,46.738,0,0,1-7.7,13.747c-26.321,30.6-88.514,23.564-162.025,12.39-2.1-.32-4.223-.609-6.346-.921-75.284-11.174-159.394-29.5-223.6-18.695-93.781,15.78-149.92,76.642-194.142,125.862-19.02,21.153-36.3,41.5-53.672,56.037a22.3,22.3,0,0,1-12.91,5.566,17.4,17.4,0,0,1-10.83-1.787c-.352-.2-.972-.3-1.327-.526-25.112-16.055-55.075-103.944-69.7-189.119-17.7-103.136-10.432-210.735,19.953-268.168,2.992-5.657,5.227-8.706,7.713-8.689h.059c3.041,0,4.934,2.628,7.79,7.638,4.781,8.384,11.906,18.616,28.55,22.5.709.165,1.563.276,2.307.409,29.361,5.194,84.477-19.033,159.526-74.232C158.908,958.723,247.841,905.241,329.127,867.7Z" transform="translate(280.043 -707.537)"/><path d="M282.381,993.251c-58.615,29.965-120.1,64.264-176.906,102.6-.12.053-.719-.413-.839-.36s.239.624.119.678C49.338,1131.457,9.968,1147.632-7.273,1145.6c-9.8-1.752-13.928-4.035-16.393-8.358-.918-1.61-1.958-2.445-2.587-2.445h0c-.253,0-1.006,1.275-2.549,4.189-34.774,65.73.713,251.172,24.387,266.309,4.229,1.525,9.777.352,16.086-3.684,13.881-8.88,30.348-21.966,48.98-35.3,5.367-3.84,10.833-7.868,16.567-11.809,39.168-26.919,93.21-55.69,153.622-52.437,50.123,2.7,112.971,13.845,169.868,13.415,2.343-.022,4.668-.171,6.977-.115,51.543,1.271,92.605-7.168,112.784-32.536,3.894-4.9,5.976-15.566,7.8-27.093,2.291-14.123,4.954-29.949,12.243-39.949,39.64-54.39,42.615-75,35.276-110.936-4.438-21.729-13.482-48.46-23.284-89.027-6.821-28.233-22.877-48.058-47.375-61.894C446.14,920.624,368.051,949.455,282.381,993.251Zm-1.025-1.805c86.27-44.12,164.3-71.909,224.807-39.3,20.809,11.216,35.178,28.266,40.657,54.464,7.208,34.776,17.062,56.461,24.244,73.7,12.433,29.845,10.969,41.94-15.85,96.016-8.641,17.426-11.458,42.076-16.911,63.672-3.194,12.653-6.536,24.39-10.575,33.921a53.114,53.114,0,0,1-5.487,10.109c-19.5,27.351-62.982,33.374-115.667,33.631-1.606.008-3.219.058-4.842.075-57.194.446-120.54-11.291-170.788-13.768-66.852-3.294-124.149,32.944-167.85,63.512-18.818,13.144-35.328,26.24-49.338,35.433a27.6,27.6,0,0,1-10.285,4.3c-3.894,1.012-6.784,1.2-8.412.37-.176-.1-.885.031-1.063-.083-12.556-8.028-27.538-69.3-34.848-111.885-8.853-51.568-5.216-128.623,9.977-157.34,1.5-2.829,2.613-5.369,3.857-5.36h.029c1.521,0,2.466.274,3.895,2.78,2.39,4.192,5.953,5.911,14.275,7.852.353.082.973.08,1.344.147,14.884,2.536,54.751-12.615,110.6-49.023A1991.851,1991.851,0,0,1,281.356,991.446Z" transform="translate(277.564 -719.473)"/><path d="M73.969,1190.634v89.7a471.639,471.639,0,0,1,72.358-23.923c37.574-9.033,90.294-15.889,128.071,2.738,35.6,17.558,78.283,20.759,117.1,8.773,33.261-10.265,59.5-30.461,71.991-55.406,1.069-2.136,2.169-4.291,3.281-6.474,19.215-37.7,40.993-80.432-26.531-130.562-56.93-42.275-133.007-3.261-206.048,40.315C147.938,1167.261,79.7,1188.869,73.969,1190.634Zm-1.11,91.327V1189.9l.384-.116c.7-.207,70.785-21.405,160.343-74.839,73.381-43.788,149.836-82.958,207.346-40.259,30.374,22.55,45.445,45.767,46.077,70.98.55,21.987-9.962,42.615-19.237,60.814-1.111,2.179-2.211,4.335-3.278,6.47-12.617,25.2-39.1,45.588-72.648,55.945-39.1,12.065-82.1,8.848-117.973-8.841-71.735-35.378-198.94,20.982-200.215,21.553Z" transform="translate(275.086 -731.158)"/></g><g transform="translate(1145.265 1225.533)"><path d="M1755.77,1982.282c-69.614,0-100.024-21.137-150.292-67.407-9.816-9.036-19.179-18.671-29.09-28.876-47.111-48.494-105.741-108.845-273.028-162.563-64.816-20.815-114.729-26.286-158.768-31.112-91.13-9.99-151.332-16.592-237.322-158.061-21.461-35.306-25.72-69.93-12.658-102.905,40.837-103.094,238.874-172,398-227.361,61.49-21.4,114.6-39.873,148.452-56.963,81.053-40.915,109.885-93.1,135.323-139.131,20.381-36.887,39.633-71.726,81.892-95.705,55.813-31.67,151.005-1.673,155.032-.379l.6.24c127.346,61.505,115.6,198.66,104.236,331.3-2.532,29.563-5.151,60.132-6.108,89.1-1.91,57.809-5.351,95.93-8.386,129.564-3.849,42.654-6.89,76.344-4.066,129.06,2.433,45.4,8.389,78.443,14.15,110.4,5.926,32.884,11.526,63.944,13.53,106.973,5.23,112.3-34.174,163.732-131.755,171.97C1780.9,1981.656,1767.751,1982.282,1755.77,1982.282ZM1723.936,906.023c-21.668,0-43.655,3.293-61,13.135-40.133,22.77-57.976,55.063-78.635,92.449-26.02,47.093-55.513,100.463-138.969,142.594-34.4,17.366-87.777,35.937-149.58,57.442-149.123,51.882-353.354,122.941-392.8,222.51-12.138,30.641-8.078,62.978,12.064,96.117,83.78,137.837,139.052,143.9,230.623,153.933,44.488,4.878,94.913,10.406,160.642,31.511,169.452,54.413,228.931,115.639,276.723,164.834,9.826,10.114,19.108,19.669,28.749,28.545,57.963,53.351,86.83,71.292,182.945,63.186,91.678-7.739,128.67-56.628,123.695-163.477-1.982-42.535-7.537-73.355-13.418-105.988-5.8-32.185-11.8-65.468-14.258-111.339-2.852-53.251.209-87.181,4.086-130.135,3.026-33.534,6.457-71.542,8.359-129.136.964-29.167,3.59-59.837,6.131-89.5,11.125-129.882,22.621-264.188-99.206-323.266C1806.2,918.241,1765.66,906.023,1723.936,906.023Z" transform="translate(-887.217 -897.728)"/><path d="M1753.078,1939.236c-16.665,0-33.007-1.808-46.923-3.348-46.8-5.173-85.238-21.333-114.236-48.027-7.974-7.34-15.671-15.039-23.82-23.19-44.351-44.359-99.547-99.561-257.2-150.181-49.734-15.973-90.618-25.648-126.689-34.185-96.367-22.81-149.45-35.375-201.574-134.768-18.834-35.917-21.529-70-8.006-101.29,37.164-86,189.387-139.366,311.7-182.244,48.664-17.058,94.63-33.171,125.63-48.821,59.741-30.157,84.895-51.718,109.22-72.573,14.363-12.313,27.931-23.943,48.017-37,27.569-17.916,82.535-47.368,141-43.345a140.855,140.855,0,0,1,50.594,12.959c51.906,24.458,88.43,78.248,93.053,137.031,7.607,96.78,3.163,188.674-1.542,285.964-1.612,33.326-3.278,67.787-4.387,102.1-.534,16.512-1.5,33.3-2.424,49.532-2,34.8-4.055,70.8-2.022,106.2.706,12.269,2.651,25.089,4.71,38.659,5.888,38.783,11.977,78.887-10.176,111.356C1818.613,1932.5,1785.248,1939.236,1753.078,1939.236Zm-53.854-878.322c-53.973,0-103.655,26.813-129.381,43.536-20.024,13.011-33.565,24.622-47.9,36.911-24.373,20.894-49.578,42.5-109.441,72.716-31.068,15.686-77.068,31.81-125.769,48.881-122.111,42.81-274.081,96.084-311.065,181.669-13.4,31.015-10.719,64.813,7.974,100.463,51.9,98.971,104.805,111.491,200.851,134.225,36.092,8.541,77,18.224,126.778,34.209,157.911,50.7,213.211,106.015,257.645,150.453,8.142,8.142,15.832,15.833,23.788,23.157,28.819,26.533,67.035,42.595,113.584,47.739,40.506,4.479,101.712,11.26,130.778-31.347,21.939-32.154,15.879-72.07,10.019-110.674-2.063-13.594-4.013-26.433-4.72-38.743-2.037-35.462.026-71.479,2.021-106.311.93-16.228,1.891-33.011,2.424-49.511,1.108-34.317,2.775-68.781,4.387-102.111,4.7-97.263,9.147-189.129,1.544-285.848-4.594-58.436-40.883-111.895-92.45-136.193a139.59,139.59,0,0,0-50.173-12.847Q1704.649,1060.912,1699.224,1060.913Z" transform="translate(-888.869 -913.739)"/><path d="M1681.593,1907.2c-45.2,0-73.033-17.1-107.223-48.573l-6.051-5.588c-45.035-41.645-96.079-88.848-257.8-140.783-166.294-53.394-233.689-95.019-257.542-159.066-54.1-145.242,101.11-200.085,225.821-244.152,37.819-13.363,73.537-25.984,101.341-40.02,16.583-8.37,33.385-17.4,49.633-26.14,46.323-24.9,94.223-50.656,145.72-66.018h0c9.592-2.862,19.207-5.328,28.576-7.328,38.511-8.214,132.763-20.171,176.172,46.159,28.451,43.472,36.6,99.928,42,149.435,6.4,58.655,11.147,108.2,9.3,166.994-.9,28.7-8.556,56.8-15.96,83.964-5.069,18.6-10.31,37.841-13.3,57.022-2.806,17.988-.573,41.832,1.79,67.077,6.3,67.316,13.445,143.613-65.239,160.124C1716.7,1904.949,1698,1907.2,1681.593,1907.2Zm-104.736-726.452c-51.039,15.227-98.73,40.866-144.85,65.66-16.274,8.749-33.1,17.8-49.737,26.194-28.067,14.169-63.924,26.837-101.885,40.251-129.332,45.7-275.922,97.5-223.214,239.011,23.337,62.659,90.016,103.621,254.806,156.536,162.69,52.242,214.116,99.8,259.489,141.757l6.043,5.58c46.3,42.622,78.808,57.677,160.325,40.587,74.914-15.722,67.949-90.138,61.8-155.79-2.386-25.484-4.639-49.555-1.76-68.01,3.024-19.39,8.294-38.731,13.39-57.434,7.345-26.957,14.94-54.832,15.829-83.089,1.839-58.552-2.9-107.959-9.279-166.466-5.352-49.064-13.4-104.989-41.381-147.735-41.908-64.031-133.807-52.305-171.365-44.283-9.247,1.972-18.74,4.406-28.212,7.232Z" transform="translate(-890.454 -923.923)"/></g><path d="M2107.169,665.1c-27.639,0-53.282-13.886-56.855-31.79-3.806-19.078-3.412-32.6-2.994-46.924.823-28.1,1.752-59.953-28.829-145.708-3.274-9.187-6.438-17.865-9.433-26.079-36.389-99.8-48.648-133.427,70.642-178.867,94.752-36.092,149.117-138.26,175.245-187.356,10.632-19.98,15.1-28.138,19.084-29.36l.371-.112.389.008L3360.1,44.85l.525.312c30.765,18.252,32.191,57.985,3.719,103.7-28.109,45.125-92.295,104.515-188.142,135.85-71.494,23.368-184.4,38.327-316.283-23.137-205.648-95.85-457.061,12.512-592.127,70.732q-10.456,4.509-19.884,8.545c-111.354,47.52-89.973,169.173-79.7,227.632,2.014,11.455,3.6,20.5,3.667,26.114.459,40.711-21.048,66.95-57.529,70.186C2111.949,665,2109.551,665.1,2107.169,665.1ZM2275.206,23.01c-2.687,1.629-9.293,14.041-16.274,27.161C2232.565,99.721,2177.7,202.822,2081.4,239.507c-115.461,43.979-104.488,74.077-68.131,173.79q4.5,12.339,9.443,26.1c30.821,86.434,29.88,118.663,29.049,147.1-.412,14.1-.8,27.416,2.922,46.078,3.427,17.171,31.657,30.585,59.242,28.138,16.3-1.445,54.137-10.772,53.515-66.074-.06-5.3-1.626-14.217-3.61-25.5-10.45-59.457-32.2-183.169,82.214-231.995q9.407-4.016,19.868-8.54c135.751-58.516,388.434-167.424,596.017-70.677,227.009,105.811,431.7-3.744,498.566-111.1,27.014-43.376,26.317-80.822-1.759-97.924Z" transform="translate(235.103 414.576)"/><path d="M2225.286,288.429c-13.89,0-52.277-1.361-55.623-16.288-4.359-19.533,34.387-44.24,83.443-75.519,19.463-12.409,39.586-25.24,59.006-39.022,77.411-54.935,123.424-63.7,181.68-74.8,10.932-2.084,22.236-4.239,34.328-6.8,60.609-12.836,100.375-9.858,119.489-8.421,4.926.371,8.483.643,10.078.406l.175-.012,551.012,1.8.316.268c9.58,8.03,9.881,18.611.871,30.605-19.216,25.575-79.447,55.318-146.471,72.325-78.5,19.924-149.714,19.066-195.365-2.363-64.766-30.389-138.9-43.751-214.424-38.718-59.071,3.955-120.82,18.623-183.529,43.588-40.771,16.228-75.5,37.339-112.26,59.689-13.589,8.262-27.64,16.8-41.938,25.017-31.816,18.284-60.059,27.5-86.342,28.194C2228.969,288.4,2227.415,288.429,2225.286,288.429ZM2615.824,68.273c-21.38,0-50.432,1.932-87.206,9.715-12.116,2.567-23.432,4.722-34.374,6.809-57.977,11.048-103.77,19.773-180.777,74.425-19.464,13.814-39.612,26.658-59.1,39.082-46.466,29.626-86.6,55.214-82.532,73.422,2.838,12.66,37.687,15.158,57.832,14.608,25.877-.679,53.757-9.8,85.23-27.882,14.272-8.2,28.313-16.736,41.89-24.989,36.848-22.4,71.652-43.56,112.6-59.86,62.94-25.057,124.931-39.776,184.25-43.748,75.918-5.1,150.468,8.378,215.594,38.935,45.164,21.19,115.79,22,193.767,2.211,66.563-16.891,126.287-46.3,145.235-71.518,8.3-11.052,8.225-20.356-.23-27.663l-550.068-1.8c-1.878.247-5.33-.013-10.51-.4C2640.021,69.059,2629.487,68.273,2615.824,68.273Z" transform="translate(231.222 409.904)"/><g transform="translate(2100.16 1943.805)"><path d="M2461.507,1872.226a70.591,70.591,0,0,0-21.043,3.061c-42.39,13.179-61.238,67-81.192,123.976-11.729,33.494-23.855,68.122-41.4,96.3-39.464,63.4-91.971,108.962-165.239,143.393-65.284,30.681-138.819,48.686-216.672,67.747-20.224,4.95-41.136,10.07-62,15.447-9.284,2.395-10.457,4.19-10.33,5.049.92,6.238,54.892,15.482,306.785,24.094,162.026,5.537,387.507,10.242,670.177,13.978,473.5,6.262,952.348,7.69,972.343,7.751l-15.112-144.7.007-.056c.156-1.221,15.425-123.472-7.987-248.973-21.588-115.718-81.426-257.938-243.905-278.333-186.182-23.376-228.248,34.308-286.476,114.13-39.7,54.42-89.105,122.156-198.865,180.91-50.872,27.233-128.112,36.305-211.939,24.906-97.276-13.235-198.838-52.329-293.7-113.056C2517.712,1884.011,2486.887,1872.226,2461.507,1872.226Zm1352.656,501.822h-.613c-4.861-.013-491.674-1.385-972.969-7.751-282.679-3.736-508.166-8.442-670.2-13.981-96.214-3.29-170.834-6.913-221.792-10.768-76.1-5.763-85.558-10.868-86.051-14.2-.32-2.172,3.217-4.132,11.131-6.171,20.867-5.38,41.783-10.5,62.011-15.454,151.741-37.15,295.068-72.241,381.233-210.661,17.482-28.087,29.592-62.667,41.3-96.105,20.041-57.23,38.972-111.287,81.892-124.63,29.178-9.06,66.951,1.629,115.487,32.7,94.724,60.639,196.12,99.669,293.23,112.88,83.568,11.372,160.56,2.339,211.218-24.778,109.54-58.635,158.867-126.258,198.5-180.6,58.451-80.131,100.687-138.024,287.55-114.573,72.055,9.044,130.187,42.483,172.785,99.39,34.049,45.484,58.3,105.98,72.066,179.8,23.244,124.614,8.4,246.02,8,249.193Z" transform="translate(-1862.518 -1694.688)"/><path d="M3578.922,1822.594c-49.978-10.938-89.231-13.563-122.281-6.8-53.7,10.834-85.406,41.051-115.554,80.033-5.949,7.7-11.841,15.736-17.845,24.035-23.708,32.806-49.753,70.263-86.49,107.393q-9.466,9.566-19.687,19.12c-17.436,16.242-38.665,30.314-64.276,42.232-46.274,21.625-115.242,26.051-191.831,15a753.229,753.229,0,0,1-104.615-23.191,991.36,991.36,0,0,1-165.124-65.306c-21.591-10.849-41.327-18.477-59.542-22.759a130.383,130.383,0,0,0-26.635-3.7,90.9,90.9,0,0,0-19.017,1.63c-44.1,8.322-67.107,44.048-92.032,84.22-15.05,24.257-31.844,49.414-52.272,72.818-23.493,26.917-49.47,51.849-81.959,74.353a401.21,401.21,0,0,1-77.417,41.608c-62.91,25.65-131.943,38.647-197.679,51.482-1.326.259-2.652.506-3.975.754-17.719,3.32-36.29,6.664-52.378,10.475-7.708,1.829-9.5,3.321-9.456,4.276.1,2.236,8.565,5.917,43.048,12.813,29.006,2.954,141.657,6.165,231.982,9.254,108.018,3.69,415.687,6.828,604.134,9.318,259.92,3.438,740.1,4.69,832.1,5.048,19.875-1.867,34.2-4.8,40.225-9.267,3.462-4.224-2.2-106.076,1.573-112.327l.008-.043c5.549-9.842,19.825-102.171,2.153-197.563C3757.223,1956.375,3705.869,1850.379,3578.922,1822.594Zm116.13,64.461c41.23,43.457,69.509,96.548,81.217,160.12,17.61,95.087,3.6,187.048-2.159,198.342-3.847,6.428,1.774,109.089-1.77,113.412-.031.038-.472.076-.5.114-3.856,3.982-18.241,7.692-37.824,8.771-.991,0-1.6.926-2.631.923-92.581-.36-573.24-1.616-832.548-5.046-188.453-2.49-498.265-5.628-606.287-9.321-64.143-2.192-166.733-4.608-200.7-7.179-7.047-.533-19.925-1.059-25.361-1.573-.152-.014-.457-.1-.608-.113-42.86-7.524-49.187-12.072-49.2-15.43-.006-2.173,3-3.99,9.6-5.726,16.489-4.322,35.5-7.551,57.081-11.572,100.8-18.773,209.5-41.169,292.289-107.962,20.389-16.451,38.426-34.835,55.383-54.837,19.506-23.007,35-48.752,49.329-73.287,24.807-42.465,47.362-80.091,88.638-89.127,27.5-6.019,61.891,1.7,105.932,23.585,81.5,40.411,166.388,69.811,248.38,83.817q6.963,1.187,13.886,2.22c72.385,10.763,139.017,7.588,185.947-9.253,77.431-28.039,125.423-63.9,156.294-106.059q8.96-12.236,17.124-24.107,3.964-5.714,7.8-11.3c50.732-74.162,92.1-121.731,233.9-128.92a183.2,183.2,0,0,1,42.942,3.334C3624.289,1828.907,3661.674,1851.873,3695.052,1887.055Z" transform="translate(-1865.743 -1706.279)"/><path d="M3611.9,1944.02c-41.553-15.137-75.8-20.438-106.908-13.723-43.762,9.287-74.093,36.966-102.07,72.75-5.354,6.852-10.626,14-15.905,21.378-21.929,30.673-44.3,65.422-71.12,99.41q-7.453,9.445-15.092,18.8c-13.873,16.9-32.459,29.441-55.83,38.366-41.675,16.018-102.373,15.8-171.722,5.1-30.007-4.614-61.361-11.189-93.564-19.167-50.295-12.439-101.514-27.584-152.214-44.771a367.766,367.766,0,0,0-55.083-14.449,202.341,202.341,0,0,0-23.815-2.845,150.161,150.161,0,0,0-16.989.2c-46.077,2.832-73.635,21.055-102.873,44.463-18.752,15.013-39.144,30.965-63.149,49.334-23.5,17.981-49.431,37.093-81.942,56.16a381.845,381.845,0,0,1-71.569,32.368c-60.665,20.406-125.18,28.266-178.689,35.218-1.2.156-2.391.294-3.576.437-16.594,1.982-34.315,3.941-47.131,6.575-6.133,1.261-8.515,2.443-8.583,3.5-.1,1.574,4.951,5.425,36.536,15.411,14.5,1.477,161.577,3.083,206.74,4.627,54.009,1.844,443.866,3.414,538.09,4.658,129.96,1.719,696.824,2.345,742.822,2.524,10.153-3.849,20.966-9.765,29.479-18.713,6.923-8.446,10.716-67.454,18.257-79.956,0,0,.007-.027.01-.031,10.939-18.462,24.224-80.87,12.292-146.153C3746.186,2048.966,3703.4,1977.349,3611.9,1944.02Zm59.325,30.546c49.368,40.861,80.721,87.116,90.365,140.436,11.977,65.559-1.193,128.075-12.314,147.49-7.7,12.855-11.676,72.471-18.762,81.117-.062.076-.329.152-.391.228-6.825,7.966-18.6,15.433-27.636,17.706-.5,0-.191,1.864-.707,1.862-46.291-.179-615.044-.807-744.7-2.523-94.226-1.244-488.361-2.814-542.373-4.66-32.072-1.1-162.63-2.3-179.616-3.589-3.524-.267-19.995-.53-22.713-.787-.075-.007-.461-.156-.536-.163-35.789-10.287-41.5-15.217-41.031-19.08.262-2.17,2.786-3.847,8.068-5.281,12.11-3.261,29.108-4.882,52.149-7.687,78.659-9.576,180.031-23.589,259.515-74.855,20.2-13.03,37.908-26.669,54.6-40.082,22.067-17.736,40.528-34.828,57.356-50.47,29.785-27.687,55.721-48.967,95.384-53.625,25.794-3.029,56.831,1.781,96.375,14.475,73.406,23.473,147.635,44.25,219.365,57.129q5.992,1.074,11.939,2.065c61.2,10.155,117.488,12.919,160.675,6.272,70.7-10.881,118.12-32.311,143.79-71.111q7.049-10.655,13.807-21.285,3.191-4.992,6.328-9.94c43.013-68.194,84.276-126.91,180.242-143.27,12.247-2.089,24.2-4.231,36.33-4.08C3603.287,1931.312,3637.728,1946.843,3671.224,1974.566Z" transform="translate(-1868.968 -1717.668)"/><path d="M2359.317,2353.5H3666.409c.432-5.831,7.729-14.731,18.733-28.157,25.382-30.972,67.867-82.806,57.385-142.347-7.379-41.925-40.234-81.637-97.651-118.037-32.434-20.562-62.371-27.312-91.534-20.643-33.826,7.741-62.778,32.88-88.586,65.466s-48.47,72.619-69.714,110.148c-3.545,6.262-7.041,12.44-10.5,18.483-35.255,61.628-143.932,40.859-281.512,14.548-61.367-11.73-124.823-23.864-189.928-30.377-138.766-13.885-161-3.337-305.622,65.3-76.855,36.476-171.842,40.06-228.595,42.2-22.862.863-48.772,1.84-49.592,5.4C2329.083,2336.411,2330.63,2340.422,2359.317,2353.5Zm1312.859,4.087h-1313.9l-.465-.211c-28.719-13.052-33.868-18.376-32.866-22.731,1.478-6.414,16.61-7.24,53.754-8.64,56.387-2.128,150.76-5.684,226.741-41.749,145.655-69.128,168.04-79.756,308.139-65.736,65.314,6.533,128.88,18.687,190.349,30.441,135.754,25.951,242.986,46.457,276.682-12.456,3.451-6.035,6.946-12.206,10.489-18.465,42.922-75.825,91.572-161.765,161.166-177.693,30.046-6.877,62.046.276,95.124,21.242,58.451,37.058,91.934,77.685,99.515,120.751,10.785,61.265-32.414,113.969-58.224,145.46-9.9,12.077-19.247,23.485-17.726,26.984Z" transform="translate(-1872.19 -1728.566)"/></g></g></g></g></g></svg>